{"glyphs":{"0":{"ha":851,"x_min":74,"x_max":779,"o":"m 74 485 q 168 858 74 722 q 426 994 263 994 q 683 860 590 994 q 779 485 779 724 q 686 111 779 242 q 426 -21 592 -21 q 167 113 258 -21 q 74 485 74 243 m 200 485 q 426 78 200 78 q 651 485 651 78 q 426 894 651 894 q 200 485 200 894 z "},"1":{"ha":519,"x_min":38,"x_max":393,"o":"m 38 760 q 196 832 121 769 q 293 972 269 892 l 393 972 l 393 0 l 271 0 l 271 778 q 38 638 188 643 l 38 760 z "},"2":{"ha":788,"x_min":64,"x_max":725,"o":"m 64 0 q 108 165 64 92 q 267 322 150 236 l 399 424 q 582 700 582 565 q 533 840 582 788 q 397 894 483 894 q 253 832 304 894 q 199 651 199 767 l 199 633 l 74 633 l 74 665 q 167 907 74 815 q 397 994 256 994 q 621 915 535 994 q 708 701 708 833 q 646 510 708 594 q 562 417 614 467 q 438 313 510 368 l 369 261 q 215 111 229 157 l 725 111 l 725 0 l 64 0 z "},"3":{"ha":814,"x_min":64,"x_max":743,"o":"m 188 281 q 243 135 188 190 q 399 78 303 78 q 556 131 494 78 q 617 271 617 183 q 556 406 617 356 q 403 454 496 454 l 346 454 l 346 561 l 404 561 q 538 606 485 561 q 592 733 592 653 q 542 851 592 807 q 408 894 494 894 q 204 700 211 894 l 79 700 q 169 914 82 833 q 410 994 254 994 q 629 922 543 994 q 718 739 718 850 q 542 513 718 572 q 743 267 743 461 q 646 61 743 142 q 399 -21 549 -21 q 106 122 190 -21 q 64 281 64 190 l 188 281 z "},"4":{"ha":824,"x_min":38,"x_max":785,"o":"m 442 972 l 606 972 l 606 360 l 785 360 l 785 249 l 606 249 l 606 0 l 483 0 l 483 249 l 38 249 l 38 367 l 442 972 m 483 863 l 442 796 l 153 360 l 483 360 l 483 863 z "},"5":{"ha":792,"x_min":64,"x_max":733,"o":"m 189 260 q 242 128 189 176 q 385 78 293 78 q 549 143 488 78 q 607 317 607 207 q 553 486 607 421 q 401 550 497 550 q 272 510 329 550 q 196 421 215 469 l 79 421 l 150 972 l 679 972 l 679 861 l 242 861 l 201 543 q 431 649 282 649 q 696 490 614 649 q 733 325 733 415 q 639 75 733 172 q 389 -21 543 -21 q 104 114 185 -21 q 64 260 64 179 l 189 260 z "},"6":{"ha":829,"x_min":72,"x_max":754,"o":"m 72 464 q 147 808 72 672 q 464 994 250 994 q 672 922 592 994 q 753 738 753 851 l 629 738 q 581 853 628 808 q 461 897 536 897 q 196 533 213 897 q 194 489 194 526 q 453 638 274 638 q 671 544 586 638 q 754 314 754 453 q 658 74 754 169 q 422 -21 564 -21 q 107 221 182 -21 q 72 464 72 324 m 217 317 q 274 135 217 200 q 422 72 328 72 q 569 139 511 72 q 628 313 628 206 q 574 474 628 408 q 429 539 517 539 q 244 429 304 539 q 217 317 217 376 z "},"7":{"ha":711,"x_min":32,"x_max":675,"o":"m 32 972 l 675 972 l 675 853 q 431 463 525 686 q 357 237 383 351 q 325 0 331 122 l 194 0 q 504 799 235 481 q 531 830 517 814 q 560 861 544 846 l 32 861 l 32 972 z "},"8":{"ha":836,"x_min":72,"x_max":764,"o":"m 126 407 q 276 504 182 475 q 96 733 96 568 q 185 919 96 847 q 418 994 276 994 q 650 919 560 994 q 739 733 739 847 q 560 504 739 568 q 710 407 654 475 q 764 258 764 340 q 672 54 764 129 q 418 -21 578 -21 q 165 54 257 -21 q 72 258 72 129 q 126 407 72 340 m 258 122 q 418 72 318 72 q 578 122 517 72 q 638 258 638 172 q 576 392 638 339 q 418 444 515 444 q 260 392 321 444 q 199 258 199 339 q 258 122 199 172 m 221 733 q 275 611 221 658 q 418 564 328 564 q 560 611 507 564 q 614 733 614 658 q 560 854 614 806 q 418 900 506 900 q 275 853 326 900 q 221 733 221 804 z "},"9":{"ha":821,"x_min":64,"x_max":747,"o":"m 158 903 q 394 994 254 994 q 714 739 638 994 q 747 494 747 628 q 674 150 747 278 q 378 -21 579 -21 q 165 49 243 -21 q 85 231 92 115 l 210 231 q 383 75 219 75 q 565 181 506 75 q 625 442 625 282 q 625 467 625 457 q 624 483 625 476 q 375 357 539 357 q 106 510 192 357 q 64 674 64 582 q 158 903 64 811 m 192 678 q 250 517 192 581 q 396 451 308 451 q 544 517 483 451 q 606 678 606 582 q 544 838 606 772 q 396 901 485 901 q 218 792 274 901 q 192 678 192 740 z "},"\u0000":{"ha":0,"x_min":0,"x_max":0,"o":""},"\r":{"ha":347,"x_min":0,"x_max":0,"o":""}," ":{"ha":329,"x_min":0,"x_max":0,"o":""},"!":{"ha":346,"x_min":101,"x_max":244,"o":"m 144 261 l 107 663 l 107 972 l 240 972 l 240 663 l 201 261 l 144 261 m 101 0 l 101 151 l 244 151 l 244 0 l 101 0 z "},"\"":{"ha":468,"x_min":74,"x_max":394,"o":"m 285 972 l 394 972 l 394 853 l 369 661 l 310 661 l 285 853 l 285 972 m 183 972 l 183 853 l 158 661 l 99 661 l 74 853 l 74 972 l 183 972 z "},"#":{"ha":854,"x_min":50,"x_max":806,"o":"m 210 375 l 242 608 l 94 608 l 94 700 l 256 700 l 293 972 l 392 972 l 353 700 l 561 700 l 599 972 l 696 972 l 658 700 l 806 700 l 806 608 l 646 608 l 613 375 l 757 375 l 757 283 l 600 283 l 563 0 l 465 0 l 501 283 l 293 283 l 257 0 l 160 0 l 196 283 l 50 283 l 50 375 l 210 375 m 515 375 l 549 608 l 339 608 l 308 375 l 515 375 z "},"$":{"ha":832,"x_min":47,"x_max":779,"o":"m 169 313 q 228 156 172 218 q 378 79 283 94 l 378 447 l 342 456 q 79 725 79 519 q 164 907 79 832 q 378 993 246 982 l 378 1128 l 479 1128 l 479 990 q 679 897 604 976 q 756 700 754 818 l 633 700 q 479 892 626 860 l 479 542 l 521 532 q 779 269 779 469 q 697 78 779 160 q 479 -18 614 -4 l 479 -154 l 378 -154 l 378 -19 q 139 83 225 -4 q 47 313 49 172 l 169 313 m 479 81 q 608 142 560 93 q 654 261 654 189 q 479 424 654 375 l 479 81 m 378 564 l 378 894 q 203 725 203 874 q 374 565 203 604 l 378 564 z "},"%":{"ha":1068,"x_min":43,"x_max":1025,"o":"m 594 221 q 654 388 594 324 q 808 451 713 451 q 965 388 906 451 q 1025 221 1025 324 q 965 53 1025 117 q 808 -12 904 -12 q 654 53 713 -12 q 594 221 594 117 m 43 754 q 103 921 43 857 q 258 985 163 985 q 415 921 356 985 q 475 754 475 857 q 415 588 475 651 q 258 522 354 522 q 103 588 164 522 q 43 754 43 651 m 947 972 l 239 0 l 121 0 l 828 972 l 947 972 m 729 121 q 808 82 760 82 q 888 121 857 82 q 918 221 918 157 q 888 324 918 285 q 808 364 856 364 q 729 324 761 364 q 700 221 700 283 q 729 121 700 158 m 179 654 q 258 617 210 617 q 338 654 306 617 q 367 754 367 693 q 338 857 367 817 q 258 897 306 897 q 179 857 211 897 q 150 754 150 817 q 179 654 150 693 z "},"&":{"ha":883,"x_min":60,"x_max":874,"o":"m 286 544 l 281 551 q 189 686 211 642 q 165 788 165 736 q 235 933 165 872 q 413 994 307 994 q 585 940 515 994 q 653 792 653 885 q 463 524 653 639 l 456 521 l 646 285 q 663 339 660 324 q 674 412 669 376 q 681 479 678 447 l 808 479 q 722 189 801 314 l 874 0 l 726 0 l 649 99 q 363 -21 525 -21 q 151 47 236 -21 q 60 236 60 119 q 276 538 60 406 l 286 544 m 238 124 q 371 78 288 78 q 583 179 496 78 l 354 464 l 347 458 q 186 243 186 347 q 238 124 186 169 m 292 779 q 379 610 292 724 l 389 599 l 397 604 q 532 792 532 681 q 499 868 532 839 q 415 894 468 894 q 326 864 357 894 q 292 779 292 833 z "},"'":{"ha":257,"x_min":74,"x_max":183,"o":"m 99 661 l 74 853 l 74 972 l 183 972 l 183 853 l 158 661 l 99 661 z "},"(":{"ha":394,"x_min":65,"x_max":365,"o":"m 65 417 q 254 1014 65 771 l 365 1014 q 188 418 188 725 q 365 -179 188 106 l 254 -179 q 118 79 169 -75 q 65 417 65 233 z "},")":{"ha":394,"x_min":29,"x_max":329,"o":"m 29 -179 q 207 417 207 110 q 29 1014 207 729 l 140 1014 q 329 418 329 775 q 140 -179 329 64 l 29 -179 z "},"*":{"ha":546,"x_min":58,"x_max":488,"o":"m 193 578 l 132 614 l 214 747 l 58 746 l 58 817 l 214 815 l 132 949 l 193 985 l 274 846 l 351 985 l 414 949 l 332 815 l 488 817 l 488 746 l 332 747 l 414 614 l 351 578 l 274 717 l 193 578 z "},"+":{"ha":758,"x_min":49,"x_max":707,"o":"m 326 754 l 428 754 l 428 465 l 707 465 l 707 367 l 428 367 l 428 75 l 326 75 l 326 367 l 49 367 l 49 465 l 326 465 l 326 754 z "},",":{"ha":340,"x_min":92,"x_max":250,"o":"m 92 161 l 250 161 l 250 -15 q 93 -228 250 -204 l 93 -150 q 165 -21 165 -128 l 165 0 l 92 0 l 92 161 z "},"-":{"ha":538,"x_min":89,"x_max":450,"o":"m 89 322 l 89 424 l 450 424 l 450 322 l 89 322 z "},".":{"ha":336,"x_min":89,"x_max":247,"o":"m 89 0 l 89 161 l 247 161 l 247 0 l 89 0 z "},"/":{"ha":574,"x_min":40,"x_max":533,"o":"m 40 0 l 425 972 l 533 972 l 149 0 l 40 0 z "},":":{"ha":336,"x_min":89,"x_max":247,"o":"m 89 161 l 247 161 l 247 0 l 89 0 l 89 161 m 247 449 l 89 449 l 89 610 l 247 610 l 247 449 z "},";":{"ha":336,"x_min":89,"x_max":247,"o":"m 247 161 l 247 -15 q 90 -228 247 -204 l 90 -150 q 163 -21 163 -128 l 163 0 l 89 0 l 89 161 l 247 161 m 247 610 l 247 449 l 89 449 l 89 610 l 247 610 z "},"<":{"ha":750,"x_min":47,"x_max":665,"o":"m 665 732 l 665 613 l 179 417 l 293 369 l 665 221 l 665 101 l 47 361 l 47 471 l 665 732 z "},"=":{"ha":847,"x_min":93,"x_max":751,"o":"m 751 238 l 93 238 l 93 336 l 751 336 l 751 238 m 93 593 l 751 593 l 751 494 l 93 494 l 93 593 z "},">":{"ha":750,"x_min":83,"x_max":703,"o":"m 83 613 l 83 732 l 703 471 l 703 361 l 83 101 l 83 221 l 571 417 l 83 613 z "},"?":{"ha":708,"x_min":44,"x_max":663,"o":"m 44 675 q 135 910 44 822 q 365 994 221 994 q 578 922 493 994 q 663 750 663 850 q 514 493 663 614 l 476 463 q 394 261 394 396 l 274 261 q 301 422 274 356 q 410 551 328 485 l 444 581 q 536 742 536 653 q 490 851 536 810 q 365 894 443 894 q 221 835 272 894 q 168 675 168 775 l 44 675 m 264 151 l 407 151 l 407 0 l 264 0 l 264 151 z "},"@":{"ha":1056,"x_min":65,"x_max":1013,"o":"m 65 351 q 314 803 65 663 q 563 865 428 865 q 954 650 831 865 q 1013 417 1013 547 q 950 183 1013 272 q 786 93 888 93 q 661 172 692 93 q 503 93 608 93 q 357 156 415 93 q 297 322 297 219 q 369 529 297 447 q 538 611 439 611 q 671 546 631 611 l 676 596 l 771 596 l 736 247 q 793 175 736 175 q 882 246 846 175 q 918 417 918 318 q 819 676 918 578 q 563 776 721 776 q 217 576 326 776 q 163 350 163 478 q 351 -12 163 93 q 558 -64 440 -64 q 818 17 696 -64 l 865 -50 q 558 -153 733 -153 q 131 83 263 -153 q 65 351 65 199 m 425 217 q 514 175 458 175 q 619 232 579 175 q 658 383 658 288 q 625 489 658 449 q 540 529 592 529 q 438 468 482 529 q 394 322 394 407 q 425 217 394 256 z "},"A":{"ha":946,"x_min":7,"x_max":939,"o":"m 549 972 l 939 0 l 799 0 l 688 289 l 251 289 l 140 0 l 7 0 l 396 972 l 549 972 m 469 857 l 292 394 l 647 394 l 469 857 z "},"B":{"ha":907,"x_min":125,"x_max":836,"o":"m 504 972 q 729 911 647 972 q 813 728 813 846 q 767 594 813 653 q 650 514 722 538 q 836 274 836 453 q 735 63 836 122 q 468 0 632 0 l 125 0 l 125 972 l 504 972 m 489 107 q 707 281 707 107 q 483 456 707 456 l 251 456 l 251 107 l 489 107 m 486 563 q 683 718 683 563 q 496 867 683 867 l 251 867 l 251 563 l 486 563 z "},"C":{"ha":1003,"x_min":67,"x_max":950,"o":"m 294 932 q 535 994 400 994 q 821 899 706 994 q 949 658 933 804 l 810 658 q 529 888 768 888 q 290 781 381 888 q 200 492 200 671 q 292 196 200 308 q 529 85 383 85 q 722 147 644 85 q 818 314 797 207 l 950 314 q 818 69 931 158 q 532 -21 703 -21 q 196 117 322 -21 q 67 492 67 256 q 294 932 67 799 z "},"D":{"ha":1008,"x_min":125,"x_max":939,"o":"m 417 972 q 801 856 664 972 q 939 488 939 736 q 813 131 939 261 q 447 0 686 0 l 125 0 l 125 972 l 417 972 m 432 107 q 807 488 807 107 q 426 867 807 867 l 251 867 l 251 107 l 432 107 z "},"E":{"ha":846,"x_min":125,"x_max":774,"o":"m 757 972 l 757 867 l 251 867 l 251 549 l 735 549 l 735 442 l 251 442 l 251 107 l 774 107 l 774 0 l 125 0 l 125 972 l 757 972 z "},"F":{"ha":808,"x_min":125,"x_max":758,"o":"m 758 972 l 758 867 l 251 867 l 251 554 l 735 554 l 735 449 l 251 449 l 251 0 l 125 0 l 125 972 l 758 972 z "},"G":{"ha":1024,"x_min":65,"x_max":939,"o":"m 65 481 q 301 935 65 806 q 538 994 407 994 q 808 910 699 994 q 935 690 918 825 l 800 690 q 713 833 785 778 q 538 888 639 888 q 294 782 386 888 q 199 481 199 671 q 358 136 199 242 q 531 85 431 85 q 746 161 669 85 q 824 383 824 242 l 824 401 l 518 401 l 518 508 l 939 508 l 939 0 l 835 0 l 835 135 q 711 24 797 68 q 526 -21 626 -21 q 122 225 240 -21 q 65 481 65 343 z "},"H":{"ha":1021,"x_min":125,"x_max":894,"o":"m 251 564 l 768 564 l 768 972 l 894 972 l 894 0 l 768 0 l 768 457 l 251 457 l 251 0 l 125 0 l 125 972 l 251 972 l 251 564 z "},"I":{"ha":378,"x_min":125,"x_max":251,"o":"m 251 972 l 251 0 l 125 0 l 125 972 l 251 972 z "},"J":{"ha":767,"x_min":28,"x_max":651,"o":"m 157 300 q 338 85 161 85 q 524 300 524 85 l 524 972 l 651 972 l 651 293 q 565 64 651 150 q 333 -21 481 -21 q 108 67 189 -21 q 28 300 29 151 l 157 300 z "},"K":{"ha":864,"x_min":125,"x_max":888,"o":"m 250 972 l 250 546 l 665 972 l 822 972 l 392 531 l 888 0 l 717 0 l 306 443 l 250 386 l 250 0 l 125 0 l 125 972 l 250 972 z "},"L":{"ha":772,"x_min":125,"x_max":758,"o":"m 125 0 l 125 972 l 251 972 l 251 107 l 758 107 l 758 0 l 125 0 z "},"M":{"ha":1304,"x_min":125,"x_max":1179,"o":"m 322 972 l 656 126 l 985 972 l 1179 972 l 1179 0 l 1054 0 l 1054 851 l 724 0 l 582 0 l 250 850 l 250 0 l 125 0 l 125 972 l 322 972 z "},"N":{"ha":1061,"x_min":125,"x_max":936,"o":"m 315 972 l 808 143 l 808 972 l 936 972 l 936 0 l 760 0 l 251 850 l 251 0 l 125 0 l 125 972 l 315 972 z "},"O":{"ha":1053,"x_min":65,"x_max":988,"o":"m 292 931 q 526 994 393 994 q 928 751 803 994 q 988 486 988 638 q 763 43 988 179 q 526 -21 657 -21 q 126 221 253 -21 q 65 486 65 336 q 292 931 65 796 m 289 193 q 526 85 378 85 q 764 193 674 85 q 854 486 854 304 q 764 779 854 668 q 526 888 674 888 q 290 779 379 888 q 199 486 199 668 q 289 193 199 304 z "},"P":{"ha":875,"x_min":125,"x_max":838,"o":"m 125 972 l 504 972 q 743 908 650 972 q 838 696 838 843 q 746 485 838 547 q 504 421 653 421 l 251 421 l 251 0 l 125 0 l 125 972 m 251 526 l 503 526 q 708 696 708 526 q 503 867 708 867 l 251 867 l 251 526 z "},"Q":{"ha":1056,"x_min":65,"x_max":988,"o":"m 65 486 q 292 931 65 796 q 526 994 393 994 q 928 751 803 994 q 988 486 988 638 q 843 106 988 246 l 946 0 l 865 -75 l 756 39 q 526 -21 654 -21 q 126 221 249 -21 q 65 486 65 336 m 199 486 q 289 193 199 304 q 526 85 378 85 q 676 121 611 85 l 546 256 l 625 331 l 763 189 q 854 486 854 297 q 764 779 854 668 q 526 888 674 888 q 240 700 325 888 q 199 486 199 608 z "},"R":{"ha":924,"x_min":125,"x_max":842,"o":"m 538 972 q 761 906 679 972 q 842 717 842 838 q 789 567 842 632 q 663 481 736 504 q 778 410 733 468 q 821 258 821 350 l 821 0 l 694 0 l 694 224 q 649 382 694 338 q 490 425 601 425 l 251 425 l 251 0 l 125 0 l 125 972 l 538 972 m 507 532 q 713 701 713 532 q 507 867 713 867 l 251 867 l 251 532 l 507 532 z "},"S":{"ha":885,"x_min":53,"x_max":828,"o":"m 182 313 q 260 146 189 207 q 447 85 332 85 q 629 133 564 85 q 694 261 694 182 q 501 422 694 379 l 357 456 q 86 724 86 518 q 188 918 86 842 q 442 994 289 994 q 697 915 599 994 q 803 700 794 835 l 674 700 q 603 838 667 785 q 439 888 540 888 q 282 844 342 888 q 219 735 219 800 q 389 575 219 615 l 561 536 q 828 269 828 474 q 725 64 828 146 q 446 -21 618 -21 q 163 69 269 -21 q 53 313 56 158 l 182 313 z "},"T":{"ha":824,"x_min":13,"x_max":810,"o":"m 810 867 l 475 867 l 475 0 l 349 0 l 349 867 l 13 867 l 13 972 l 810 972 l 810 867 z "},"U":{"ha":963,"x_min":115,"x_max":847,"o":"m 242 972 l 242 396 q 481 85 242 85 q 721 396 721 85 l 721 972 l 847 972 l 847 379 q 751 79 847 181 q 481 -21 657 -21 q 211 79 304 -21 q 115 379 115 181 l 115 972 l 242 972 z "},"V":{"ha":910,"x_min":11,"x_max":901,"o":"m 458 136 l 767 972 l 901 972 l 525 0 l 379 0 l 11 972 l 150 972 l 458 136 z "},"W":{"ha":1338,"x_min":21,"x_max":1317,"o":"m 151 972 l 371 153 l 382 193 l 403 265 l 593 972 l 751 972 l 939 265 q 953 215 946 243 q 969 151 961 186 l 1193 972 l 1317 972 l 1053 0 l 899 0 l 671 857 l 638 728 l 440 0 l 285 0 l 21 972 l 151 972 z "},"X":{"ha":851,"x_min":6,"x_max":849,"o":"m 35 972 l 183 972 l 428 593 l 674 972 l 818 972 l 501 507 l 849 0 l 697 0 l 422 419 l 150 0 l 6 0 l 349 507 l 35 972 z "},"Y":{"ha":821,"x_min":11,"x_max":810,"o":"m 153 972 l 382 575 q 405 534 399 546 q 408 528 411 522 q 438 576 419 546 q 479 646 456 606 l 672 972 l 810 972 l 472 419 l 472 0 l 346 0 l 346 419 l 11 972 l 153 972 z "},"Z":{"ha":824,"x_min":47,"x_max":781,"o":"m 621 867 l 71 867 l 71 972 l 764 972 l 764 858 l 186 107 l 781 107 l 781 0 l 47 0 l 47 118 l 621 867 z "},"[":{"ha":410,"x_min":118,"x_max":351,"o":"m 118 1015 l 351 1015 l 351 922 l 231 922 l 231 -86 l 351 -86 l 351 -179 l 118 -179 l 118 1015 z "},"\\":{"ha":576,"x_min":40,"x_max":536,"o":"m 426 0 l 40 972 l 150 972 l 536 0 l 426 0 z "},"]":{"ha":385,"x_min":33,"x_max":267,"o":"m 33 -86 l 154 -86 l 154 922 l 33 922 l 33 1015 l 267 1015 l 267 -179 l 33 -179 l 33 -86 z "},"^":{"ha":661,"x_min":53,"x_max":608,"o":"m 276 972 l 385 972 l 608 475 l 483 475 l 329 846 l 175 475 l 53 475 l 276 972 z "},"_":{"ha":792,"x_min":75,"x_max":717,"o":"m 75 -151 l 75 -50 l 717 -50 l 717 -151 l 75 -151 z "},"`":{"ha":379,"x_min":58,"x_max":306,"o":"m 206 788 l 58 967 l 208 967 l 306 788 l 206 788 z "},"a":{"ha":707,"x_min":63,"x_max":613,"o":"m 63 183 q 285 392 63 354 l 428 414 q 496 481 496 424 q 458 567 496 535 q 361 597 422 597 q 203 460 208 597 l 83 460 q 158 622 88 557 q 351 692 235 692 q 544 624 476 692 q 613 439 613 557 l 613 0 l 499 0 l 499 90 q 293 -21 446 -21 q 129 35 193 -21 q 63 183 63 90 m 221 103 q 310 72 256 72 q 443 122 390 72 q 496 253 496 172 l 496 351 q 422 322 485 335 l 325 304 q 186 183 186 278 q 221 103 186 133 z "},"b":{"ha":810,"x_min":103,"x_max":751,"o":"m 222 972 l 222 579 q 443 692 301 692 q 669 590 585 692 q 751 335 751 492 q 667 79 751 176 q 440 -21 581 -21 q 222 93 294 -21 l 222 0 l 103 0 l 103 972 l 222 972 m 274 146 q 421 72 331 72 q 571 146 514 72 q 626 335 626 218 q 571 525 626 453 q 421 597 515 597 q 272 528 329 597 q 215 336 215 454 q 274 146 215 218 z "},"c":{"ha":743,"x_min":60,"x_max":693,"o":"m 60 336 q 157 592 60 493 q 397 692 253 692 q 599 625 517 692 q 689 444 679 556 l 565 444 q 511 554 557 515 q 394 597 467 597 q 242 522 301 597 q 183 336 183 449 q 242 144 183 217 q 397 72 300 72 q 575 225 556 72 l 693 225 q 606 46 682 110 q 392 -21 524 -21 q 104 140 190 -21 q 60 336 60 222 z "},"d":{"ha":808,"x_min":60,"x_max":706,"o":"m 60 335 q 144 590 60 492 q 371 692 232 692 q 586 579 521 692 l 586 972 l 706 972 l 706 0 l 586 0 l 586 93 q 368 -21 522 -21 q 100 143 183 -21 q 60 335 60 228 m 183 335 q 240 144 183 218 q 389 72 296 72 q 538 144 479 72 q 594 336 594 218 q 538 526 594 453 q 389 597 481 597 q 240 525 296 597 q 183 335 183 451 z "},"e":{"ha":750,"x_min":61,"x_max":689,"o":"m 217 646 q 379 692 289 692 q 608 596 526 692 q 689 336 689 503 l 689 313 l 181 313 q 240 138 182 204 q 388 72 299 72 q 564 207 543 72 l 682 207 q 596 44 671 108 q 386 -21 518 -21 q 149 72 233 -21 q 61 338 61 165 q 217 646 61 549 m 561 397 q 514 543 561 492 q 379 597 465 597 q 244 540 297 597 q 185 397 192 483 l 561 397 z "},"f":{"ha":436,"x_min":26,"x_max":413,"o":"m 153 669 l 153 793 q 208 942 153 888 q 344 994 265 994 q 413 982 385 994 l 413 881 l 369 885 q 272 785 272 885 l 272 669 l 411 669 l 411 571 l 272 571 l 272 0 l 153 0 l 153 571 l 26 571 l 26 669 l 153 669 z "},"g":{"ha":807,"x_min":61,"x_max":704,"o":"m 61 347 q 150 596 61 499 q 369 692 238 692 q 585 579 511 692 l 585 669 l 704 669 l 704 33 q 382 -315 704 -315 q 171 -247 247 -315 q 90 -64 90 -179 l 208 -64 q 256 -179 208 -136 q 383 -222 303 -222 q 585 -8 585 -222 l 585 118 q 365 7 528 7 q 99 168 176 7 q 61 347 61 244 m 242 168 q 389 100 297 100 q 536 168 481 100 q 593 347 593 238 q 535 526 593 457 q 389 597 478 597 q 242 528 299 597 q 185 347 185 458 q 242 168 185 236 z "},"h":{"ha":769,"x_min":103,"x_max":675,"o":"m 222 579 q 428 692 286 692 q 610 621 544 692 q 675 422 675 549 l 675 0 l 556 0 l 556 407 q 404 597 556 597 q 272 542 319 597 q 222 403 222 485 l 222 0 l 103 0 l 103 972 l 222 972 l 222 579 z "},"i":{"ha":324,"x_min":93,"x_max":231,"o":"m 93 939 l 231 939 l 231 796 l 93 796 l 93 939 m 222 669 l 222 0 l 103 0 l 103 669 l 222 669 z "},"j":{"ha":335,"x_min":-21,"x_max":240,"o":"m -21 -201 q 14 -207 -8 -207 q 113 -93 113 -207 l 113 669 l 232 669 l 232 -129 q 188 -260 232 -203 q 46 -315 144 -315 q -21 -308 14 -315 l -21 -201 m 103 939 l 240 939 l 240 796 l 103 796 l 103 939 z "},"k":{"ha":681,"x_min":103,"x_max":692,"o":"m 222 972 l 222 385 q 275 438 247 413 l 503 669 l 653 669 l 361 385 l 692 0 l 529 0 l 279 304 l 222 249 l 222 0 l 103 0 l 103 972 l 222 972 z "},"l":{"ha":324,"x_min":103,"x_max":222,"o":"m 222 972 l 222 0 l 103 0 l 103 972 l 222 972 z "},"m":{"ha":1167,"x_min":103,"x_max":1072,"o":"m 222 579 q 418 692 293 692 q 619 560 561 692 q 838 692 697 692 q 1007 624 947 692 q 1072 424 1072 551 l 1072 0 l 953 0 l 953 400 q 813 597 953 597 q 692 540 736 597 q 647 399 647 479 l 647 0 l 528 0 l 528 396 q 390 597 528 597 q 268 539 314 597 q 222 393 222 478 l 222 0 l 103 0 l 103 669 l 222 669 l 222 579 z "},"n":{"ha":769,"x_min":103,"x_max":675,"o":"m 222 579 q 428 692 290 692 q 610 621 544 692 q 675 422 675 549 l 675 0 l 556 0 l 556 407 q 408 597 556 597 q 274 542 324 597 q 222 403 222 486 l 222 0 l 103 0 l 103 669 l 222 669 l 222 579 z "},"o":{"ha":778,"x_min":60,"x_max":718,"o":"m 151 592 q 389 692 244 692 q 676 521 586 692 q 718 336 718 439 q 625 78 718 176 q 389 -21 531 -21 q 151 78 243 -21 q 60 336 60 178 q 151 592 60 493 m 239 144 q 389 72 294 72 q 539 144 483 72 q 594 336 594 214 q 539 526 594 454 q 389 597 482 597 q 240 526 296 597 q 183 336 183 453 q 239 144 183 214 z "},"p":{"ha":810,"x_min":103,"x_max":751,"o":"m 222 669 l 222 578 q 443 692 294 692 q 669 592 583 692 q 751 336 751 493 q 665 79 751 178 q 440 -21 579 -21 q 222 93 293 -21 l 222 -293 l 103 -293 l 103 669 l 222 669 m 274 146 q 422 72 331 72 q 571 146 514 72 q 626 336 626 218 q 571 525 626 453 q 422 597 515 597 q 274 526 329 597 q 215 336 215 453 q 274 146 215 218 z "},"q":{"ha":810,"x_min":60,"x_max":708,"o":"m 144 590 q 372 692 232 692 q 594 579 525 692 l 594 669 l 708 669 l 708 -293 l 589 -293 l 589 93 q 372 -21 525 -21 q 146 72 229 -21 q 60 335 60 169 q 144 590 60 492 m 183 335 q 240 144 183 218 q 388 72 296 72 q 538 144 479 72 q 594 335 594 218 q 539 526 594 454 q 390 597 482 597 q 240 525 296 597 q 183 335 183 451 z "},"r":{"ha":482,"x_min":103,"x_max":463,"o":"m 222 669 l 222 558 q 432 692 281 692 q 463 690 458 692 l 463 572 q 441 574 450 574 q 425 575 432 575 q 222 354 222 575 l 222 0 l 103 0 l 103 669 l 222 669 z "},"s":{"ha":671,"x_min":50,"x_max":611,"o":"m 167 221 q 339 72 174 72 q 451 103 408 72 q 493 182 493 132 q 376 285 493 261 l 275 304 q 71 494 71 342 q 144 636 71 579 q 331 692 217 692 q 597 476 582 692 l 479 476 q 322 597 464 597 q 226 571 261 597 q 190 501 190 543 q 304 407 190 429 l 408 388 q 611 194 611 350 q 538 42 611 103 q 338 -21 460 -21 q 129 46 206 -21 q 50 221 51 110 l 167 221 z "},"t":{"ha":458,"x_min":25,"x_max":418,"o":"m 150 890 l 269 890 l 269 669 l 408 669 l 408 571 l 269 571 l 269 203 q 368 100 269 100 q 418 104 389 100 l 418 1 q 340 -7 381 -7 q 150 190 150 -7 l 150 571 l 25 571 l 25 669 l 150 669 l 150 890 z "},"u":{"ha":758,"x_min":94,"x_max":656,"o":"m 214 268 q 367 72 214 72 q 538 300 538 72 l 538 669 l 656 669 l 656 0 l 539 0 l 539 93 q 336 -21 488 -21 q 94 243 94 -21 l 94 669 l 214 669 l 214 268 z "},"v":{"ha":678,"x_min":19,"x_max":657,"o":"m 150 669 l 343 119 l 532 669 l 657 669 l 403 0 l 276 0 l 19 669 l 150 669 z "},"w":{"ha":1088,"x_min":19,"x_max":1067,"o":"m 149 669 l 294 174 q 308 128 308 132 l 324 174 l 471 669 l 619 669 l 788 133 l 801 176 l 946 669 l 1067 669 l 851 0 l 713 0 l 544 554 l 375 0 l 238 0 l 19 669 l 149 669 z "},"x":{"ha":681,"x_min":19,"x_max":661,"o":"m 33 669 l 179 669 l 346 425 l 513 669 l 651 669 l 408 343 l 661 0 l 517 0 l 375 207 q 338 261 358 233 l 158 0 l 19 0 l 271 343 l 33 669 z "},"y":{"ha":668,"x_min":19,"x_max":651,"o":"m 350 160 l 526 669 l 651 669 l 292 -293 l 165 -293 l 288 24 l 19 669 l 151 669 l 350 160 z "},"z":{"ha":640,"x_min":50,"x_max":592,"o":"m 422 539 l 451 576 l 64 576 l 64 669 l 582 669 l 582 571 l 179 93 l 592 93 l 592 0 l 50 0 l 50 99 l 422 539 z "},"{":{"ha":450,"x_min":22,"x_max":408,"o":"m 22 472 q 161 600 161 472 l 161 779 q 382 1014 161 1014 l 408 1014 l 408 921 l 388 921 q 278 786 278 921 l 278 574 q 146 418 278 443 q 279 263 279 393 l 279 49 q 388 -86 279 -86 l 408 -86 l 408 -179 l 382 -179 q 163 56 163 -179 l 163 236 q 22 364 163 364 l 22 472 z "},"|":{"ha":349,"x_min":118,"x_max":231,"o":"m 118 -179 l 118 1014 l 231 1014 l 231 -179 l 118 -179 z "},"}":{"ha":450,"x_min":40,"x_max":426,"o":"m 67 1014 q 288 779 288 1014 l 288 599 q 426 471 288 471 l 426 363 q 289 235 289 363 l 289 56 q 67 -179 289 -179 l 40 -179 l 40 -86 l 63 -86 q 172 49 172 -86 l 172 261 q 304 417 172 393 q 171 572 171 442 l 171 786 q 63 921 171 921 l 40 921 l 40 1014 l 67 1014 z "},"~":{"ha":832,"x_min":97,"x_max":738,"o":"m 97 331 q 156 457 101 414 q 278 500 207 500 q 431 461 326 500 q 549 429 514 429 q 635 499 619 429 l 738 499 q 681 375 735 421 q 553 331 629 331 q 394 368 503 331 q 281 397 313 397 q 201 331 211 397 l 97 331 z "}," ":{"ha":329,"x_min":0,"x_max":0,"o":""},"¡":{"ha":328,"x_min":92,"x_max":235,"o":"m 235 669 l 235 518 l 92 518 l 92 669 l 235 669 m 192 408 l 229 7 l 229 -303 l 96 -303 l 96 7 l 135 408 l 192 408 z "},"¢":{"ha":846,"x_min":46,"x_max":797,"o":"m 46 492 q 143 781 46 663 q 386 914 236 894 l 386 1053 l 488 1053 l 488 917 q 706 826 624 904 q 797 625 788 749 l 671 625 q 619 753 669 699 q 488 815 569 804 l 488 160 q 617 224 568 175 q 672 349 665 275 l 794 349 q 700 153 782 235 q 488 60 617 74 l 488 -79 l 386 -79 l 386 60 q 136 192 225 75 q 46 492 46 307 m 229 267 q 386 160 286 179 l 386 814 q 231 710 289 796 q 172 489 172 622 q 229 267 172 356 z "},"£":{"ha":904,"x_min":53,"x_max":838,"o":"m 207 508 l 207 683 q 294 911 207 825 q 521 994 379 994 q 746 914 665 994 q 832 699 828 832 l 708 699 q 658 838 707 785 q 518 889 607 889 q 332 672 332 889 l 332 508 l 669 508 l 669 408 l 332 408 l 332 107 l 838 107 l 838 0 l 72 0 l 72 107 l 207 107 l 207 408 l 53 408 l 53 508 l 207 508 z "},"¤":{"ha":914,"x_min":74,"x_max":840,"o":"m 185 269 q 121 494 121 363 q 185 719 121 626 l 74 831 l 144 906 l 256 794 q 457 858 340 858 q 658 794 574 858 l 769 906 l 840 831 l 731 721 q 794 494 794 628 q 729 269 794 364 l 840 158 l 769 85 l 658 196 q 457 132 574 132 q 256 196 344 132 l 144 85 l 74 158 l 185 269 m 300 296 q 457 229 358 229 q 615 296 554 229 q 676 494 676 368 q 614 694 676 625 q 457 761 549 761 q 301 694 364 761 q 238 494 238 626 q 300 296 238 367 z "},"¥":{"ha":864,"x_min":47,"x_max":817,"o":"m 428 526 q 499 647 474 601 l 681 972 l 817 972 l 546 517 l 767 517 l 767 422 l 490 422 l 490 308 l 767 308 l 767 215 l 490 215 l 490 0 l 368 0 l 368 215 l 96 215 l 96 308 l 368 308 l 368 422 l 96 422 l 96 517 l 313 517 l 47 972 l 186 972 l 428 526 z "},"¦":{"ha":349,"x_min":118,"x_max":231,"o":"m 118 1014 l 231 1014 l 231 549 l 118 549 l 118 1014 m 231 -179 l 118 -179 l 118 286 l 231 286 l 231 -179 z "},"§":{"ha":750,"x_min":64,"x_max":694,"o":"m 225 610 q 101 794 101 689 q 175 939 101 882 q 369 994 247 994 q 560 938 488 994 q 639 779 631 881 l 513 779 q 363 894 500 894 q 228 804 228 894 q 342 682 228 742 l 528 589 q 694 388 694 503 q 528 190 694 261 q 651 17 651 111 q 572 -137 651 -82 q 368 -193 496 -193 q 79 31 113 -193 l 207 31 q 368 -93 218 -93 q 525 -3 525 -93 q 411 119 525 60 l 232 213 q 64 414 64 301 q 225 610 64 539 m 192 435 q 292 315 192 367 l 451 233 q 568 367 568 281 q 468 486 568 438 l 304 567 q 222 511 253 544 q 192 435 192 476 z "},"¨":{"ha":550,"x_min":65,"x_max":483,"o":"m 204 939 l 204 796 l 65 796 l 65 939 l 204 939 m 483 939 l 483 796 l 346 796 l 346 939 l 483 939 z "},"©":{"ha":1142,"x_min":64,"x_max":1078,"o":"m 133 743 q 318 926 201 857 q 571 994 432 994 q 825 926 711 994 q 1010 743 942 857 q 1078 488 1078 629 q 1010 231 1078 344 q 825 47 942 115 q 571 -21 711 -21 q 318 47 433 -21 q 133 232 201 115 q 64 488 64 347 q 133 743 64 624 m 363 122 q 571 67 456 67 q 931 275 811 67 q 985 488 985 371 q 781 851 985 732 q 571 907 688 907 q 213 700 329 907 q 157 488 157 607 q 363 122 157 240 m 394 688 q 581 765 469 765 q 739 713 675 765 q 810 571 803 660 l 719 571 q 581 690 700 690 q 461 632 507 690 q 415 488 415 574 q 460 340 415 396 q 578 285 503 285 q 676 317 636 285 q 724 404 718 351 l 814 404 q 744 263 810 317 q 575 208 679 208 q 390 282 461 208 q 318 488 318 354 q 394 688 318 607 z "},"ª":{"ha":554,"x_min":67,"x_max":465,"o":"m 308 794 q 361 839 361 801 q 279 907 361 907 q 183 822 189 907 l 79 822 q 135 940 85 897 q 272 985 188 985 q 465 781 465 985 l 465 513 l 365 513 l 365 574 q 225 496 328 496 q 114 536 163 496 q 67 639 67 575 q 242 786 67 765 l 308 794 m 250 718 q 168 644 168 703 q 250 575 168 575 q 332 606 300 575 q 364 683 364 638 l 364 746 q 315 728 346 732 l 250 718 z "},"«":{"ha":638,"x_min":65,"x_max":594,"o":"m 325 653 l 325 506 l 164 354 l 325 201 l 325 54 l 65 308 l 65 400 l 325 653 m 594 653 l 594 506 l 433 354 l 594 201 l 594 54 l 336 308 l 336 400 l 594 653 z "},"¬":{"ha":851,"x_min":93,"x_max":751,"o":"m 651 140 l 651 367 l 93 367 l 93 465 l 751 465 l 751 140 l 651 140 z "},"­":{"ha":538,"x_min":89,"x_max":450,"o":"m 89 322 l 89 424 l 450 424 l 450 322 l 89 322 z "},"®":{"ha":899,"x_min":69,"x_max":829,"o":"m 260 943 q 450 994 344 994 q 778 804 667 994 q 829 613 829 719 q 640 283 829 393 q 450 232 556 232 q 121 422 232 232 q 69 613 69 507 q 260 943 69 832 m 294 344 q 450 303 365 303 q 668 393 578 303 q 757 613 757 482 q 668 832 757 743 q 450 922 578 922 q 183 769 271 922 q 142 613 142 699 q 294 344 142 432 m 308 818 l 482 818 q 578 786 542 818 q 614 704 614 754 q 553 606 614 633 q 606 517 606 582 l 606 410 l 536 410 l 536 503 q 464 574 536 574 l 376 574 l 376 410 l 308 410 l 308 818 m 474 636 q 546 696 546 636 q 474 753 546 753 l 376 753 l 376 636 l 474 636 z "},"¯":{"ha":478,"x_min":65,"x_max":450,"o":"m 65 814 l 65 917 l 450 917 l 450 814 l 65 814 z "},"°":{"ha":496,"x_min":47,"x_max":450,"o":"m 106 922 q 247 981 164 981 q 390 922 332 981 q 450 783 450 867 q 390 644 450 700 q 247 586 332 586 q 106 644 164 586 q 47 783 47 700 q 106 922 47 865 m 174 707 q 247 676 203 676 q 322 707 293 676 q 351 783 351 738 q 322 860 351 831 q 247 890 293 890 q 174 860 203 890 q 144 783 144 831 q 174 707 144 738 z "},"±":{"ha":851,"x_min":94,"x_max":754,"o":"m 378 558 l 378 754 l 478 754 l 478 558 l 754 558 l 754 460 l 478 460 l 478 265 l 378 265 l 378 460 l 96 460 l 96 558 l 378 558 m 753 75 l 94 75 l 94 174 l 753 174 l 753 75 z "},"²":{"ha":571,"x_min":54,"x_max":514,"o":"m 54 474 q 208 726 56 619 l 276 774 q 396 931 396 853 q 367 1011 396 979 q 288 1042 338 1042 q 168 913 169 1042 l 56 913 q 119 1068 56 1010 q 290 1128 183 1128 q 447 1074 385 1128 q 508 933 508 1017 q 339 697 508 806 l 264 646 q 196 569 197 603 l 514 569 l 514 474 l 54 474 z "},"³":{"ha":586,"x_min":54,"x_max":528,"o":"m 165 672 q 292 546 167 546 q 382 575 349 546 q 415 654 415 606 q 381 733 415 703 q 292 764 349 764 l 244 764 l 244 850 l 292 850 q 401 950 401 850 q 294 1043 401 1043 q 176 929 182 1043 l 61 929 q 129 1075 65 1021 q 296 1128 193 1128 q 453 1079 392 1128 q 514 953 514 1029 q 399 810 514 851 q 528 646 528 765 q 463 513 528 565 q 292 460 393 460 q 119 518 183 460 q 54 672 56 575 l 165 672 z "},"´":{"ha":379,"x_min":58,"x_max":306,"o":"m 58 788 l 157 967 l 306 967 l 158 788 l 58 788 z "},"µ":{"ha":792,"x_min":115,"x_max":676,"o":"m 235 671 l 235 268 q 388 72 235 72 q 513 132 469 72 q 557 300 557 193 l 557 669 l 676 669 l 676 0 l 560 0 l 560 93 q 357 -21 506 -21 q 235 13 281 -21 l 235 -293 l 115 -293 l 115 671 l 235 671 z "},"¶":{"ha":783,"x_min":42,"x_max":649,"o":"m 42 719 q 119 903 42 833 q 328 972 197 972 l 649 972 l 649 -179 l 546 -179 l 546 881 l 418 881 l 418 -179 l 315 -179 l 315 471 q 117 539 189 471 q 42 719 42 606 z "},"·":{"ha":336,"x_min":89,"x_max":247,"o":"m 89 357 l 89 518 l 247 518 l 247 357 l 89 357 z "},"¸":{"ha":419,"x_min":65,"x_max":353,"o":"m 113 -179 q 204 -222 156 -222 q 264 -179 264 -222 q 207 -139 264 -139 q 171 -146 192 -139 l 129 -96 l 211 32 l 285 6 l 231 -76 q 319 -104 283 -76 q 353 -179 353 -133 q 315 -262 353 -232 q 207 -296 275 -296 q 65 -236 117 -296 l 113 -179 z "},"¹":{"ha":406,"x_min":36,"x_max":317,"o":"m 36 972 q 153 1017 104 979 q 219 1114 204 1056 l 317 1114 l 317 474 l 204 474 l 204 956 q 36 879 146 881 l 36 972 z "},"º":{"ha":575,"x_min":60,"x_max":515,"o":"m 60 740 q 121 915 60 846 q 288 985 182 985 q 454 915 393 985 q 515 740 515 846 q 456 568 515 636 q 288 496 392 496 q 88 618 143 496 q 60 740 60 678 m 288 575 q 410 740 410 575 q 288 907 410 907 q 165 740 165 907 q 288 575 165 575 z "},"»":{"ha":638,"x_min":83,"x_max":613,"o":"m 613 400 l 613 308 l 353 56 l 353 203 l 514 354 l 353 507 l 353 654 l 613 400 m 342 308 l 83 56 l 83 203 l 244 354 l 83 507 l 83 654 l 342 400 l 342 308 z "},"¼":{"ha":1174,"x_min":40,"x_max":1132,"o":"m 656 226 l 900 582 l 1026 582 l 1026 225 l 1132 225 l 1132 144 l 1026 144 l 1026 0 l 925 0 l 925 144 l 656 144 l 656 226 m 863 972 l 981 972 l 274 0 l 154 0 l 863 972 m 40 843 q 207 972 175 853 l 294 972 l 294 390 l 193 390 l 193 828 q 40 758 138 760 l 40 843 m 925 225 l 925 476 l 753 225 l 925 225 z "},"½":{"ha":1236,"x_min":40,"x_max":1181,"o":"m 193 828 q 40 758 142 764 l 40 843 q 207 972 175 857 l 294 972 l 294 390 l 193 390 l 193 828 m 274 0 l 154 0 l 863 972 l 981 972 l 274 0 m 763 0 q 903 229 767 135 l 965 272 q 1074 415 1074 347 q 975 517 1074 517 q 867 399 871 517 l 764 399 q 825 544 764 492 q 978 594 883 594 q 1117 549 1060 594 q 1176 418 1176 499 q 1022 203 1176 300 l 954 157 q 892 88 896 118 l 1181 88 l 1181 0 l 763 0 z "},"¾":{"ha":1290,"x_min":51,"x_max":1249,"o":"m 1143 582 l 1143 225 l 1249 225 l 1249 144 l 1143 144 l 1143 0 l 1042 0 l 1042 144 l 772 144 l 772 226 l 1017 582 l 1143 582 m 153 571 q 268 456 156 456 q 350 482 319 456 q 381 554 381 508 q 350 626 381 600 q 268 654 318 654 l 225 654 l 225 732 l 268 732 q 368 824 368 732 q 271 908 368 908 q 163 804 168 908 l 58 804 q 119 936 63 888 q 272 985 176 985 q 414 940 357 985 q 469 826 469 897 q 365 696 469 731 q 482 547 482 658 q 422 426 482 474 q 268 378 361 378 q 111 431 172 378 q 51 571 53 482 l 153 571 m 1097 972 l 390 0 l 271 0 l 979 972 l 1097 972 m 1042 476 l 869 225 l 1042 225 l 1042 476 z "},"¿":{"ha":701,"x_min":43,"x_max":661,"o":"m 43 -81 q 192 176 43 56 l 229 207 q 311 408 311 274 l 432 408 q 406 247 432 306 q 296 118 378 186 l 261 89 q 169 -72 169 15 q 215 -182 169 -140 q 340 -225 263 -225 q 485 -165 433 -225 q 538 -6 538 -106 l 661 -6 q 571 -240 661 -153 q 340 -325 485 -325 q 82 -203 165 -325 q 43 -81 43 -147 m 442 518 l 299 518 l 299 669 l 442 669 l 442 518 z "},"À":{"ha":946,"x_min":7,"x_max":939,"o":"m 549 972 l 939 0 l 799 0 l 688 289 l 251 289 l 140 0 l 7 0 l 396 972 l 549 972 m 469 857 l 292 394 l 647 394 l 469 857 m 540 1090 l 440 1090 l 293 1269 l 443 1269 l 540 1090 z "},"Á":{"ha":946,"x_min":7,"x_max":939,"o":"m 549 972 l 939 0 l 799 0 l 688 289 l 251 289 l 140 0 l 7 0 l 396 972 l 549 972 m 469 857 l 292 394 l 647 394 l 469 857 m 517 1269 l 665 1269 l 518 1090 l 418 1090 l 517 1269 z "},"Â":{"ha":946,"x_min":7,"x_max":939,"o":"m 549 972 l 939 0 l 799 0 l 688 289 l 251 289 l 140 0 l 7 0 l 396 972 l 549 972 m 469 857 l 292 394 l 647 394 l 469 857 m 546 1269 l 675 1099 l 557 1099 l 515 1150 q 494 1177 504 1164 q 472 1201 483 1190 q 448 1174 458 1188 q 428 1149 438 1161 l 388 1099 l 271 1099 l 400 1269 l 546 1269 z "},"Ã":{"ha":946,"x_min":7,"x_max":939,"o":"m 549 972 l 939 0 l 799 0 l 688 289 l 251 289 l 140 0 l 7 0 l 396 972 l 549 972 m 647 394 l 469 857 l 292 394 l 647 394 m 256 1113 q 386 1260 256 1260 q 481 1228 421 1260 q 551 1201 524 1201 q 596 1254 593 1201 l 689 1254 q 564 1111 689 1111 q 468 1142 519 1111 q 396 1167 415 1167 q 350 1113 351 1167 l 256 1113 z "},"Ä":{"ha":946,"x_min":7,"x_max":939,"o":"m 549 972 l 939 0 l 799 0 l 688 289 l 251 289 l 140 0 l 7 0 l 396 972 l 549 972 m 469 857 l 292 394 l 647 394 l 469 857 m 401 1242 l 401 1099 l 263 1099 l 263 1242 l 401 1242 m 543 1242 l 681 1242 l 681 1099 l 543 1099 l 543 1242 z "},"Å":{"ha":946,"x_min":7,"x_max":939,"o":"m 396 972 l 549 972 l 939 0 l 799 0 l 688 289 l 251 289 l 140 0 l 7 0 l 396 972 m 469 857 l 292 394 l 647 394 l 469 857 m 350 1171 q 386 1260 350 1224 q 472 1294 421 1294 q 558 1260 524 1294 q 594 1171 594 1224 q 558 1083 594 1119 q 472 1050 522 1050 q 386 1085 421 1050 q 350 1171 350 1118 m 422 1171 q 472 1117 422 1117 q 522 1171 522 1117 q 472 1226 522 1226 q 436 1213 450 1226 q 422 1171 422 1199 z "},"Æ":{"ha":1261,"x_min":-18,"x_max":1189,"o":"m 475 972 l 1172 972 l 1172 867 l 667 867 l 667 561 l 1150 561 l 1150 454 l 667 454 l 667 107 l 1189 107 l 1189 0 l 540 0 l 540 289 l 263 289 l 122 0 l -18 0 l 475 972 m 540 394 l 540 860 q 520 820 529 839 q 504 783 511 801 l 314 394 l 540 394 z "},"Ç":{"ha":1003,"x_min":67,"x_max":950,"o":"m 67 492 q 294 932 67 799 q 535 994 400 994 q 821 899 706 994 q 949 658 933 804 l 810 658 q 529 888 768 888 q 290 781 381 888 q 200 492 200 671 q 292 196 200 308 q 529 85 383 85 q 722 147 644 85 q 818 314 797 207 l 950 314 q 831 81 932 167 q 571 -19 729 -8 l 533 -76 q 622 -104 586 -76 q 656 -179 656 -133 q 618 -262 656 -232 q 510 -296 578 -296 q 368 -236 419 -296 l 415 -179 q 507 -222 458 -222 q 567 -179 567 -222 q 510 -139 567 -139 q 474 -146 494 -139 l 432 -96 l 482 -18 q 118 233 222 4 q 67 492 67 340 z "},"È":{"ha":846,"x_min":125,"x_max":774,"o":"m 757 867 l 251 867 l 251 549 l 735 549 l 735 442 l 251 442 l 251 107 l 774 107 l 774 0 l 125 0 l 125 972 l 757 972 l 757 867 m 422 1269 l 519 1090 l 419 1090 l 272 1269 l 422 1269 z "},"É":{"ha":846,"x_min":125,"x_max":774,"o":"m 757 867 l 251 867 l 251 549 l 735 549 l 735 442 l 251 442 l 251 107 l 774 107 l 774 0 l 125 0 l 125 972 l 757 972 l 757 867 m 644 1269 l 497 1090 l 397 1090 l 496 1269 l 644 1269 z "},"Ê":{"ha":846,"x_min":125,"x_max":774,"o":"m 125 972 l 757 972 l 757 867 l 251 867 l 251 549 l 735 549 l 735 442 l 251 442 l 251 107 l 774 107 l 774 0 l 125 0 l 125 972 m 525 1269 l 654 1099 l 536 1099 l 494 1150 q 473 1177 483 1164 q 451 1201 463 1190 q 427 1174 438 1188 q 407 1149 417 1161 l 367 1099 l 250 1099 l 379 1269 l 525 1269 z "},"Ë":{"ha":846,"x_min":125,"x_max":774,"o":"m 757 867 l 251 867 l 251 549 l 735 549 l 735 442 l 251 442 l 251 107 l 774 107 l 774 0 l 125 0 l 125 972 l 757 972 l 757 867 m 381 1099 l 242 1099 l 242 1242 l 381 1242 l 381 1099 m 660 1099 l 522 1099 l 522 1242 l 660 1242 l 660 1099 z "},"Ì":{"ha":378,"x_min":10,"x_max":257,"o":"m 257 1090 l 157 1090 l 10 1269 l 160 1269 l 257 1090 m 251 972 l 251 0 l 125 0 l 125 972 l 251 972 z "},"Í":{"ha":378,"x_min":125,"x_max":382,"o":"m 382 1269 l 235 1090 l 135 1090 l 233 1269 l 382 1269 m 251 972 l 251 0 l 125 0 l 125 972 l 251 972 z "},"Î":{"ha":378,"x_min":-12,"x_max":392,"o":"m 125 972 l 251 972 l 251 0 l 125 0 l 125 972 m 117 1269 l 263 1269 l 392 1099 l 274 1099 l 232 1150 q 210 1177 221 1164 q 189 1201 200 1190 q 165 1174 175 1188 q 144 1149 154 1161 l 104 1099 l -12 1099 l 117 1269 z "},"Ï":{"ha":378,"x_min":-21,"x_max":397,"o":"m 251 0 l 125 0 l 125 972 l 251 972 l 251 0 m 118 1099 l -21 1099 l -21 1242 l 118 1242 l 118 1099 m 397 1099 l 260 1099 l 260 1242 l 397 1242 l 397 1099 z "},"Ð":{"ha":1018,"x_min":32,"x_max":947,"o":"m 32 542 l 133 542 l 133 972 l 425 972 q 810 856 672 972 q 947 488 947 736 q 821 131 947 261 q 456 0 694 0 l 133 0 l 133 440 l 32 440 l 32 542 m 260 107 l 440 107 q 815 488 815 107 q 435 867 815 867 l 260 867 l 260 542 l 393 542 l 393 440 l 260 440 l 260 107 z "},"Ñ":{"ha":1061,"x_min":125,"x_max":936,"o":"m 808 143 l 808 972 l 936 972 l 936 0 l 760 0 l 251 850 l 251 0 l 125 0 l 125 972 l 315 972 l 808 143 m 333 1113 q 464 1260 333 1260 q 558 1228 499 1260 q 629 1201 601 1201 q 674 1254 671 1201 l 767 1254 q 642 1111 767 1111 q 546 1142 601 1111 q 474 1167 493 1167 q 428 1113 429 1167 l 333 1113 z "},"Ò":{"ha":1053,"x_min":65,"x_max":988,"o":"m 65 486 q 292 931 65 796 q 526 994 393 994 q 928 751 803 994 q 988 486 988 638 q 763 43 988 179 q 526 -21 657 -21 q 126 221 249 -21 q 65 486 65 336 m 199 486 q 289 193 199 304 q 526 85 378 85 q 764 193 674 85 q 854 486 854 304 q 764 779 854 668 q 526 888 674 888 q 240 700 325 888 q 199 486 199 608 m 497 1269 l 594 1090 l 494 1090 l 347 1269 l 497 1269 z "},"Ó":{"ha":1053,"x_min":65,"x_max":988,"o":"m 65 486 q 292 931 65 796 q 526 994 393 994 q 928 751 803 994 q 988 486 988 638 q 763 43 988 179 q 526 -21 657 -21 q 126 221 249 -21 q 65 486 65 336 m 199 486 q 289 193 199 304 q 526 85 378 85 q 764 193 674 85 q 854 486 854 304 q 764 779 854 668 q 526 888 674 888 q 240 700 325 888 q 199 486 199 608 m 719 1269 l 572 1090 l 472 1090 l 571 1269 l 719 1269 z "},"Ô":{"ha":1053,"x_min":65,"x_max":988,"o":"m 292 931 q 526 994 393 994 q 928 751 803 994 q 988 486 988 638 q 763 43 988 179 q 526 -21 657 -21 q 126 221 253 -21 q 65 486 65 336 q 292 931 65 796 m 199 486 q 289 193 199 304 q 526 85 378 85 q 764 193 674 85 q 854 486 854 304 q 764 779 854 668 q 526 888 674 888 q 240 700 325 888 q 199 486 199 608 m 600 1269 l 729 1099 l 611 1099 l 569 1150 q 548 1177 558 1164 q 526 1201 538 1190 q 502 1174 513 1188 q 482 1149 492 1161 l 442 1099 l 325 1099 l 454 1269 l 600 1269 z "},"Õ":{"ha":1053,"x_min":65,"x_max":988,"o":"m 65 486 q 292 931 65 796 q 526 994 393 994 q 928 751 803 994 q 988 486 988 638 q 763 43 988 179 q 526 -21 657 -21 q 126 221 249 -21 q 65 486 65 336 m 289 193 q 526 85 378 85 q 764 193 674 85 q 854 486 854 304 q 764 779 854 668 q 526 888 674 888 q 290 779 379 888 q 199 486 199 668 q 289 193 199 304 m 310 1113 q 440 1260 310 1260 q 535 1228 475 1260 q 606 1201 578 1201 q 650 1254 647 1201 l 743 1254 q 618 1111 743 1111 q 522 1142 574 1111 q 450 1167 469 1167 q 404 1113 406 1167 l 310 1113 z "},"Ö":{"ha":1053,"x_min":65,"x_max":988,"o":"m 65 486 q 292 931 65 796 q 526 994 393 994 q 928 751 803 994 q 988 486 988 638 q 763 43 988 179 q 526 -21 657 -21 q 126 221 249 -21 q 65 486 65 336 m 289 193 q 526 85 378 85 q 764 193 674 85 q 854 486 854 304 q 764 779 854 668 q 526 888 674 888 q 290 779 379 888 q 199 486 199 668 q 289 193 199 304 m 317 1242 l 456 1242 l 456 1099 l 317 1099 l 317 1242 m 735 1099 l 597 1099 l 597 1242 l 735 1242 l 735 1099 z "},"×":{"ha":751,"x_min":64,"x_max":688,"o":"m 64 657 l 138 729 l 376 490 l 614 729 l 688 657 l 449 418 l 688 179 l 615 107 l 376 347 l 136 107 l 64 179 l 306 418 l 64 657 z "},"Ø":{"ha":1053,"x_min":65,"x_max":988,"o":"m 65 486 q 292 931 65 796 q 526 994 393 994 q 790 913 675 994 l 875 1022 l 961 956 l 871 839 q 988 486 988 694 q 763 43 988 179 q 526 -21 657 -21 q 267 58 381 -21 l 183 -49 l 94 15 l 185 132 q 97 289 129 199 q 65 486 65 382 m 199 486 q 261 231 199 332 l 719 822 q 526 888 642 888 q 240 700 325 888 q 199 486 199 608 m 335 147 q 526 85 415 85 q 764 193 674 85 q 854 486 854 304 q 793 739 854 632 l 335 147 z "},"Ù":{"ha":963,"x_min":115,"x_max":847,"o":"m 242 396 q 481 85 242 85 q 721 396 721 85 l 721 972 l 847 972 l 847 379 q 751 79 847 181 q 481 -21 657 -21 q 211 79 304 -21 q 115 379 115 181 l 115 972 l 242 972 l 242 396 m 549 1090 l 449 1090 l 301 1269 l 451 1269 l 549 1090 z "},"Ú":{"ha":963,"x_min":115,"x_max":847,"o":"m 242 972 l 242 396 q 481 85 242 85 q 721 396 721 85 l 721 972 l 847 972 l 847 379 q 751 79 847 181 q 481 -21 657 -21 q 211 79 304 -21 q 115 379 115 181 l 115 972 l 242 972 m 525 1269 l 674 1269 l 526 1090 l 426 1090 l 525 1269 z "},"Û":{"ha":963,"x_min":115,"x_max":847,"o":"m 115 972 l 242 972 l 242 396 q 481 85 242 85 q 721 396 721 85 l 721 972 l 847 972 l 847 379 q 751 79 847 181 q 481 -21 657 -21 q 211 81 307 -21 q 115 379 115 181 l 115 972 m 554 1269 l 683 1099 l 565 1099 l 524 1150 q 481 1201 511 1169 q 456 1174 467 1188 q 436 1149 446 1161 l 396 1099 l 279 1099 l 408 1269 l 554 1269 z "},"Ü":{"ha":963,"x_min":115,"x_max":847,"o":"m 242 972 l 242 396 q 481 85 242 85 q 721 396 721 85 l 721 972 l 847 972 l 847 379 q 751 79 847 181 q 481 -21 657 -21 q 211 79 304 -21 q 115 379 115 181 l 115 972 l 242 972 m 410 1099 l 271 1099 l 271 1242 l 410 1242 l 410 1099 m 689 1242 l 689 1099 l 551 1099 l 551 1242 l 689 1242 z "},"Ý":{"ha":821,"x_min":11,"x_max":810,"o":"m 153 972 l 382 575 q 405 534 399 546 q 408 528 411 522 q 438 576 419 546 q 479 646 456 606 l 672 972 l 810 972 l 472 419 l 472 0 l 346 0 l 346 419 l 11 972 l 153 972 m 458 1269 l 607 1269 l 460 1090 l 360 1090 l 458 1269 z "},"Þ":{"ha":894,"x_min":125,"x_max":838,"o":"m 125 972 l 251 972 l 251 781 l 506 781 q 744 718 650 781 q 838 508 838 654 q 746 294 838 358 q 501 231 653 231 l 251 231 l 251 0 l 125 0 l 125 972 m 251 336 l 504 336 q 708 508 708 336 q 504 675 708 675 l 251 675 l 251 336 z "},"ß":{"ha":818,"x_min":103,"x_max":757,"o":"m 103 681 q 192 904 103 819 q 435 994 286 994 q 656 926 569 994 q 746 738 746 853 q 694 592 746 653 q 556 503 643 528 q 757 260 757 449 q 669 54 757 126 q 432 -21 579 -21 q 336 -11 361 -21 l 336 97 q 422 88 369 88 q 633 263 633 88 q 571 403 633 353 q 418 453 508 453 l 354 453 l 354 547 l 419 547 q 564 594 508 547 q 622 724 622 642 q 572 853 622 804 q 436 900 524 900 q 279 838 338 900 q 222 675 222 776 l 222 0 l 103 0 l 103 681 z "},"à":{"ha":707,"x_min":63,"x_max":613,"o":"m 63 183 q 285 392 63 354 l 428 414 q 496 481 496 424 q 458 567 496 535 q 361 597 422 597 q 203 460 208 597 l 83 460 q 158 622 88 557 q 351 692 235 692 q 544 624 476 692 q 613 439 613 557 l 613 0 l 499 0 l 499 90 q 293 -21 446 -21 q 129 35 193 -21 q 63 183 63 90 m 221 103 q 310 72 256 72 q 443 122 390 72 q 496 253 496 172 l 496 351 q 422 322 485 335 l 325 304 q 186 183 186 278 q 221 103 186 133 m 326 967 l 424 788 l 324 788 l 176 967 l 326 967 z "},"á":{"ha":707,"x_min":63,"x_max":613,"o":"m 63 183 q 285 392 63 354 l 428 414 q 496 481 496 424 q 458 567 496 535 q 361 597 422 597 q 203 460 208 597 l 83 460 q 158 622 88 557 q 351 692 235 692 q 544 624 476 692 q 613 439 613 557 l 613 0 l 499 0 l 499 90 q 293 -21 446 -21 q 129 35 193 -21 q 63 183 63 90 m 325 304 q 186 183 186 278 q 221 103 186 133 q 310 72 256 72 q 443 122 390 72 q 496 253 496 172 l 496 351 q 422 322 485 335 l 325 304 m 549 967 l 401 788 l 301 788 l 400 967 l 549 967 z "},"â":{"ha":707,"x_min":63,"x_max":613,"o":"m 428 414 q 496 481 496 424 q 458 567 496 535 q 361 597 422 597 q 203 460 208 597 l 83 460 q 158 622 88 557 q 351 692 235 692 q 544 624 476 692 q 613 439 613 557 l 613 0 l 499 0 l 499 90 q 293 -21 446 -21 q 129 35 193 -21 q 63 183 63 90 q 285 392 63 354 l 428 414 m 325 304 q 186 183 186 278 q 221 103 186 133 q 310 72 256 72 q 443 122 390 72 q 496 253 496 172 l 496 351 q 422 322 485 335 l 325 304 m 429 967 l 558 796 l 440 796 l 399 847 q 356 899 386 867 q 331 872 342 885 q 311 846 321 858 l 271 796 l 154 796 l 283 967 l 429 967 z "},"ã":{"ha":707,"x_min":63,"x_max":613,"o":"m 428 414 q 496 481 496 424 q 458 567 496 535 q 361 597 422 597 q 203 460 208 597 l 83 460 q 158 622 88 557 q 351 692 235 692 q 544 624 476 692 q 613 439 613 557 l 613 0 l 499 0 l 499 90 q 293 -21 446 -21 q 129 35 193 -21 q 63 183 63 90 q 285 392 63 354 l 428 414 m 221 103 q 310 72 256 72 q 443 122 390 72 q 496 253 496 172 l 496 351 q 422 322 485 335 l 325 304 q 186 183 186 278 q 221 103 186 133 m 139 810 q 269 957 139 957 q 364 925 304 957 q 435 899 407 899 q 479 951 476 899 l 572 951 q 447 808 572 808 q 351 839 407 808 q 279 864 299 864 q 233 810 235 864 l 139 810 z "},"ä":{"ha":707,"x_min":63,"x_max":613,"o":"m 63 183 q 285 392 63 354 l 428 414 q 496 481 496 424 q 458 567 496 535 q 361 597 422 597 q 203 460 208 597 l 83 460 q 158 622 88 557 q 351 692 235 692 q 544 624 476 692 q 613 439 613 557 l 613 0 l 499 0 l 499 90 q 293 -21 446 -21 q 129 35 193 -21 q 63 183 63 90 m 221 103 q 310 72 256 72 q 443 122 390 72 q 496 253 496 172 l 496 351 q 422 322 485 335 l 325 304 q 186 183 186 278 q 221 103 186 133 m 285 796 l 146 796 l 146 939 l 285 939 l 285 796 m 564 796 l 426 796 l 426 939 l 564 939 l 564 796 z "},"å":{"ha":707,"x_min":63,"x_max":613,"o":"m 63 183 q 285 392 63 354 l 428 414 q 496 481 496 424 q 458 567 496 535 q 361 597 422 597 q 203 460 208 597 l 83 460 q 158 622 88 557 q 351 692 235 692 q 544 624 476 692 q 613 439 613 557 l 613 0 l 499 0 l 499 90 q 293 -21 446 -21 q 129 35 193 -21 q 63 183 63 90 m 221 103 q 310 72 256 72 q 443 122 390 72 q 496 253 496 172 l 496 351 q 422 322 485 335 l 325 304 q 186 183 186 278 q 221 103 186 133 m 269 957 q 356 992 304 992 q 442 957 407 992 q 478 868 478 921 q 442 781 478 817 q 356 747 406 747 q 269 781 304 747 q 233 868 233 817 q 269 957 233 921 m 356 814 q 406 868 406 814 q 356 924 406 924 q 306 868 306 924 q 356 814 306 814 z "},"æ":{"ha":1189,"x_min":63,"x_max":1128,"o":"m 428 413 q 500 479 500 422 q 460 565 500 533 q 358 597 419 597 q 203 460 208 597 l 83 460 q 158 622 88 557 q 351 692 235 692 q 578 575 507 692 q 818 692 667 692 q 1047 596 965 692 q 1128 336 1128 503 l 1128 313 l 621 313 q 679 136 622 203 q 824 72 733 72 q 1003 207 982 72 l 1122 207 q 1036 44 1111 108 q 826 -21 958 -21 q 547 125 628 -21 q 293 -21 478 -21 q 128 38 192 -21 q 63 186 63 94 q 288 392 63 356 l 428 413 m 221 103 q 308 72 253 72 q 446 124 390 72 q 500 256 500 175 l 500 351 q 429 324 486 335 l 328 304 q 186 186 186 276 q 221 103 186 133 m 1000 397 q 953 543 1000 492 q 819 597 904 597 q 685 540 738 597 q 624 397 631 483 l 1000 397 z "},"ç":{"ha":743,"x_min":60,"x_max":693,"o":"m 60 336 q 157 592 60 493 q 397 692 253 692 q 599 625 517 692 q 689 444 679 556 l 565 444 q 511 554 557 515 q 394 597 467 597 q 242 522 301 597 q 183 336 183 449 q 242 144 183 217 q 397 72 300 72 q 575 225 556 72 l 693 225 q 615 56 685 121 q 425 -19 542 -11 l 388 -76 q 476 -104 440 -76 q 510 -179 510 -133 q 472 -262 510 -232 q 364 -296 432 -296 q 222 -236 274 -296 l 269 -179 q 361 -222 313 -222 q 421 -179 421 -222 q 364 -139 421 -139 q 328 -146 349 -139 l 286 -96 l 336 -17 q 138 93 214 1 q 60 336 60 183 z "},"è":{"ha":750,"x_min":61,"x_max":689,"o":"m 61 338 q 217 646 61 549 q 379 692 289 692 q 608 596 526 692 q 689 336 689 503 l 689 313 l 181 313 q 240 138 182 204 q 388 72 299 72 q 564 207 543 72 l 682 207 q 596 44 671 108 q 386 -21 518 -21 q 149 72 233 -21 q 61 338 61 165 m 561 397 q 514 543 561 492 q 379 597 465 597 q 244 540 297 597 q 185 397 192 483 l 561 397 m 353 967 l 450 788 l 350 788 l 203 967 l 353 967 z "},"é":{"ha":750,"x_min":61,"x_max":689,"o":"m 61 338 q 217 646 61 549 q 379 692 289 692 q 608 596 526 692 q 689 336 689 503 l 689 313 l 181 313 q 240 138 182 204 q 388 72 299 72 q 564 207 543 72 l 682 207 q 596 44 671 108 q 386 -21 518 -21 q 149 72 233 -21 q 61 338 61 165 m 561 397 q 514 543 561 492 q 379 597 465 597 q 244 540 297 597 q 185 397 192 483 l 561 397 m 575 967 l 428 788 l 328 788 l 426 967 l 575 967 z "},"ê":{"ha":750,"x_min":61,"x_max":689,"o":"m 217 646 q 379 692 289 692 q 608 596 526 692 q 689 336 689 503 l 689 313 l 181 313 q 240 138 182 204 q 388 72 299 72 q 564 207 543 72 l 682 207 q 596 44 671 108 q 386 -21 518 -21 q 149 72 233 -21 q 61 338 61 165 q 217 646 61 549 m 561 397 q 514 543 561 492 q 379 597 465 597 q 244 540 297 597 q 185 397 192 483 l 561 397 m 456 967 l 585 796 l 467 796 l 425 847 q 403 874 414 861 q 382 899 393 888 q 358 872 368 885 q 338 846 347 858 l 297 796 l 181 796 l 310 967 l 456 967 z "},"ë":{"ha":750,"x_min":61,"x_max":689,"o":"m 217 646 q 379 692 289 692 q 608 596 526 692 q 689 336 689 503 l 689 313 l 181 313 q 240 138 182 204 q 388 72 299 72 q 564 207 543 72 l 682 207 q 596 44 671 108 q 386 -21 518 -21 q 149 72 233 -21 q 61 338 61 165 q 217 646 61 549 m 561 397 q 514 543 561 492 q 379 597 465 597 q 244 540 297 597 q 185 397 192 483 l 561 397 m 311 796 l 172 796 l 172 939 l 311 939 l 311 796 m 453 939 l 590 939 l 590 796 l 453 796 l 453 939 z "},"ì":{"ha":324,"x_min":-17,"x_max":231,"o":"m 231 788 l 131 788 l -17 967 l 133 967 l 231 788 m 222 669 l 222 0 l 103 0 l 103 669 l 222 669 z "},"í":{"ha":324,"x_min":103,"x_max":356,"o":"m 356 967 l 208 788 l 108 788 l 207 967 l 356 967 m 222 669 l 222 0 l 103 0 l 103 669 l 222 669 z "},"î":{"ha":324,"x_min":-39,"x_max":365,"o":"m 103 669 l 222 669 l 222 0 l 103 0 l 103 669 m 90 967 l 236 967 l 365 796 l 247 796 l 206 847 q 184 874 194 861 q 163 899 174 888 q 138 872 149 885 q 118 846 128 858 l 78 796 l -39 796 l 90 967 z "},"ï":{"ha":324,"x_min":-47,"x_max":371,"o":"m 222 0 l 103 0 l 103 669 l 222 669 l 222 0 m 92 796 l -47 796 l -47 939 l 92 939 l 92 796 m 371 796 l 233 796 l 233 939 l 371 939 l 371 796 z "},"ð":{"ha":781,"x_min":60,"x_max":718,"o":"m 60 336 q 151 592 60 492 q 382 692 240 692 q 529 640 469 692 q 519 658 526 646 q 500 693 513 671 q 449 764 471 739 l 289 718 l 260 810 l 374 842 q 324 881 353 861 q 256 924 294 901 l 353 1000 q 511 882 443 954 l 657 924 l 683 832 l 579 801 q 718 349 718 604 q 626 79 718 181 q 389 -21 535 -21 q 101 150 186 -21 q 60 336 60 231 m 183 336 q 239 144 183 214 q 389 72 294 72 q 539 144 483 72 q 594 336 594 214 q 539 526 594 454 q 389 597 482 597 q 240 526 296 597 q 183 336 183 453 z "},"ñ":{"ha":769,"x_min":103,"x_max":675,"o":"m 222 579 q 428 692 290 692 q 610 621 544 692 q 675 422 675 549 l 675 0 l 556 0 l 556 407 q 408 597 556 597 q 274 542 324 597 q 222 403 222 486 l 222 0 l 103 0 l 103 669 l 222 669 l 222 579 m 181 810 q 311 957 181 957 q 406 925 346 957 q 476 899 449 899 q 521 951 518 899 l 614 951 q 489 808 614 808 q 393 839 449 808 q 321 864 340 864 q 275 810 276 864 l 181 810 z "},"ò":{"ha":778,"x_min":60,"x_max":718,"o":"m 151 592 q 389 692 244 692 q 676 521 586 692 q 718 336 718 439 q 625 78 718 176 q 389 -21 531 -21 q 151 78 243 -21 q 60 336 60 178 q 151 592 60 493 m 239 144 q 389 72 294 72 q 539 144 483 72 q 594 336 594 214 q 539 526 594 454 q 389 597 482 597 q 240 526 296 597 q 183 336 183 453 q 239 144 183 214 m 360 967 l 457 788 l 357 788 l 210 967 l 360 967 z "},"ó":{"ha":778,"x_min":60,"x_max":718,"o":"m 151 592 q 389 692 244 692 q 676 521 586 692 q 718 336 718 439 q 625 78 718 176 q 389 -21 531 -21 q 151 78 243 -21 q 60 336 60 178 q 151 592 60 493 m 183 336 q 239 144 183 214 q 389 72 294 72 q 539 144 483 72 q 594 336 594 214 q 539 526 594 454 q 389 597 482 597 q 240 526 296 597 q 183 336 183 453 m 433 967 l 582 967 l 435 788 l 335 788 l 433 967 z "},"ô":{"ha":778,"x_min":60,"x_max":718,"o":"m 151 592 q 389 692 244 692 q 676 521 586 692 q 718 336 718 439 q 625 78 718 176 q 389 -21 531 -21 q 151 78 243 -21 q 60 336 60 178 q 151 592 60 493 m 183 336 q 239 144 183 214 q 389 72 294 72 q 539 144 483 72 q 594 336 594 214 q 539 526 594 454 q 389 597 482 597 q 240 526 296 597 q 183 336 183 453 m 463 967 l 592 796 l 474 796 l 432 847 q 410 874 421 861 q 389 899 400 888 q 365 872 375 885 q 344 846 354 858 l 304 796 l 188 796 l 317 967 l 463 967 z "},"õ":{"ha":778,"x_min":60,"x_max":718,"o":"m 151 592 q 389 692 244 692 q 676 521 586 692 q 718 336 718 439 q 625 78 718 176 q 389 -21 531 -21 q 151 78 243 -21 q 60 336 60 178 q 151 592 60 493 m 183 336 q 239 144 183 214 q 389 72 294 72 q 539 144 483 72 q 594 336 594 214 q 539 526 594 454 q 389 597 482 597 q 240 526 296 597 q 183 336 183 453 m 172 810 q 303 957 172 957 q 397 925 338 957 q 468 899 440 899 q 513 951 510 899 l 606 951 q 481 808 606 808 q 385 839 436 808 q 313 864 332 864 q 267 810 268 864 l 172 810 z "},"ö":{"ha":778,"x_min":60,"x_max":718,"o":"m 151 592 q 389 692 244 692 q 676 521 586 692 q 718 336 718 439 q 625 78 718 176 q 389 -21 531 -21 q 151 78 243 -21 q 60 336 60 178 q 151 592 60 493 m 239 144 q 389 72 294 72 q 539 144 483 72 q 594 336 594 214 q 539 526 594 454 q 389 597 482 597 q 240 526 296 597 q 183 336 183 453 q 239 144 183 214 m 179 939 l 318 939 l 318 796 l 179 796 l 179 939 m 597 796 l 460 796 l 460 939 l 597 939 l 597 796 z "},"÷":{"ha":824,"x_min":82,"x_max":740,"o":"m 740 465 l 740 367 l 82 367 l 82 465 l 740 465 m 478 611 l 349 611 l 349 746 l 478 746 l 478 611 m 349 222 l 478 222 l 478 88 l 349 88 l 349 222 z "},"ø":{"ha":778,"x_min":60,"x_max":718,"o":"m 151 592 q 389 692 244 692 q 565 642 488 692 l 628 722 l 703 664 l 638 579 q 718 336 718 482 q 625 78 718 176 q 389 -21 531 -21 q 211 29 288 -21 l 150 -50 l 75 8 l 139 92 q 60 336 60 189 q 151 592 60 493 m 274 110 q 389 72 325 72 q 539 144 483 72 q 594 336 594 214 q 564 485 594 424 l 274 110 m 183 336 q 213 186 183 249 l 503 561 q 389 597 454 597 q 240 526 296 597 q 183 336 183 453 z "},"ù":{"ha":758,"x_min":94,"x_max":656,"o":"m 94 669 l 214 669 l 214 268 q 367 72 214 72 q 538 300 538 72 l 538 669 l 656 669 l 656 0 l 539 0 l 539 93 q 336 -21 488 -21 q 157 47 217 -21 q 94 243 94 115 l 94 669 m 450 788 l 350 788 l 203 967 l 353 967 l 450 788 z "},"ú":{"ha":758,"x_min":94,"x_max":656,"o":"m 214 669 l 214 268 q 367 72 214 72 q 538 300 538 72 l 538 669 l 656 669 l 656 0 l 539 0 l 539 93 q 336 -21 488 -21 q 94 243 94 -21 l 94 669 l 214 669 m 575 967 l 428 788 l 328 788 l 426 967 l 575 967 z "},"û":{"ha":758,"x_min":94,"x_max":656,"o":"m 214 268 q 367 72 214 72 q 538 300 538 72 l 538 669 l 656 669 l 656 0 l 539 0 l 539 93 q 336 -21 488 -21 q 94 243 94 -21 l 94 669 l 214 669 l 214 268 m 456 967 l 585 796 l 467 796 l 425 847 q 403 874 414 861 q 382 899 393 888 q 358 872 368 885 q 338 846 347 858 l 297 796 l 181 796 l 310 967 l 456 967 z "},"ü":{"ha":758,"x_min":94,"x_max":656,"o":"m 214 268 q 367 72 214 72 q 538 300 538 72 l 538 669 l 656 669 l 656 0 l 539 0 l 539 93 q 336 -21 488 -21 q 94 243 94 -21 l 94 669 l 214 669 l 214 268 m 311 796 l 172 796 l 172 939 l 311 939 l 311 796 m 590 939 l 590 796 l 453 796 l 453 939 l 590 939 z "},"ý":{"ha":668,"x_min":19,"x_max":651,"o":"m 151 669 l 350 160 l 526 669 l 651 669 l 292 -293 l 165 -293 l 288 24 l 19 669 l 151 669 m 383 967 l 532 967 l 385 788 l 285 788 l 383 967 z "},"þ":{"ha":810,"x_min":103,"x_max":751,"o":"m 222 972 l 222 578 q 443 692 294 692 q 669 592 583 692 q 751 336 751 493 q 665 79 751 178 q 440 -21 579 -21 q 222 93 282 -21 l 222 -293 l 103 -293 l 103 972 l 222 972 m 274 146 q 422 72 331 72 q 571 146 514 72 q 626 336 626 218 q 571 525 626 453 q 422 597 515 597 q 274 526 329 597 q 215 336 215 453 q 274 146 215 218 z "},"ÿ":{"ha":668,"x_min":19,"x_max":651,"o":"m 151 669 l 350 160 l 526 669 l 651 669 l 292 -293 l 165 -293 l 288 24 l 19 669 l 151 669 m 129 939 l 268 939 l 268 796 l 129 796 l 129 939 m 547 796 l 410 796 l 410 939 l 547 939 l 547 796 z "},"Ā":{"ha":946,"x_min":7,"x_max":939,"o":"m 396 972 l 549 972 l 939 0 l 799 0 l 688 289 l 251 289 l 140 0 l 7 0 l 396 972 m 469 857 l 292 394 l 647 394 l 469 857 m 279 1219 l 664 1219 l 664 1117 l 279 1117 l 279 1219 z "},"ā":{"ha":707,"x_min":63,"x_max":613,"o":"m 428 414 q 496 481 496 424 q 458 567 496 535 q 361 597 422 597 q 203 460 208 597 l 83 460 q 158 622 88 557 q 351 692 235 692 q 544 624 476 692 q 613 439 613 557 l 613 0 l 499 0 l 499 90 q 293 -21 446 -21 q 129 35 193 -21 q 63 183 63 90 q 285 392 63 354 l 428 414 m 221 103 q 310 72 256 72 q 443 122 390 72 q 496 253 496 172 l 496 351 q 422 322 485 335 l 325 304 q 186 183 186 278 q 221 103 186 133 m 163 917 l 547 917 l 547 814 l 163 814 l 163 917 z "},"Ă":{"ha":946,"x_min":7,"x_max":939,"o":"m 549 972 l 939 0 l 799 0 l 688 289 l 251 289 l 140 0 l 7 0 l 396 972 l 549 972 m 469 857 l 292 394 l 647 394 l 469 857 m 381 1269 q 472 1188 388 1188 q 565 1269 558 1188 l 658 1269 q 610 1140 656 1186 q 472 1090 557 1090 q 339 1142 386 1090 q 288 1269 289 1193 l 381 1269 z "},"ă":{"ha":707,"x_min":63,"x_max":613,"o":"m 428 414 q 496 481 496 424 q 458 567 496 535 q 361 597 422 597 q 203 460 208 597 l 83 460 q 158 622 88 557 q 351 692 235 692 q 544 624 476 692 q 613 439 613 557 l 613 0 l 499 0 l 499 90 q 293 -21 446 -21 q 129 35 193 -21 q 63 183 63 90 q 285 392 63 354 l 428 414 m 325 304 q 186 183 186 278 q 221 103 186 133 q 310 72 256 72 q 443 122 390 72 q 496 253 496 172 l 496 351 q 422 322 485 335 l 325 304 m 264 967 q 356 885 271 885 q 449 967 442 885 l 542 967 q 493 838 539 883 q 356 788 440 788 q 222 839 272 788 q 171 967 174 888 l 264 967 z "},"Ą":{"ha":946,"x_min":7,"x_max":939,"o":"m 396 972 l 549 972 l 939 0 q 825 -117 825 -54 q 893 -176 825 -176 q 939 -171 924 -176 l 939 -257 q 869 -267 921 -267 q 765 -232 806 -267 q 724 -139 724 -197 q 829 0 724 -50 l 799 0 l 688 289 l 251 289 l 140 0 l 7 0 l 396 972 m 469 857 l 292 394 l 647 394 l 469 857 z "},"ą":{"ha":707,"x_min":63,"x_max":613,"o":"m 428 414 q 496 481 496 424 q 458 567 496 535 q 361 597 422 597 q 203 460 208 597 l 83 460 q 158 622 88 557 q 351 692 235 692 q 544 624 476 692 q 613 439 613 557 l 613 0 q 499 -117 499 -46 q 569 -176 499 -176 q 613 -171 597 -176 l 613 -257 q 547 -267 593 -267 q 440 -232 481 -267 q 397 -137 397 -197 q 499 6 397 -46 l 499 90 q 293 -21 446 -21 q 129 35 193 -21 q 63 183 63 90 q 285 392 63 354 l 428 414 m 325 304 q 186 183 186 278 q 221 103 186 133 q 310 72 256 72 q 443 122 390 72 q 496 253 496 172 l 496 351 q 422 322 485 335 l 325 304 z "},"Ć":{"ha":1003,"x_min":67,"x_max":950,"o":"m 67 492 q 294 932 67 799 q 535 994 400 994 q 821 899 706 994 q 949 658 933 804 l 810 658 q 529 888 768 888 q 290 781 381 888 q 200 492 200 671 q 292 196 200 308 q 529 85 383 85 q 722 147 644 85 q 818 314 797 207 l 950 314 q 818 69 931 158 q 532 -21 703 -21 q 125 219 246 -21 q 67 492 67 333 m 721 1269 l 574 1090 l 474 1090 l 572 1269 l 721 1269 z "},"ć":{"ha":743,"x_min":60,"x_max":693,"o":"m 60 336 q 157 592 60 493 q 397 692 253 692 q 599 625 517 692 q 689 444 679 556 l 565 444 q 511 554 557 515 q 394 597 467 597 q 242 522 301 597 q 183 336 183 449 q 242 144 183 217 q 397 72 300 72 q 575 225 556 72 l 693 225 q 606 46 682 110 q 392 -21 524 -21 q 104 140 190 -21 q 60 336 60 222 m 442 967 l 590 967 l 443 788 l 343 788 l 442 967 z "},"Ĉ":{"ha":1003,"x_min":67,"x_max":950,"o":"m 67 492 q 294 932 67 799 q 535 994 400 994 q 821 899 706 994 q 949 658 933 804 l 810 658 q 529 888 768 888 q 290 781 381 888 q 200 492 200 671 q 292 196 200 308 q 529 85 383 85 q 722 147 644 85 q 818 314 797 207 l 950 314 q 818 69 931 158 q 532 -21 703 -21 q 125 219 246 -21 q 67 492 67 333 m 601 1269 l 731 1099 l 613 1099 l 571 1150 q 528 1201 558 1169 q 503 1174 514 1188 q 483 1149 493 1161 l 443 1099 l 326 1099 l 456 1269 l 601 1269 z "},"ĉ":{"ha":743,"x_min":60,"x_max":693,"o":"m 60 336 q 157 592 60 493 q 397 692 253 692 q 599 625 517 692 q 689 444 679 556 l 565 444 q 511 554 557 515 q 394 597 467 597 q 242 522 301 597 q 183 336 183 449 q 242 144 183 217 q 397 72 300 72 q 575 225 556 72 l 693 225 q 606 46 682 110 q 392 -21 524 -21 q 104 140 190 -21 q 60 336 60 222 m 471 967 l 600 796 l 482 796 l 440 847 q 397 899 428 867 q 373 872 383 885 q 353 846 363 858 l 313 796 l 196 796 l 325 967 l 471 967 z "},"Ċ":{"ha":1003,"x_min":67,"x_max":950,"o":"m 67 492 q 294 932 67 799 q 535 994 400 994 q 821 899 706 994 q 949 658 933 804 l 810 658 q 529 888 768 888 q 290 781 381 888 q 200 492 200 671 q 292 196 200 308 q 529 85 383 85 q 722 147 644 85 q 818 314 797 207 l 950 314 q 818 69 931 158 q 532 -21 703 -21 q 125 219 246 -21 q 67 492 67 333 m 457 1242 l 596 1242 l 596 1099 l 457 1099 l 457 1242 z "},"ċ":{"ha":743,"x_min":60,"x_max":693,"o":"m 157 592 q 397 692 253 692 q 599 625 517 692 q 689 444 679 556 l 565 444 q 511 554 557 515 q 394 597 467 597 q 242 522 301 597 q 183 336 183 449 q 242 144 183 217 q 397 72 300 72 q 575 225 556 72 l 693 225 q 606 46 682 110 q 392 -21 524 -21 q 156 71 244 -21 q 60 336 60 167 q 157 592 60 493 m 465 939 l 465 796 l 326 796 l 326 939 l 465 939 z "},"Č":{"ha":1003,"x_min":67,"x_max":950,"o":"m 67 492 q 294 932 67 799 q 535 994 400 994 q 821 899 706 994 q 949 658 933 804 l 810 658 q 529 888 768 888 q 290 781 381 888 q 200 492 200 671 q 292 196 200 308 q 529 85 383 85 q 722 147 644 85 q 818 314 797 207 l 950 314 q 818 69 931 158 q 532 -21 703 -21 q 125 219 246 -21 q 67 492 67 333 m 526 1167 q 547 1190 536 1176 q 569 1218 557 1203 l 611 1269 l 729 1269 l 600 1099 l 454 1099 l 325 1269 l 442 1269 l 526 1167 z "},"č":{"ha":743,"x_min":60,"x_max":693,"o":"m 60 336 q 157 592 60 493 q 397 692 253 692 q 599 625 517 692 q 689 444 679 556 l 565 444 q 511 554 557 515 q 394 597 467 597 q 242 522 301 597 q 183 336 183 449 q 242 144 183 217 q 397 72 300 72 q 575 225 556 72 l 693 225 q 606 46 682 110 q 392 -21 524 -21 q 104 140 190 -21 q 60 336 60 222 m 311 967 l 396 864 q 422 892 411 879 q 439 915 432 906 l 481 967 l 599 967 l 469 796 l 324 796 l 194 967 l 311 967 z "},"Ď":{"ha":1008,"x_min":125,"x_max":939,"o":"m 417 972 q 801 856 664 972 q 939 488 939 736 q 813 131 939 261 q 447 0 686 0 l 125 0 l 125 972 l 417 972 m 432 107 q 807 488 807 107 q 426 867 807 867 l 251 867 l 251 107 l 432 107 m 397 1269 l 482 1167 q 502 1190 492 1176 q 525 1218 513 1203 l 567 1269 l 685 1269 l 556 1099 l 410 1099 l 281 1269 l 397 1269 z "},"ď":{"ha":888,"x_min":60,"x_max":944,"o":"m 144 590 q 371 692 232 692 q 586 579 521 692 l 586 972 l 706 972 l 706 0 l 586 0 l 586 93 q 368 -21 522 -21 q 147 72 232 -21 q 60 335 60 169 q 144 590 60 492 m 240 144 q 389 72 296 72 q 538 144 479 72 q 594 336 594 218 q 538 526 594 453 q 389 597 481 597 q 240 525 296 597 q 183 335 183 451 q 240 144 183 218 m 804 760 q 868 849 868 769 l 806 849 l 806 972 l 944 972 l 944 853 q 906 732 944 769 q 804 690 867 694 l 804 760 z "},"Đ":{"ha":1018,"x_min":32,"x_max":947,"o":"m 32 542 l 133 542 l 133 972 l 425 972 q 810 856 672 972 q 947 488 947 736 q 821 131 947 261 q 456 0 694 0 l 133 0 l 133 440 l 32 440 l 32 542 m 260 107 l 440 107 q 815 488 815 107 q 435 867 815 867 l 260 867 l 260 542 l 393 542 l 393 440 l 260 440 l 260 107 z "},"đ":{"ha":808,"x_min":60,"x_max":807,"o":"m 144 590 q 371 692 232 692 q 586 579 521 692 l 586 769 l 344 769 l 344 871 l 586 871 l 586 972 l 706 972 l 706 871 l 807 871 l 807 769 l 706 769 l 706 0 l 586 0 l 586 93 q 368 -21 522 -21 q 147 72 232 -21 q 60 335 60 169 q 144 590 60 492 m 183 335 q 240 144 183 218 q 389 72 296 72 q 538 144 479 72 q 594 336 594 218 q 538 526 594 453 q 389 597 481 597 q 240 525 296 597 q 183 335 183 451 z "},"Ē":{"ha":846,"x_min":125,"x_max":774,"o":"m 757 867 l 251 867 l 251 549 l 735 549 l 735 442 l 251 442 l 251 107 l 774 107 l 774 0 l 125 0 l 125 972 l 757 972 l 757 867 m 643 1219 l 643 1117 l 258 1117 l 258 1219 l 643 1219 z "},"ē":{"ha":750,"x_min":61,"x_max":689,"o":"m 61 338 q 217 646 61 549 q 379 692 289 692 q 608 596 526 692 q 689 336 689 503 l 689 313 l 181 313 q 240 138 182 204 q 388 72 299 72 q 564 207 543 72 l 682 207 q 596 44 671 108 q 386 -21 518 -21 q 149 72 233 -21 q 61 338 61 165 m 561 397 q 514 543 561 492 q 379 597 465 597 q 244 540 297 597 q 185 397 192 483 l 561 397 m 574 917 l 574 814 l 189 814 l 189 917 l 574 917 z "},"Ĕ":{"ha":846,"x_min":125,"x_max":774,"o":"m 125 972 l 757 972 l 757 867 l 251 867 l 251 549 l 735 549 l 735 442 l 251 442 l 251 107 l 774 107 l 774 0 l 125 0 l 125 972 m 360 1269 q 451 1188 367 1188 q 544 1269 538 1188 l 638 1269 q 589 1140 635 1186 q 451 1090 536 1090 q 318 1142 368 1090 q 267 1269 269 1190 l 360 1269 z "},"ĕ":{"ha":750,"x_min":61,"x_max":689,"o":"m 61 338 q 217 646 61 549 q 379 692 289 692 q 608 596 526 692 q 689 336 689 503 l 689 313 l 181 313 q 240 138 182 204 q 388 72 299 72 q 564 207 543 72 l 682 207 q 596 44 671 108 q 386 -21 518 -21 q 149 72 233 -21 q 61 338 61 165 m 561 397 q 514 543 561 492 q 379 597 465 597 q 244 540 297 597 q 185 397 192 483 l 561 397 m 290 967 q 382 885 297 885 q 475 967 468 885 l 568 967 q 519 838 565 883 q 382 788 467 788 q 249 839 299 788 q 197 967 200 888 l 290 967 z "},"Ė":{"ha":846,"x_min":125,"x_max":774,"o":"m 757 867 l 251 867 l 251 549 l 735 549 l 735 442 l 251 442 l 251 107 l 774 107 l 774 0 l 125 0 l 125 972 l 757 972 l 757 867 m 519 1242 l 519 1099 l 381 1099 l 381 1242 l 519 1242 z "},"ė":{"ha":750,"x_min":61,"x_max":689,"o":"m 61 338 q 217 646 61 549 q 379 692 289 692 q 608 596 526 692 q 689 336 689 503 l 689 313 l 181 313 q 240 138 182 204 q 388 72 299 72 q 564 207 543 72 l 682 207 q 596 44 671 108 q 386 -21 518 -21 q 149 72 233 -21 q 61 338 61 165 m 561 397 q 514 543 561 492 q 379 597 465 597 q 244 540 297 597 q 185 397 192 483 l 561 397 m 450 796 l 311 796 l 311 939 l 450 939 l 450 796 z "},"Ę":{"ha":846,"x_min":125,"x_max":774,"o":"m 757 972 l 757 867 l 251 867 l 251 549 l 735 549 l 735 442 l 251 442 l 251 107 l 774 107 l 774 0 q 660 -117 660 -46 q 731 -176 660 -176 q 774 -171 758 -176 l 774 -257 q 708 -267 754 -267 q 601 -232 642 -267 q 558 -137 558 -197 q 650 0 558 -53 l 125 0 l 125 972 l 757 972 z "},"ę":{"ha":750,"x_min":61,"x_max":689,"o":"m 61 338 q 217 646 61 549 q 379 692 289 692 q 608 596 526 692 q 689 336 689 503 l 689 313 l 181 313 q 240 138 182 204 q 388 72 299 72 q 564 207 543 72 l 682 207 q 490 -8 664 44 q 381 -117 381 -43 q 451 -176 381 -176 q 494 -171 479 -176 l 494 -257 q 431 -267 476 -267 q 324 -232 364 -267 q 279 -137 279 -196 q 340 -19 279 -72 q 136 86 208 -7 q 61 338 61 178 m 561 397 q 514 543 561 492 q 379 597 465 597 q 244 540 297 597 q 185 397 192 483 l 561 397 z "},"Ě":{"ha":846,"x_min":125,"x_max":774,"o":"m 757 867 l 251 867 l 251 549 l 735 549 l 735 442 l 251 442 l 251 107 l 774 107 l 774 0 l 125 0 l 125 972 l 757 972 l 757 867 m 450 1167 q 470 1190 460 1176 q 493 1218 481 1203 l 535 1269 l 653 1269 l 524 1099 l 378 1099 l 249 1269 l 365 1269 l 450 1167 z "},"ě":{"ha":750,"x_min":61,"x_max":689,"o":"m 217 646 q 379 692 289 692 q 608 596 526 692 q 689 336 689 503 l 689 313 l 181 313 q 240 138 182 204 q 388 72 299 72 q 564 207 543 72 l 682 207 q 596 44 671 108 q 386 -21 518 -21 q 149 72 233 -21 q 61 338 61 165 q 217 646 61 549 m 561 397 q 514 543 561 492 q 379 597 465 597 q 244 540 297 597 q 185 397 192 483 l 561 397 m 381 864 q 406 892 396 879 q 424 915 417 906 l 465 967 l 583 967 l 454 796 l 308 796 l 179 967 l 296 967 l 381 864 z "},"Ĝ":{"ha":1024,"x_min":65,"x_max":939,"o":"m 65 481 q 301 935 65 806 q 538 994 407 994 q 808 910 699 994 q 935 690 918 825 l 800 690 q 713 833 785 778 q 538 888 639 888 q 294 782 386 888 q 199 481 199 671 q 358 136 199 242 q 531 85 431 85 q 746 161 669 85 q 824 383 824 242 l 824 401 l 518 401 l 518 508 l 939 508 l 939 0 l 835 0 l 835 135 q 711 24 797 68 q 526 -21 626 -21 q 122 225 240 -21 q 65 481 65 343 m 611 1269 l 740 1099 l 622 1099 l 581 1150 q 538 1201 568 1169 q 513 1174 524 1188 q 493 1149 503 1161 l 453 1099 l 336 1099 l 465 1269 l 611 1269 z "},"ĝ":{"ha":807,"x_min":61,"x_max":704,"o":"m 150 596 q 369 692 238 692 q 585 579 511 692 l 585 669 l 704 669 l 704 33 q 382 -315 704 -315 q 171 -247 247 -315 q 90 -64 90 -179 l 208 -64 q 256 -179 208 -136 q 383 -222 303 -222 q 585 -8 585 -222 l 585 118 q 365 7 528 7 q 144 100 228 7 q 61 347 61 192 q 150 596 61 499 m 242 168 q 389 100 297 100 q 536 168 481 100 q 593 347 593 238 q 535 526 593 457 q 389 597 478 597 q 242 528 299 597 q 185 347 185 458 q 242 168 185 236 m 488 967 l 617 796 l 499 796 l 457 847 q 414 899 444 867 q 390 872 400 885 q 369 846 379 858 l 329 796 l 213 796 l 342 967 l 488 967 z "},"Ğ":{"ha":1024,"x_min":65,"x_max":939,"o":"m 65 481 q 301 935 65 806 q 538 994 407 994 q 808 910 699 994 q 935 690 918 825 l 800 690 q 713 833 785 778 q 538 888 639 888 q 294 782 386 888 q 199 481 199 671 q 358 136 199 242 q 531 85 431 85 q 746 161 669 85 q 824 383 824 242 l 824 401 l 518 401 l 518 508 l 939 508 l 939 0 l 835 0 l 835 135 q 711 24 797 68 q 526 -21 626 -21 q 122 225 240 -21 q 65 481 65 343 m 446 1269 q 538 1188 453 1188 q 631 1269 624 1188 l 724 1269 q 675 1140 721 1186 q 538 1090 622 1090 q 404 1142 454 1090 q 353 1269 356 1190 l 446 1269 z "},"ğ":{"ha":807,"x_min":61,"x_max":704,"o":"m 61 347 q 150 596 61 499 q 369 692 238 692 q 585 579 511 692 l 585 669 l 704 669 l 704 33 q 382 -315 704 -315 q 171 -247 247 -315 q 90 -64 90 -179 l 208 -64 q 256 -179 208 -136 q 383 -222 303 -222 q 585 -8 585 -222 l 585 118 q 365 7 528 7 q 99 168 176 7 q 61 347 61 244 m 185 347 q 242 168 185 236 q 389 100 297 100 q 536 168 481 100 q 593 347 593 238 q 535 526 593 457 q 389 597 478 597 q 242 528 299 597 q 185 347 185 458 m 322 967 q 414 885 329 885 q 507 967 500 885 l 600 967 q 551 838 597 883 q 414 788 499 788 q 281 839 331 788 q 229 967 232 888 l 322 967 z "},"Ġ":{"ha":1024,"x_min":65,"x_max":939,"o":"m 65 481 q 301 935 65 806 q 538 994 407 994 q 808 910 699 994 q 935 690 918 825 l 800 690 q 713 833 785 778 q 538 888 639 888 q 294 782 386 888 q 199 481 199 671 q 358 136 199 242 q 531 85 431 85 q 746 161 669 85 q 824 383 824 242 l 824 401 l 518 401 l 518 508 l 939 508 l 939 0 l 835 0 l 835 135 q 711 24 797 68 q 526 -21 626 -21 q 122 225 240 -21 q 65 481 65 343 m 467 1242 l 606 1242 l 606 1099 l 467 1099 l 467 1242 z "},"ġ":{"ha":807,"x_min":61,"x_max":704,"o":"m 150 596 q 369 692 238 692 q 585 579 511 692 l 585 669 l 704 669 l 704 33 q 382 -315 704 -315 q 171 -247 247 -315 q 90 -64 90 -179 l 208 -64 q 256 -179 208 -136 q 383 -222 303 -222 q 585 -8 585 -222 l 585 118 q 365 7 528 7 q 144 100 228 7 q 61 347 61 192 q 150 596 61 499 m 185 347 q 242 168 185 236 q 389 100 297 100 q 536 168 481 100 q 593 347 593 238 q 535 526 593 457 q 389 597 478 597 q 242 528 299 597 q 185 347 185 458 m 343 939 l 482 939 l 482 796 l 343 796 l 343 939 z "},"Ģ":{"ha":1024,"x_min":65,"x_max":939,"o":"m 301 935 q 538 994 407 994 q 808 910 699 994 q 935 690 918 825 l 800 690 q 713 833 785 778 q 538 888 639 888 q 294 782 386 888 q 199 481 199 671 q 358 136 199 242 q 531 85 431 85 q 746 161 669 85 q 824 383 824 242 l 824 401 l 518 401 l 518 508 l 939 508 l 939 0 l 835 0 l 835 135 q 711 24 797 68 q 526 -21 626 -21 q 122 225 243 -21 q 65 481 65 343 q 301 935 65 806 m 464 -325 q 528 -236 528 -315 l 465 -236 l 465 -112 l 604 -112 l 604 -232 q 464 -394 604 -383 l 464 -325 z "},"ģ":{"ha":807,"x_min":61,"x_max":704,"o":"m 150 596 q 369 692 238 692 q 585 579 511 692 l 585 669 l 704 669 l 704 33 q 382 -315 704 -315 q 171 -247 247 -315 q 90 -64 90 -179 l 208 -64 q 256 -179 208 -136 q 383 -222 303 -222 q 585 -8 585 -222 l 585 118 q 365 7 528 7 q 144 100 228 7 q 61 347 61 192 q 150 596 61 499 m 242 168 q 389 100 297 100 q 536 168 481 100 q 593 347 593 238 q 535 526 593 457 q 389 597 478 597 q 242 528 299 597 q 185 347 185 458 q 242 168 185 236 m 343 915 q 483 1078 343 1067 l 483 1008 q 419 919 419 999 l 482 919 l 482 796 l 343 796 l 343 915 z "},"Ĥ":{"ha":1021,"x_min":125,"x_max":894,"o":"m 251 564 l 768 564 l 768 972 l 894 972 l 894 0 l 768 0 l 768 457 l 251 457 l 251 0 l 125 0 l 125 972 l 251 972 l 251 564 m 583 1269 l 713 1099 l 594 1099 l 553 1150 q 510 1201 540 1169 q 485 1174 496 1188 q 465 1149 475 1161 l 425 1099 l 308 1099 l 438 1269 l 583 1269 z "},"ĥ":{"ha":769,"x_min":103,"x_max":675,"o":"m 222 972 l 222 579 q 428 692 286 692 q 610 621 544 692 q 675 422 675 549 l 675 0 l 556 0 l 556 407 q 404 597 556 597 q 272 542 319 597 q 222 403 222 485 l 222 0 l 103 0 l 103 972 l 222 972 m 465 1218 l 594 1047 l 476 1047 l 435 1099 q 392 1150 422 1118 q 367 1123 378 1136 q 347 1097 357 1110 l 307 1047 l 190 1047 l 319 1218 l 465 1218 z "},"Ħ":{"ha":1021,"x_min":24,"x_max":996,"o":"m 125 821 l 125 972 l 251 972 l 251 821 l 768 821 l 768 972 l 894 972 l 894 821 l 996 821 l 996 718 l 894 718 l 894 0 l 768 0 l 768 457 l 251 457 l 251 0 l 125 0 l 125 718 l 24 718 l 24 821 l 125 821 m 251 564 l 768 564 l 768 718 l 251 718 l 251 564 z "},"ħ":{"ha":769,"x_min":0,"x_max":675,"o":"m 103 972 l 222 972 l 222 871 l 463 871 l 463 769 l 222 769 l 222 579 q 428 692 286 692 q 610 621 544 692 q 675 422 675 549 l 675 0 l 556 0 l 556 407 q 404 597 556 597 q 272 542 319 597 q 222 403 222 485 l 222 0 l 103 0 l 103 769 l 0 769 l 0 871 l 103 871 l 103 972 z "},"Ĩ":{"ha":378,"x_min":-28,"x_max":406,"o":"m 125 972 l 251 972 l 251 0 l 125 0 l 125 972 m -28 1113 q 103 1260 -28 1260 q 197 1228 138 1260 q 268 1201 240 1201 q 313 1254 310 1201 l 406 1254 q 281 1111 406 1111 q 185 1142 240 1111 q 113 1167 132 1167 q 67 1113 68 1167 l -28 1113 z "},"ĩ":{"ha":324,"x_min":-54,"x_max":379,"o":"m 103 669 l 222 669 l 222 0 l 103 0 l 103 669 m -54 810 q 76 957 -54 957 q 171 925 111 957 q 242 899 214 899 q 286 951 283 899 l 379 951 q 254 808 379 808 q 158 839 214 808 q 86 864 106 864 q 40 810 42 864 l -54 810 z "},"Ī":{"ha":378,"x_min":-4,"x_max":381,"o":"m -4 1219 l 381 1219 l 381 1117 l -4 1117 l -4 1219 m 251 972 l 251 0 l 125 0 l 125 972 l 251 972 z "},"ī":{"ha":324,"x_min":-31,"x_max":354,"o":"m -31 917 l 354 917 l 354 814 l -31 814 l -31 917 m 222 669 l 222 0 l 103 0 l 103 669 l 222 669 z "},"Ĭ":{"ha":378,"x_min":4,"x_max":375,"o":"m 251 0 l 125 0 l 125 972 l 251 972 l 251 0 m 97 1269 q 189 1188 104 1188 q 282 1269 275 1188 l 375 1269 q 326 1140 372 1186 q 189 1090 274 1090 q 56 1142 103 1090 q 4 1269 6 1193 l 97 1269 z "},"ĭ":{"ha":324,"x_min":-22,"x_max":349,"o":"m 222 0 l 103 0 l 103 669 l 222 669 l 222 0 m 71 967 q 163 885 78 885 q 256 967 249 885 l 349 967 q 300 838 346 883 q 163 788 247 788 q 29 839 76 788 q -22 967 -21 890 l 71 967 z "},"Į":{"ha":378,"x_min":36,"x_max":251,"o":"m 125 972 l 251 972 l 251 0 q 138 -117 138 -54 q 208 -176 138 -176 q 251 -171 236 -176 l 251 -257 q 185 -267 233 -267 q 79 -232 119 -267 q 36 -139 36 -197 q 125 3 36 -51 l 125 972 z "},"į":{"ha":324,"x_min":7,"x_max":231,"o":"m 103 669 l 222 669 l 222 0 q 108 -117 108 -46 q 179 -176 108 -176 q 222 -171 207 -176 l 222 -257 q 157 -267 203 -267 q 50 -232 90 -267 q 7 -137 7 -197 q 103 3 7 -51 l 103 669 m 231 939 l 231 796 l 92 796 l 92 939 l 231 939 z "},"İ":{"ha":378,"x_min":118,"x_max":257,"o":"m 118 1242 l 257 1242 l 257 1099 l 118 1099 l 118 1242 m 251 972 l 251 0 l 125 0 l 125 972 l 251 972 z "},"ı":{"ha":324,"x_min":103,"x_max":222,"o":"m 222 669 l 222 0 l 103 0 l 103 669 l 222 669 z "},"Ĳ":{"ha":1144,"x_min":125,"x_max":1029,"o":"m 535 300 q 715 85 539 85 q 901 300 901 85 l 901 972 l 1029 972 l 1029 293 q 943 64 1029 150 q 711 -21 858 -21 q 486 67 567 -21 q 406 300 407 151 l 535 300 m 251 972 l 251 0 l 125 0 l 125 972 l 251 972 z "},"ĳ":{"ha":658,"x_min":93,"x_max":564,"o":"m 303 -201 q 338 -207 315 -207 q 436 -93 436 -207 l 436 669 l 556 669 l 556 -129 q 511 -260 556 -203 q 369 -315 468 -315 q 303 -308 338 -315 l 303 -201 m 222 669 l 222 0 l 103 0 l 103 669 l 222 669 m 564 939 l 564 796 l 426 796 l 426 939 l 564 939 m 93 939 l 231 939 l 231 796 l 93 796 l 93 939 z "},"Ĵ":{"ha":767,"x_min":28,"x_max":790,"o":"m 157 300 q 338 85 161 85 q 524 300 524 85 l 524 972 l 651 972 l 651 293 q 565 64 651 150 q 333 -21 481 -21 q 108 67 185 -21 q 28 300 31 153 l 157 300 m 661 1269 l 790 1099 l 672 1099 l 631 1150 q 588 1201 618 1169 q 563 1174 574 1188 q 543 1149 553 1161 l 503 1099 l 386 1099 l 515 1269 l 661 1269 z "},"ĵ":{"ha":335,"x_min":-29,"x_max":375,"o":"m -21 -201 q 14 -207 -8 -207 q 113 -93 113 -207 l 113 669 l 232 669 l 232 -129 q 188 -260 232 -203 q 46 -315 144 -315 q -21 -308 14 -315 l -21 -201 m 100 967 l 246 967 l 375 796 l 257 796 l 215 847 q 172 899 203 867 q 148 872 158 885 q 128 846 138 858 l 88 796 l -29 796 l 100 967 z "},"Ķ":{"ha":864,"x_min":125,"x_max":888,"o":"m 250 972 l 250 546 l 665 972 l 822 972 l 392 531 l 888 0 l 717 0 l 306 443 l 250 386 l 250 0 l 125 0 l 125 972 l 250 972 m 394 -325 q 458 -236 458 -315 l 396 -236 l 396 -112 l 535 -112 l 535 -232 q 394 -394 535 -383 l 394 -325 z "},"ķ":{"ha":681,"x_min":103,"x_max":692,"o":"m 222 972 l 222 385 q 275 438 247 413 l 503 669 l 653 669 l 361 385 l 692 0 l 529 0 l 279 304 l 222 249 l 222 0 l 103 0 l 103 972 l 222 972 m 297 -325 q 361 -236 361 -315 l 299 -236 l 299 -112 l 438 -112 l 438 -232 q 297 -394 438 -383 l 297 -325 z "},"Ĺ":{"ha":772,"x_min":125,"x_max":758,"o":"m 135 1090 l 233 1269 l 382 1269 l 235 1090 l 135 1090 m 125 0 l 125 972 l 251 972 l 251 107 l 758 107 l 758 0 l 125 0 z "},"ĺ":{"ha":324,"x_min":103,"x_max":356,"o":"m 356 1269 l 208 1090 l 108 1090 l 207 1269 l 356 1269 m 222 972 l 222 0 l 103 0 l 103 972 l 222 972 z "},"Ļ":{"ha":772,"x_min":125,"x_max":758,"o":"m 125 972 l 251 972 l 251 107 l 758 107 l 758 0 l 125 0 l 125 972 m 372 -325 q 436 -236 436 -315 l 374 -236 l 374 -112 l 513 -112 l 513 -232 q 372 -394 513 -383 l 372 -325 z "},"ļ":{"ha":324,"x_min":93,"x_max":233,"o":"m 103 972 l 222 972 l 222 0 l 103 0 l 103 972 m 93 -325 q 157 -236 157 -315 l 94 -236 l 94 -112 l 233 -112 l 233 -232 q 93 -394 233 -383 l 93 -325 z "},"Ľ":{"ha":772,"x_min":125,"x_max":758,"o":"m 125 972 l 251 972 l 251 107 l 758 107 l 758 0 l 125 0 l 125 972 m 432 760 q 496 849 496 769 l 433 849 l 433 972 l 572 972 l 572 853 q 432 690 572 701 l 432 760 z "},"ľ":{"ha":419,"x_min":103,"x_max":436,"o":"m 222 972 l 222 0 l 103 0 l 103 972 l 222 972 m 296 760 q 360 849 360 769 l 297 849 l 297 972 l 436 972 l 436 853 q 296 690 436 701 l 296 760 z "},"Ŀ":{"ha":772,"x_min":125,"x_max":758,"o":"m 125 0 l 125 972 l 251 972 l 251 107 l 758 107 l 758 0 l 125 0 m 467 394 l 467 556 l 625 556 l 625 394 l 467 394 z "},"ŀ":{"ha":522,"x_min":103,"x_max":501,"o":"m 222 972 l 222 0 l 103 0 l 103 972 l 222 972 m 343 419 l 343 581 l 501 581 l 501 419 l 343 419 z "},"Ł":{"ha":794,"x_min":51,"x_max":776,"o":"m 51 422 l 143 463 l 143 972 l 269 972 l 269 519 l 496 619 l 496 508 l 269 408 l 269 107 l 776 107 l 776 0 l 143 0 l 143 353 l 51 313 l 51 422 z "},"ł":{"ha":440,"x_min":50,"x_max":403,"o":"m 50 406 l 164 456 l 164 972 l 283 972 l 283 508 l 403 561 l 403 451 l 283 399 l 283 0 l 164 0 l 164 344 l 50 294 l 50 406 z "},"Ń":{"ha":1061,"x_min":125,"x_max":936,"o":"m 125 972 l 315 972 l 808 143 l 808 972 l 936 972 l 936 0 l 760 0 l 251 850 l 251 0 l 125 0 l 125 972 m 594 1269 l 743 1269 l 596 1090 l 496 1090 l 594 1269 z "},"ń":{"ha":769,"x_min":103,"x_max":675,"o":"m 222 579 q 428 692 290 692 q 610 621 544 692 q 675 422 675 549 l 675 0 l 556 0 l 556 407 q 408 597 556 597 q 274 542 324 597 q 222 403 222 486 l 222 0 l 103 0 l 103 669 l 222 669 l 222 579 m 590 967 l 443 788 l 343 788 l 442 967 l 590 967 z "},"Ņ":{"ha":1061,"x_min":125,"x_max":936,"o":"m 808 143 l 808 972 l 936 972 l 936 0 l 760 0 l 251 850 l 251 0 l 125 0 l 125 972 l 315 972 l 808 143 m 482 -325 q 546 -236 546 -315 l 483 -236 l 483 -112 l 622 -112 l 622 -232 q 482 -394 622 -383 l 482 -325 z "},"ņ":{"ha":769,"x_min":103,"x_max":675,"o":"m 222 579 q 428 692 290 692 q 610 621 544 692 q 675 422 675 549 l 675 0 l 556 0 l 556 407 q 408 597 556 597 q 274 542 324 597 q 222 403 222 486 l 222 0 l 103 0 l 103 669 l 222 669 l 222 579 m 319 -325 q 383 -236 383 -315 l 321 -236 l 321 -112 l 460 -112 l 460 -232 q 319 -394 460 -383 l 319 -325 z "},"Ň":{"ha":1061,"x_min":125,"x_max":936,"o":"m 808 143 l 808 972 l 936 972 l 936 0 l 760 0 l 251 850 l 251 0 l 125 0 l 125 972 l 315 972 l 808 143 m 464 1269 l 549 1167 q 569 1190 558 1176 q 592 1218 579 1203 l 633 1269 l 751 1269 l 622 1099 l 476 1099 l 347 1269 l 464 1269 z "},"ň":{"ha":769,"x_min":103,"x_max":675,"o":"m 103 669 l 222 669 l 222 579 q 428 692 290 692 q 610 621 544 692 q 675 422 675 549 l 675 0 l 556 0 l 556 407 q 408 597 556 597 q 274 542 324 597 q 222 403 222 486 l 222 0 l 103 0 l 103 669 m 396 864 q 422 892 411 879 q 439 915 432 906 l 481 967 l 599 967 l 469 796 l 324 796 l 194 967 l 311 967 l 396 864 z "},"Ŋ":{"ha":1061,"x_min":125,"x_max":936,"o":"m 125 972 l 314 972 l 808 193 l 808 972 l 936 972 l 936 -135 q 894 -254 936 -204 q 749 -315 842 -315 q 646 -300 707 -315 l 646 -186 q 718 -197 690 -197 q 817 -78 817 -197 l 817 -33 l 251 851 l 251 0 l 125 0 l 125 972 z "},"ŋ":{"ha":769,"x_min":103,"x_max":675,"o":"m 222 669 l 222 579 q 428 692 290 692 q 610 621 544 692 q 675 422 675 549 l 675 -135 q 633 -254 675 -204 q 488 -315 581 -315 q 385 -300 446 -315 l 385 -186 q 457 -197 429 -197 q 556 -78 556 -197 l 556 407 q 408 597 556 597 q 274 542 324 597 q 222 403 222 486 l 222 0 l 103 0 l 103 669 l 222 669 z "},"Ō":{"ha":1053,"x_min":65,"x_max":988,"o":"m 292 931 q 526 994 393 994 q 928 751 803 994 q 988 486 988 638 q 763 43 988 179 q 526 -21 657 -21 q 126 221 253 -21 q 65 486 65 336 q 292 931 65 796 m 199 486 q 289 193 199 304 q 526 85 378 85 q 764 193 674 85 q 854 486 854 304 q 764 779 854 668 q 526 888 674 888 q 240 700 325 888 q 199 486 199 608 m 333 1219 l 718 1219 l 718 1117 l 333 1117 l 333 1219 z "},"ō":{"ha":778,"x_min":60,"x_max":718,"o":"m 151 592 q 389 692 244 692 q 676 521 586 692 q 718 336 718 439 q 625 78 718 176 q 389 -21 531 -21 q 151 78 243 -21 q 60 336 60 178 q 151 592 60 493 m 239 144 q 389 72 294 72 q 539 144 483 72 q 594 336 594 214 q 539 526 594 454 q 389 597 482 597 q 240 526 296 597 q 183 336 183 453 q 239 144 183 214 m 196 917 l 581 917 l 581 814 l 196 814 l 196 917 z "},"Ŏ":{"ha":1053,"x_min":65,"x_max":988,"o":"m 292 931 q 526 994 393 994 q 928 751 803 994 q 988 486 988 638 q 763 43 988 179 q 526 -21 657 -21 q 126 221 253 -21 q 65 486 65 336 q 292 931 65 796 m 199 486 q 289 193 199 304 q 526 85 378 85 q 764 193 674 85 q 854 486 854 304 q 764 779 854 668 q 526 888 674 888 q 240 700 325 888 q 199 486 199 608 m 435 1269 q 526 1188 442 1188 q 619 1269 613 1188 l 713 1269 q 664 1140 710 1186 q 526 1090 611 1090 q 393 1142 443 1090 q 342 1269 344 1190 l 435 1269 z "},"ŏ":{"ha":778,"x_min":60,"x_max":718,"o":"m 151 592 q 389 692 244 692 q 676 521 586 692 q 718 336 718 439 q 625 78 718 176 q 389 -21 531 -21 q 151 78 243 -21 q 60 336 60 178 q 151 592 60 493 m 183 336 q 239 144 183 214 q 389 72 294 72 q 539 144 483 72 q 594 336 594 214 q 539 526 594 454 q 389 597 482 597 q 240 526 296 597 q 183 336 183 453 m 297 967 q 389 885 304 885 q 482 967 475 885 l 575 967 q 526 838 572 883 q 389 788 474 788 q 256 839 306 788 q 204 967 207 888 l 297 967 z "},"Ő":{"ha":1053,"x_min":65,"x_max":988,"o":"m 65 486 q 292 931 65 796 q 526 994 393 994 q 928 751 803 994 q 988 486 988 638 q 763 43 988 179 q 526 -21 657 -21 q 126 221 249 -21 q 65 486 65 336 m 289 193 q 526 85 378 85 q 764 193 674 85 q 854 486 854 304 q 764 779 854 668 q 526 888 674 888 q 290 779 379 888 q 199 486 199 668 q 289 193 199 304 m 639 1269 l 774 1269 l 654 1090 l 568 1090 l 639 1269 m 453 1269 l 583 1269 l 475 1090 l 394 1090 l 453 1269 z "},"ő":{"ha":778,"x_min":60,"x_max":718,"o":"m 151 592 q 389 692 244 692 q 676 521 586 692 q 718 336 718 439 q 625 78 718 176 q 389 -21 531 -21 q 151 78 243 -21 q 60 336 60 178 q 151 592 60 493 m 239 144 q 389 72 294 72 q 539 144 483 72 q 594 336 594 214 q 539 526 594 454 q 389 597 482 597 q 240 526 296 597 q 183 336 183 453 q 239 144 183 214 m 501 967 l 636 967 l 517 788 l 431 788 l 501 967 m 315 967 l 446 967 l 338 788 l 257 788 l 315 967 z "},"Œ":{"ha":1253,"x_min":64,"x_max":1182,"o":"m 314 914 q 558 972 426 972 l 1167 972 l 1167 867 l 731 867 l 731 561 l 1143 561 l 1143 454 l 731 454 l 731 107 l 1182 107 l 1182 0 l 558 0 q 133 231 276 0 q 64 486 64 342 q 314 914 64 782 m 197 486 q 378 151 197 249 q 558 107 460 107 l 604 107 l 604 867 l 558 867 q 247 690 347 867 q 197 486 197 604 z "},"œ":{"ha":1286,"x_min":60,"x_max":1225,"o":"m 60 336 q 151 592 60 493 q 389 692 244 692 q 657 551 567 692 q 915 692 749 692 q 1144 596 1063 692 q 1225 336 1225 503 l 1225 313 l 718 313 q 778 136 721 201 q 924 72 833 72 q 1100 207 1079 72 l 1219 207 q 1133 46 1208 111 q 924 -21 1056 -21 q 653 111 736 -21 q 389 -21 558 -21 q 101 150 186 -21 q 60 336 60 231 m 239 144 q 389 72 294 72 q 539 144 483 72 q 594 336 594 214 q 538 526 594 454 q 389 597 481 597 q 240 526 296 597 q 183 336 183 454 q 239 144 183 214 m 1097 397 q 1050 543 1097 492 q 917 597 1001 597 q 782 540 835 597 q 722 397 729 483 l 1097 397 z "},"Ŕ":{"ha":924,"x_min":125,"x_max":842,"o":"m 538 972 q 761 906 679 972 q 842 717 842 838 q 789 567 842 632 q 663 481 736 504 q 778 410 733 468 q 821 258 821 350 l 821 0 l 694 0 l 694 224 q 649 382 694 338 q 490 425 601 425 l 251 425 l 251 0 l 125 0 l 125 972 l 538 972 m 507 532 q 713 701 713 532 q 507 867 713 867 l 251 867 l 251 532 l 507 532 m 513 1269 l 661 1269 l 514 1090 l 414 1090 l 513 1269 z "},"ŕ":{"ha":482,"x_min":103,"x_max":467,"o":"m 222 669 l 222 558 q 432 692 281 692 q 463 690 458 692 l 463 572 q 441 574 450 574 q 425 575 432 575 q 222 354 222 575 l 222 0 l 103 0 l 103 669 l 222 669 m 467 967 l 319 788 l 219 788 l 318 967 l 467 967 z "},"Ŗ":{"ha":924,"x_min":125,"x_max":842,"o":"m 538 972 q 761 906 679 972 q 842 717 842 838 q 789 567 842 632 q 663 481 736 504 q 778 410 733 468 q 821 258 821 350 l 821 0 l 694 0 l 694 224 q 649 382 694 338 q 490 425 601 425 l 251 425 l 251 0 l 125 0 l 125 972 l 538 972 m 507 532 q 713 701 713 532 q 507 867 713 867 l 251 867 l 251 532 l 507 532 m 419 -325 q 483 -236 483 -315 l 421 -236 l 421 -112 l 560 -112 l 560 -232 q 419 -394 560 -383 l 419 -325 z "},"ŗ":{"ha":482,"x_min":93,"x_max":463,"o":"m 222 558 q 432 692 281 692 q 463 690 458 692 l 463 572 q 441 574 450 574 q 425 575 432 575 q 222 354 222 575 l 222 0 l 103 0 l 103 669 l 222 669 l 222 558 m 93 -325 q 157 -236 157 -315 l 94 -236 l 94 -112 l 233 -112 l 233 -232 q 93 -394 233 -383 l 93 -325 z "},"Ř":{"ha":924,"x_min":125,"x_max":842,"o":"m 538 972 q 761 906 679 972 q 842 717 842 838 q 789 567 842 632 q 663 481 736 504 q 778 410 733 468 q 821 258 821 350 l 821 0 l 694 0 l 694 224 q 649 382 694 338 q 490 425 601 425 l 251 425 l 251 0 l 125 0 l 125 972 l 538 972 m 507 532 q 713 701 713 532 q 507 867 713 867 l 251 867 l 251 532 l 507 532 m 382 1269 l 467 1167 q 487 1190 476 1176 q 510 1218 497 1203 l 551 1269 l 669 1269 l 540 1099 l 394 1099 l 265 1269 l 382 1269 z "},"ř":{"ha":482,"x_min":71,"x_max":475,"o":"m 222 669 l 222 558 q 432 692 281 692 q 463 690 458 692 l 463 572 q 441 574 450 574 q 425 575 432 575 q 222 354 222 575 l 222 0 l 103 0 l 103 669 l 222 669 m 272 864 q 292 887 282 874 q 315 915 303 900 l 357 967 l 475 967 l 346 796 l 200 796 l 71 967 l 188 967 l 272 864 z "},"Ś":{"ha":885,"x_min":53,"x_max":828,"o":"m 182 313 q 260 146 189 207 q 447 85 332 85 q 629 133 564 85 q 694 261 694 182 q 501 422 694 379 l 357 456 q 86 724 86 518 q 188 918 86 842 q 442 994 289 994 q 697 915 599 994 q 803 700 794 835 l 674 700 q 603 838 667 785 q 439 888 540 888 q 282 844 342 888 q 219 735 219 800 q 389 575 219 615 l 561 536 q 828 269 828 474 q 725 64 828 146 q 446 -21 618 -21 q 163 69 269 -21 q 53 313 56 158 l 182 313 m 486 1269 l 635 1269 l 488 1090 l 388 1090 l 486 1269 z "},"ś":{"ha":671,"x_min":50,"x_max":611,"o":"m 167 221 q 339 72 174 72 q 451 103 408 72 q 493 182 493 132 q 376 285 493 261 l 275 304 q 71 494 71 342 q 144 636 71 579 q 331 692 217 692 q 597 476 582 692 l 479 476 q 322 597 464 597 q 226 571 261 597 q 190 501 190 543 q 304 407 190 429 l 408 388 q 611 194 611 350 q 538 42 611 103 q 338 -21 460 -21 q 129 46 206 -21 q 50 221 51 110 l 167 221 m 375 967 l 524 967 l 376 788 l 276 788 l 375 967 z "},"Ŝ":{"ha":885,"x_min":53,"x_max":828,"o":"m 182 313 q 260 146 189 207 q 447 85 332 85 q 629 133 564 85 q 694 261 694 182 q 501 422 694 379 l 357 456 q 86 724 86 518 q 188 918 86 842 q 442 994 289 994 q 697 915 599 994 q 803 700 794 835 l 674 700 q 603 838 667 785 q 439 888 540 888 q 282 844 342 888 q 219 735 219 800 q 389 575 219 615 l 561 536 q 828 269 828 474 q 725 64 828 146 q 446 -21 618 -21 q 103 136 206 -21 q 53 313 54 211 l 182 313 m 515 1269 l 644 1099 l 526 1099 l 485 1150 q 442 1201 472 1169 q 417 1174 428 1188 q 397 1149 407 1161 l 357 1099 l 240 1099 l 369 1269 l 515 1269 z "},"ŝ":{"ha":671,"x_min":50,"x_max":611,"o":"m 167 221 q 339 72 174 72 q 451 103 408 72 q 493 182 493 132 q 376 285 493 261 l 275 304 q 71 494 71 342 q 144 636 71 579 q 331 692 217 692 q 597 476 582 692 l 479 476 q 322 597 464 597 q 226 571 261 597 q 190 501 190 543 q 304 407 190 429 l 408 388 q 611 194 611 350 q 538 42 611 103 q 338 -21 460 -21 q 129 46 206 -21 q 50 221 51 110 l 167 221 m 404 967 l 533 796 l 415 796 l 374 847 q 331 899 361 867 q 306 872 317 885 q 286 846 296 858 l 246 796 l 129 796 l 258 967 l 404 967 z "},"Ş":{"ha":885,"x_min":53,"x_max":828,"o":"m 182 313 q 260 146 189 207 q 447 85 332 85 q 629 133 564 85 q 694 261 694 182 q 501 422 694 379 l 357 456 q 86 724 86 518 q 188 918 86 842 q 442 994 289 994 q 697 915 599 994 q 803 700 794 835 l 674 700 q 603 838 667 785 q 439 888 540 888 q 282 844 342 888 q 219 735 219 800 q 389 575 219 615 l 561 536 q 828 269 828 474 q 736 74 828 153 q 486 -19 643 -8 l 449 -76 q 538 -104 501 -76 q 571 -179 571 -133 q 533 -262 571 -232 q 425 -296 493 -296 q 283 -236 335 -296 l 331 -179 q 422 -222 374 -222 q 482 -179 482 -222 q 425 -139 482 -139 q 389 -146 410 -139 l 347 -96 l 397 -19 q 147 82 240 -7 q 53 313 54 172 l 182 313 z "},"ş":{"ha":671,"x_min":50,"x_max":611,"o":"m 167 221 q 339 72 174 72 q 451 103 408 72 q 493 182 493 132 q 376 285 493 261 l 275 304 q 71 494 71 342 q 144 636 71 579 q 331 692 217 692 q 597 476 582 692 l 479 476 q 322 597 464 597 q 226 571 261 597 q 190 501 190 543 q 304 407 190 429 l 408 388 q 611 194 611 350 q 551 53 611 111 q 386 -18 489 -6 l 347 -76 q 436 -104 400 -76 q 469 -179 469 -133 q 432 -262 469 -232 q 324 -296 392 -296 q 182 -236 233 -296 l 229 -179 q 321 -222 272 -222 q 381 -179 381 -222 q 324 -139 381 -139 q 288 -146 308 -139 l 246 -96 l 296 -19 q 117 57 182 -8 q 50 221 53 121 l 167 221 z "},"Š":{"ha":885,"x_min":53,"x_max":828,"o":"m 182 313 q 260 146 189 207 q 447 85 332 85 q 629 133 564 85 q 694 261 694 182 q 501 422 694 379 l 357 456 q 86 724 86 518 q 188 918 86 842 q 442 994 289 994 q 697 915 599 994 q 803 700 794 835 l 674 700 q 603 838 667 785 q 439 888 540 888 q 282 844 342 888 q 219 735 219 800 q 389 575 219 615 l 561 536 q 828 269 828 474 q 725 64 828 146 q 446 -21 618 -21 q 103 136 206 -21 q 53 313 54 211 l 182 313 m 440 1167 q 460 1190 450 1176 q 483 1218 471 1203 l 525 1269 l 643 1269 l 514 1099 l 368 1099 l 239 1269 l 356 1269 l 440 1167 z "},"š":{"ha":671,"x_min":50,"x_max":611,"o":"m 167 221 q 339 72 174 72 q 451 103 408 72 q 493 182 493 132 q 376 285 493 261 l 275 304 q 71 494 71 342 q 144 636 71 579 q 331 692 217 692 q 597 476 582 692 l 479 476 q 322 597 464 597 q 226 571 261 597 q 190 501 190 543 q 304 407 190 429 l 408 388 q 611 194 611 350 q 538 42 611 103 q 338 -21 460 -21 q 129 46 206 -21 q 50 221 51 110 l 167 221 m 244 967 l 329 864 q 355 892 344 879 q 372 915 365 906 l 414 967 l 532 967 l 403 796 l 257 796 l 128 967 l 244 967 z "},"Ţ":{"ha":824,"x_min":13,"x_max":810,"o":"m 810 867 l 475 867 l 475 0 l 457 0 l 407 -76 q 496 -104 460 -76 q 529 -179 529 -133 q 492 -262 529 -232 q 383 -296 451 -296 q 242 -236 293 -296 l 289 -179 q 381 -222 332 -222 q 440 -179 440 -222 q 383 -139 440 -139 q 347 -146 368 -139 l 306 -96 l 367 0 l 349 0 l 349 867 l 13 867 l 13 972 l 810 972 l 810 867 z "},"ţ":{"ha":458,"x_min":25,"x_max":418,"o":"m 150 890 l 269 890 l 269 669 l 408 669 l 408 571 l 269 571 l 269 203 q 368 100 269 100 q 418 104 389 100 l 418 1 q 340 -7 381 -7 l 332 -7 l 286 -76 q 375 -104 339 -76 q 408 -179 408 -133 q 371 -262 408 -232 q 263 -296 331 -296 q 121 -236 172 -296 l 168 -179 q 260 -222 211 -222 q 319 -179 319 -222 q 263 -139 319 -139 q 226 -146 247 -139 l 185 -96 l 251 8 q 150 190 150 51 l 150 571 l 25 571 l 25 669 l 150 669 l 150 890 z "},"Ť":{"ha":824,"x_min":13,"x_max":810,"o":"m 810 867 l 475 867 l 475 0 l 349 0 l 349 867 l 13 867 l 13 972 l 810 972 l 810 867 m 410 1167 q 435 1195 425 1182 q 453 1218 446 1208 l 494 1269 l 613 1269 l 483 1099 l 338 1099 l 208 1269 l 325 1269 l 410 1167 z "},"ť":{"ha":458,"x_min":25,"x_max":474,"o":"m 150 890 l 269 890 l 269 669 l 408 669 l 408 571 l 269 571 l 269 203 q 368 100 269 100 q 418 104 389 100 l 418 1 q 340 -7 381 -7 q 150 190 150 -7 l 150 571 l 25 571 l 25 669 l 150 669 l 150 890 m 333 972 l 474 972 l 474 871 q 432 767 474 800 q 335 726 389 732 l 335 785 q 399 863 399 803 l 333 863 l 333 972 z "},"Ŧ":{"ha":824,"x_min":13,"x_max":810,"o":"m 13 972 l 810 972 l 810 867 l 475 867 l 475 538 l 685 538 l 685 435 l 475 435 l 475 0 l 349 0 l 349 435 l 138 435 l 138 538 l 349 538 l 349 867 l 13 867 l 13 972 z "},"ŧ":{"ha":465,"x_min":32,"x_max":425,"o":"m 157 890 l 276 890 l 276 669 l 415 669 l 415 571 l 276 571 l 276 419 l 382 419 l 382 318 l 276 318 l 276 203 q 375 100 276 100 q 425 104 396 100 l 425 1 q 347 -7 388 -7 q 157 190 157 -7 l 157 318 l 51 318 l 51 419 l 157 419 l 157 571 l 32 571 l 32 669 l 157 669 l 157 890 z "},"Ũ":{"ha":963,"x_min":115,"x_max":847,"o":"m 242 972 l 242 396 q 481 85 242 85 q 721 396 721 85 l 721 972 l 847 972 l 847 379 q 751 79 847 181 q 481 -21 657 -21 q 211 79 304 -21 q 115 379 115 181 l 115 972 l 242 972 m 264 1113 q 394 1260 264 1260 q 489 1228 429 1260 q 560 1201 532 1201 q 604 1254 601 1201 l 697 1254 q 572 1111 697 1111 q 476 1142 532 1111 q 404 1167 424 1167 q 358 1113 360 1167 l 264 1113 z "},"ũ":{"ha":758,"x_min":94,"x_max":656,"o":"m 214 268 q 367 72 214 72 q 538 300 538 72 l 538 669 l 656 669 l 656 0 l 539 0 l 539 93 q 336 -21 488 -21 q 94 243 94 -21 l 94 669 l 214 669 l 214 268 m 165 810 q 296 957 165 957 q 390 925 331 957 q 461 899 433 899 q 506 951 503 899 l 599 951 q 474 808 599 808 q 378 839 433 808 q 306 864 325 864 q 260 810 261 864 l 165 810 z "},"Ū":{"ha":963,"x_min":115,"x_max":847,"o":"m 242 972 l 242 396 q 481 85 242 85 q 721 396 721 85 l 721 972 l 847 972 l 847 379 q 751 79 847 181 q 481 -21 657 -21 q 211 79 304 -21 q 115 379 115 181 l 115 972 l 242 972 m 672 1117 l 288 1117 l 288 1219 l 672 1219 l 672 1117 z "},"ū":{"ha":758,"x_min":94,"x_max":656,"o":"m 214 268 q 367 72 214 72 q 538 300 538 72 l 538 669 l 656 669 l 656 0 l 539 0 l 539 93 q 336 -21 488 -21 q 94 243 94 -21 l 94 669 l 214 669 l 214 268 m 574 917 l 574 814 l 189 814 l 189 917 l 574 917 z "},"Ŭ":{"ha":963,"x_min":115,"x_max":847,"o":"m 242 972 l 242 396 q 481 85 242 85 q 721 396 721 85 l 721 972 l 847 972 l 847 379 q 751 79 847 181 q 481 -21 657 -21 q 211 79 304 -21 q 115 379 115 181 l 115 972 l 242 972 m 389 1269 q 481 1188 396 1188 q 574 1269 567 1188 l 667 1269 q 618 1140 664 1186 q 481 1090 565 1090 q 347 1142 394 1090 q 296 1269 297 1193 l 389 1269 z "},"ŭ":{"ha":758,"x_min":94,"x_max":656,"o":"m 94 669 l 214 669 l 214 268 q 367 72 214 72 q 538 300 538 72 l 538 669 l 656 669 l 656 0 l 539 0 l 539 93 q 336 -21 488 -21 q 157 47 217 -21 q 94 243 94 115 l 94 669 m 290 967 q 382 885 297 885 q 475 967 468 885 l 568 967 q 519 838 565 883 q 382 788 467 788 q 249 839 299 788 q 197 967 200 888 l 290 967 z "},"Ů":{"ha":963,"x_min":115,"x_max":847,"o":"m 242 396 q 481 85 242 85 q 721 396 721 85 l 721 972 l 847 972 l 847 379 q 751 79 847 181 q 481 -21 657 -21 q 211 79 304 -21 q 115 379 115 181 l 115 972 l 242 972 l 242 396 m 394 1260 q 481 1294 429 1294 q 567 1260 532 1294 q 603 1171 603 1224 q 567 1083 603 1119 q 481 1050 531 1050 q 394 1083 429 1050 q 358 1171 358 1119 q 394 1260 358 1224 m 481 1117 q 531 1171 531 1117 q 481 1226 531 1226 q 431 1171 431 1226 q 481 1117 431 1117 z "},"ů":{"ha":758,"x_min":94,"x_max":656,"o":"m 214 268 q 367 72 214 72 q 538 300 538 72 l 538 669 l 656 669 l 656 0 l 539 0 l 539 93 q 336 -21 488 -21 q 94 243 94 -21 l 94 669 l 214 669 l 214 268 m 260 868 q 296 957 260 921 q 382 992 331 992 q 468 957 433 992 q 504 868 504 921 q 468 781 504 817 q 382 747 432 747 q 296 782 331 747 q 260 868 260 815 m 382 814 q 432 868 432 814 q 382 924 432 924 q 332 868 332 924 q 382 814 332 814 z "},"Ű":{"ha":963,"x_min":115,"x_max":847,"o":"m 242 972 l 242 396 q 481 85 242 85 q 721 396 721 85 l 721 972 l 847 972 l 847 379 q 751 79 847 181 q 481 -21 657 -21 q 211 79 304 -21 q 115 379 115 181 l 115 972 l 242 972 m 593 1269 l 728 1269 l 608 1090 l 522 1090 l 593 1269 m 538 1269 l 429 1090 l 349 1090 l 407 1269 l 538 1269 z "},"ű":{"ha":758,"x_min":94,"x_max":656,"o":"m 94 669 l 214 669 l 214 268 q 367 72 214 72 q 538 300 538 72 l 538 669 l 656 669 l 656 0 l 539 0 l 539 93 q 336 -21 488 -21 q 157 47 217 -21 q 94 243 94 115 l 94 669 m 629 967 l 510 788 l 424 788 l 494 967 l 629 967 m 308 967 l 439 967 l 331 788 l 250 788 l 308 967 z "},"Ų":{"ha":963,"x_min":115,"x_max":847,"o":"m 242 396 q 481 85 242 85 q 721 396 721 85 l 721 972 l 847 972 l 847 379 q 596 -8 847 54 q 475 -117 475 -40 q 549 -176 475 -176 q 589 -171 574 -176 l 589 -257 q 525 -267 569 -267 q 417 -232 457 -267 q 374 -139 374 -197 q 446 -21 374 -64 q 115 379 115 1 l 115 972 l 242 972 l 242 396 z "},"ų":{"ha":758,"x_min":94,"x_max":656,"o":"m 94 669 l 214 669 l 214 268 q 367 72 214 72 q 538 300 538 72 l 538 669 l 656 669 l 656 0 q 542 -117 542 -46 q 613 -176 542 -176 q 656 -171 640 -176 l 656 -257 q 590 -267 636 -267 q 483 -232 524 -267 q 440 -137 440 -197 q 539 4 440 -49 l 539 93 q 336 -21 488 -21 q 157 47 217 -21 q 94 243 94 115 l 94 669 z "},"Ŵ":{"ha":1338,"x_min":21,"x_max":1317,"o":"m 151 972 l 371 153 l 382 193 l 403 265 l 593 972 l 751 972 l 939 265 q 953 215 946 243 q 969 151 961 186 l 1193 972 l 1317 972 l 1053 0 l 899 0 l 671 857 l 638 728 l 440 0 l 285 0 l 21 972 l 151 972 m 746 1269 l 875 1099 l 757 1099 l 715 1150 q 694 1177 704 1164 q 672 1201 683 1190 q 648 1174 658 1188 q 628 1149 638 1161 l 588 1099 l 471 1099 l 600 1269 l 746 1269 z "},"ŵ":{"ha":1088,"x_min":19,"x_max":1067,"o":"m 149 669 l 294 174 q 308 128 308 132 l 324 174 l 471 669 l 619 669 l 788 133 l 801 176 l 946 669 l 1067 669 l 851 0 l 713 0 l 544 554 l 375 0 l 238 0 l 19 669 l 149 669 m 619 967 l 749 796 l 631 796 l 589 847 q 546 899 576 867 q 522 872 532 885 q 501 846 511 858 l 461 796 l 344 796 l 474 967 l 619 967 z "},"Ŷ":{"ha":821,"x_min":11,"x_max":810,"o":"m 153 972 l 382 575 q 405 534 399 546 q 408 528 411 522 q 438 576 419 546 q 479 646 456 606 l 672 972 l 810 972 l 472 419 l 472 0 l 346 0 l 346 419 l 11 972 l 153 972 m 488 1269 l 617 1099 l 499 1099 l 457 1150 q 414 1201 444 1169 q 390 1174 400 1188 q 369 1149 379 1161 l 329 1099 l 213 1099 l 342 1269 l 488 1269 z "},"ŷ":{"ha":668,"x_min":19,"x_max":651,"o":"m 151 669 l 350 160 l 526 669 l 651 669 l 292 -293 l 165 -293 l 288 24 l 19 669 l 151 669 m 413 967 l 542 796 l 424 796 l 382 847 q 360 874 371 861 q 339 899 350 888 q 315 872 325 885 q 294 846 304 858 l 254 796 l 138 796 l 267 967 l 413 967 z "},"Ÿ":{"ha":821,"x_min":11,"x_max":810,"o":"m 153 972 l 382 575 q 405 534 399 546 q 408 528 411 522 q 438 576 419 546 q 479 646 456 606 l 672 972 l 810 972 l 472 419 l 472 0 l 346 0 l 346 419 l 11 972 l 153 972 m 343 1242 l 343 1099 l 204 1099 l 204 1242 l 343 1242 m 622 1099 l 485 1099 l 485 1242 l 622 1242 l 622 1099 z "},"Ź":{"ha":824,"x_min":47,"x_max":781,"o":"m 621 867 l 71 867 l 71 972 l 764 972 l 764 858 l 186 107 l 781 107 l 781 0 l 47 0 l 47 118 l 621 867 m 618 1269 l 471 1090 l 371 1090 l 469 1269 l 618 1269 z "},"ź":{"ha":640,"x_min":50,"x_max":592,"o":"m 422 539 l 451 576 l 64 576 l 64 669 l 582 669 l 582 571 l 179 93 l 592 93 l 592 0 l 50 0 l 50 99 l 422 539 m 381 967 l 529 967 l 382 788 l 282 788 l 381 967 z "},"Ż":{"ha":824,"x_min":47,"x_max":781,"o":"m 621 867 l 71 867 l 71 972 l 764 972 l 764 858 l 186 107 l 781 107 l 781 0 l 47 0 l 47 118 l 621 867 m 493 1242 l 493 1099 l 354 1099 l 354 1242 l 493 1242 z "},"ż":{"ha":640,"x_min":50,"x_max":592,"o":"m 422 539 l 451 576 l 64 576 l 64 669 l 582 669 l 582 571 l 179 93 l 592 93 l 592 0 l 50 0 l 50 99 l 422 539 m 404 796 l 265 796 l 265 939 l 404 939 l 404 796 z "},"Ž":{"ha":824,"x_min":47,"x_max":781,"o":"m 621 867 l 71 867 l 71 972 l 764 972 l 764 858 l 186 107 l 781 107 l 781 0 l 47 0 l 47 118 l 621 867 m 424 1167 q 449 1195 439 1182 q 467 1218 460 1208 l 508 1269 l 626 1269 l 497 1099 l 351 1099 l 222 1269 l 339 1269 l 424 1167 z "},"ž":{"ha":640,"x_min":50,"x_max":592,"o":"m 422 539 l 451 576 l 64 576 l 64 669 l 582 669 l 582 571 l 179 93 l 592 93 l 592 0 l 50 0 l 50 99 l 422 539 m 335 864 q 360 892 350 879 q 378 915 371 906 l 419 967 l 538 967 l 408 796 l 263 796 l 133 967 l 250 967 l 335 864 z "},"ƒ":{"ha":744,"x_min":44,"x_max":690,"o":"m 44 -60 q 126 -75 99 -75 q 246 42 226 -75 l 324 500 l 103 500 l 103 589 l 339 589 l 372 785 q 594 994 407 994 q 690 979 633 994 l 690 876 q 608 892 636 892 q 489 775 511 892 l 457 589 l 690 589 l 690 500 l 442 500 l 363 32 q 139 -178 324 -178 q 44 -162 97 -178 l 44 -60 z "},"Ǻ":{"ha":946,"x_min":7,"x_max":939,"o":"m 396 972 l 549 972 l 939 0 l 799 0 l 688 289 l 251 289 l 140 0 l 7 0 l 396 972 m 469 857 l 292 394 l 647 394 l 469 857 m 350 1171 q 386 1260 350 1224 q 472 1294 421 1294 q 558 1260 524 1294 q 594 1171 594 1224 q 558 1083 594 1119 q 472 1050 522 1050 q 386 1085 421 1050 q 350 1171 350 1118 m 661 1540 l 514 1361 l 414 1361 l 513 1540 l 661 1540 m 472 1117 q 522 1171 522 1117 q 472 1226 522 1226 q 422 1171 422 1226 q 472 1117 422 1117 z "},"ǻ":{"ha":707,"x_min":63,"x_max":613,"o":"m 63 183 q 285 392 63 354 l 428 414 q 496 481 496 424 q 458 567 496 535 q 361 597 422 597 q 203 460 208 597 l 83 460 q 158 622 88 557 q 351 692 235 692 q 544 624 476 692 q 613 439 613 557 l 613 0 l 499 0 l 499 90 q 293 -21 446 -21 q 129 35 193 -21 q 63 183 63 90 m 221 103 q 310 72 256 72 q 443 122 390 72 q 496 253 496 172 l 496 351 q 422 322 485 335 l 325 304 q 186 183 186 278 q 221 103 186 133 m 233 868 q 269 957 233 921 q 356 992 304 992 q 442 957 407 992 q 478 868 478 921 q 442 781 478 817 q 356 747 406 747 q 269 782 304 747 q 233 868 233 815 m 406 1238 l 554 1238 l 407 1058 l 307 1058 l 406 1238 m 356 814 q 406 868 406 814 q 356 924 406 924 q 306 868 306 924 q 356 814 306 814 z "},"Ǽ":{"ha":1261,"x_min":-18,"x_max":1189,"o":"m 475 972 l 1172 972 l 1172 867 l 667 867 l 667 561 l 1150 561 l 1150 454 l 667 454 l 667 107 l 1189 107 l 1189 0 l 540 0 l 540 289 l 263 289 l 122 0 l -18 0 l 475 972 m 540 860 q 520 820 529 839 q 504 783 511 801 l 314 394 l 540 394 l 540 860 m 839 1269 l 988 1269 l 840 1090 l 740 1090 l 839 1269 z "},"ǽ":{"ha":1189,"x_min":63,"x_max":1128,"o":"m 63 186 q 288 392 63 356 l 428 413 q 500 479 500 422 q 460 565 500 533 q 358 597 419 597 q 203 460 208 597 l 83 460 q 158 622 88 557 q 351 692 235 692 q 578 575 507 692 q 818 692 667 692 q 1047 596 965 692 q 1128 336 1128 503 l 1128 313 l 621 313 q 679 136 622 203 q 824 72 733 72 q 1003 207 982 72 l 1122 207 q 1036 44 1111 108 q 826 -21 958 -21 q 547 125 628 -21 q 293 -21 478 -21 q 128 38 192 -21 q 63 186 63 94 m 186 186 q 221 103 186 133 q 308 72 253 72 q 446 124 390 72 q 500 256 500 175 l 500 351 q 429 324 486 335 l 328 304 q 225 263 264 292 q 186 186 186 233 m 1000 397 q 953 543 1000 492 q 819 597 904 597 q 685 540 738 597 q 624 397 631 483 l 1000 397 m 631 967 l 779 967 l 632 788 l 532 788 l 631 967 z "},"Ǿ":{"ha":1053,"x_min":65,"x_max":988,"o":"m 65 486 q 292 931 65 796 q 526 994 393 994 q 790 913 675 994 l 875 1022 l 961 956 l 871 839 q 988 486 988 694 q 763 43 988 179 q 526 -21 657 -21 q 267 58 381 -21 l 183 -49 l 94 15 l 185 132 q 97 289 129 199 q 65 486 65 382 m 199 486 q 261 231 199 332 l 719 822 q 526 888 642 888 q 240 700 325 888 q 199 486 199 608 m 335 147 q 526 85 415 85 q 764 193 674 85 q 854 486 854 304 q 793 739 854 632 l 335 147 m 719 1269 l 572 1090 l 472 1090 l 571 1269 l 719 1269 z "},"ǿ":{"ha":778,"x_min":60,"x_max":718,"o":"m 60 336 q 151 592 60 493 q 389 692 244 692 q 565 642 488 692 l 628 722 l 703 664 l 638 579 q 718 336 718 482 q 625 78 718 176 q 389 -21 531 -21 q 211 29 288 -21 l 150 -50 l 75 8 l 139 92 q 81 200 101 138 q 60 336 60 263 m 274 110 q 389 72 325 72 q 539 144 483 72 q 594 336 594 214 q 564 485 594 424 l 274 110 m 503 561 q 389 597 454 597 q 240 526 296 597 q 183 336 183 453 q 213 186 183 249 l 503 561 m 433 967 l 582 967 l 435 788 l 335 788 l 433 967 z "},"Ș":{"ha":885,"x_min":53,"x_max":828,"o":"m 182 313 q 260 146 189 207 q 447 85 332 85 q 629 133 564 85 q 694 261 694 182 q 501 422 694 379 l 357 456 q 86 724 86 518 q 188 918 86 842 q 442 994 289 994 q 697 915 599 994 q 803 700 794 835 l 674 700 q 603 838 667 785 q 439 888 540 888 q 282 844 342 888 q 219 735 219 800 q 389 575 219 615 l 561 536 q 828 269 828 474 q 725 64 828 146 q 446 -21 618 -21 q 163 69 269 -21 q 53 313 56 158 l 182 313 m 383 -325 q 447 -236 447 -315 l 385 -236 l 385 -112 l 524 -112 l 524 -232 q 383 -394 524 -383 l 383 -325 z "},"ș":{"ha":671,"x_min":50,"x_max":611,"o":"m 167 221 q 339 72 174 72 q 451 103 408 72 q 493 182 493 132 q 376 285 493 261 l 275 304 q 71 494 71 342 q 144 636 71 579 q 331 692 217 692 q 597 476 582 692 l 479 476 q 322 597 464 597 q 226 571 261 597 q 190 501 190 543 q 304 407 190 429 l 408 388 q 611 194 611 350 q 538 42 611 103 q 338 -21 460 -21 q 129 46 206 -21 q 50 221 51 110 l 167 221 m 282 -325 q 346 -236 346 -315 l 283 -236 l 283 -112 l 422 -112 l 422 -232 q 282 -394 422 -383 l 282 -325 z "},"Ț":{"ha":824,"x_min":13,"x_max":810,"o":"m 13 972 l 810 972 l 810 867 l 475 867 l 475 0 l 349 0 l 349 867 l 13 867 l 13 972 m 342 -325 q 406 -236 406 -315 l 343 -236 l 343 -112 l 482 -112 l 482 -232 q 342 -394 482 -383 l 342 -325 z "},"ț":{"ha":458,"x_min":25,"x_max":418,"o":"m 150 669 l 150 890 l 269 890 l 269 669 l 408 669 l 408 571 l 269 571 l 269 203 q 368 100 269 100 q 418 104 389 100 l 418 1 q 340 -7 381 -7 q 150 190 150 -7 l 150 571 l 25 571 l 25 669 l 150 669 m 221 -325 q 285 -236 285 -315 l 222 -236 l 222 -112 l 361 -112 l 361 -232 q 221 -394 361 -383 l 221 -325 z "},"Ȧ":{"ha":946,"x_min":7,"x_max":939,"o":"m 549 972 l 939 0 l 799 0 l 688 289 l 251 289 l 140 0 l 7 0 l 396 972 l 549 972 m 469 857 l 292 394 l 647 394 l 469 857 m 401 1242 l 540 1242 l 540 1099 l 401 1099 l 401 1242 z "},"ȧ":{"ha":707,"x_min":63,"x_max":613,"o":"m 428 414 q 496 481 496 424 q 458 567 496 535 q 361 597 422 597 q 203 460 208 597 l 83 460 q 158 622 88 557 q 351 692 235 692 q 544 624 476 692 q 613 439 613 557 l 613 0 l 499 0 l 499 90 q 293 -21 446 -21 q 129 35 193 -21 q 63 183 63 90 q 285 392 63 354 l 428 414 m 221 103 q 310 72 256 72 q 443 122 390 72 q 496 253 496 172 l 496 351 q 422 322 485 335 l 325 304 q 186 183 186 278 q 221 103 186 133 m 285 939 l 424 939 l 424 796 l 285 796 l 285 939 z "},"Ȳ":{"ha":821,"x_min":11,"x_max":810,"o":"m 153 972 l 382 575 q 405 534 399 546 q 408 528 411 522 q 438 576 419 546 q 479 646 456 606 l 672 972 l 810 972 l 472 419 l 472 0 l 346 0 l 346 419 l 11 972 l 153 972 m 221 1219 l 606 1219 l 606 1117 l 221 1117 l 221 1219 z "},"ȳ":{"ha":668,"x_min":19,"x_max":651,"o":"m 350 160 l 526 669 l 651 669 l 292 -293 l 165 -293 l 288 24 l 19 669 l 151 669 l 350 160 m 531 814 l 146 814 l 146 917 l 531 917 l 531 814 z "},"ȷ":{"ha":335,"x_min":-21,"x_max":232,"o":"m -21 -201 q 14 -207 -8 -207 q 113 -93 113 -207 l 113 669 l 232 669 l 232 -129 q 188 -260 232 -203 q 46 -315 144 -315 q -21 -308 14 -315 l -21 -201 z "},"ˆ":{"ha":536,"x_min":68,"x_max":472,"o":"m 343 967 l 472 796 l 354 796 l 313 847 q 269 899 300 867 q 245 872 256 885 q 225 846 235 858 l 185 796 l 68 796 l 197 967 l 343 967 z "},"ˇ":{"ha":536,"x_min":68,"x_max":472,"o":"m 269 864 q 295 892 285 879 q 313 915 306 906 l 354 967 l 472 967 l 343 796 l 197 796 l 68 967 l 185 967 l 269 864 z "},"˘":{"ha":501,"x_min":65,"x_max":436,"o":"m 158 967 q 250 885 165 885 q 343 967 336 885 l 436 967 q 388 838 433 883 q 250 788 335 788 q 117 839 167 788 q 65 967 68 888 l 158 967 z "},"˙":{"ha":269,"x_min":65,"x_max":204,"o":"m 65 796 l 65 939 l 204 939 l 204 796 l 65 796 z "},"˚":{"ha":376,"x_min":65,"x_max":310,"o":"m 65 868 q 101 957 65 921 q 188 992 136 992 q 274 957 239 992 q 310 868 310 921 q 274 781 310 817 q 188 747 238 747 q 101 782 136 747 q 65 868 65 815 m 188 814 q 238 868 238 814 q 188 924 238 924 q 138 868 138 924 q 188 814 138 814 z "},"˛":{"ha":340,"x_min":60,"x_max":275,"o":"m 60 -137 q 194 21 60 -33 l 275 0 q 161 -117 161 -46 q 232 -176 161 -176 q 275 -171 260 -176 l 275 -257 q 210 -267 256 -267 q 103 -232 146 -267 q 60 -137 60 -197 z "},"˜":{"ha":565,"x_min":65,"x_max":499,"o":"m 65 810 q 196 957 65 957 q 290 925 231 957 q 361 899 333 899 q 406 951 403 899 l 499 951 q 374 808 499 808 q 278 839 329 808 q 206 864 225 864 q 160 810 161 864 l 65 810 z "},"˝":{"ha":501,"x_min":61,"x_max":440,"o":"m 440 967 l 321 788 l 235 788 l 306 967 l 440 967 m 119 967 l 250 967 l 142 788 l 61 788 l 119 967 z "},"Δ":{"ha":933,"x_min":44,"x_max":889,"o":"m 44 0 l 44 101 l 408 972 l 522 972 l 889 101 l 889 0 l 44 0 m 768 101 l 465 838 l 164 101 l 768 101 z "},"Ω":{"ha":1061,"x_min":72,"x_max":989,"o":"m 294 933 q 531 994 401 994 q 931 758 806 994 q 989 496 989 643 q 814 114 989 236 l 790 99 l 953 99 l 953 0 l 594 0 l 594 99 q 783 218 710 115 q 858 492 858 324 q 767 781 858 672 q 531 888 676 888 q 293 781 383 888 q 203 492 203 671 q 278 218 203 324 q 465 99 351 115 l 465 0 l 107 0 l 107 99 l 271 99 l 247 114 q 72 496 72 236 q 294 933 72 800 z "},"μ":{"ha":792,"x_min":115,"x_max":676,"o":"m 235 671 l 235 268 q 388 72 235 72 q 513 132 469 72 q 557 300 557 193 l 557 669 l 676 669 l 676 0 l 560 0 l 560 93 q 357 -21 506 -21 q 235 13 281 -21 l 235 -293 l 115 -293 l 115 671 l 235 671 z "},"π":{"ha":811,"x_min":32,"x_max":764,"o":"m 32 669 l 754 669 l 754 576 l 615 576 l 615 185 q 714 85 615 85 q 764 89 735 85 l 764 -15 q 689 -21 740 -21 q 496 175 496 -21 l 496 576 l 265 576 l 265 0 l 146 0 l 146 576 l 32 576 l 32 669 z "},"฿":{"ha":863,"x_min":126,"x_max":796,"o":"m 250 460 l 250 99 l 386 99 l 386 460 l 250 460 m 488 100 q 669 281 669 115 q 488 458 669 443 l 488 100 m 386 874 l 250 874 l 250 558 l 386 558 l 386 874 m 488 560 q 647 718 647 576 q 488 872 647 863 l 488 560 m 488 -154 l 386 -154 l 386 0 l 126 0 l 126 972 l 386 972 l 386 1128 l 488 1128 l 488 972 q 774 728 774 960 q 728 594 774 654 q 610 514 682 539 q 796 274 796 456 q 488 1 796 24 l 488 -154 z "},"Ẁ":{"ha":1338,"x_min":21,"x_max":1317,"o":"m 151 972 l 371 153 l 382 193 l 403 265 l 593 972 l 751 972 l 939 265 q 953 215 946 243 q 969 151 961 186 l 1193 972 l 1317 972 l 1053 0 l 899 0 l 671 857 l 638 728 l 440 0 l 285 0 l 21 972 l 151 972 m 643 1269 l 740 1090 l 640 1090 l 493 1269 l 643 1269 z "},"ẁ":{"ha":1088,"x_min":19,"x_max":1067,"o":"m 149 669 l 294 174 q 308 128 308 132 l 324 174 l 471 669 l 619 669 l 788 133 l 801 176 l 946 669 l 1067 669 l 851 0 l 713 0 l 544 554 l 375 0 l 238 0 l 19 669 l 149 669 m 517 967 l 614 788 l 514 788 l 367 967 l 517 967 z "},"Ẃ":{"ha":1338,"x_min":21,"x_max":1317,"o":"m 151 972 l 371 153 l 382 193 l 403 265 l 593 972 l 751 972 l 939 265 q 953 215 946 243 q 969 151 961 186 l 1193 972 l 1317 972 l 1053 0 l 899 0 l 671 857 l 638 728 l 440 0 l 285 0 l 21 972 l 151 972 m 717 1269 l 865 1269 l 718 1090 l 618 1090 l 717 1269 z "},"ẃ":{"ha":1088,"x_min":19,"x_max":1067,"o":"m 149 669 l 294 174 q 308 128 308 132 l 324 174 l 471 669 l 619 669 l 788 133 l 801 176 l 946 669 l 1067 669 l 851 0 l 713 0 l 544 554 l 375 0 l 238 0 l 19 669 l 149 669 m 739 967 l 592 788 l 492 788 l 590 967 l 739 967 z "},"Ẅ":{"ha":1338,"x_min":21,"x_max":1317,"o":"m 151 972 l 371 153 l 382 193 l 403 265 l 593 972 l 751 972 l 939 265 q 953 215 946 243 q 969 151 961 186 l 1193 972 l 1317 972 l 1053 0 l 899 0 l 671 857 l 638 728 l 440 0 l 285 0 l 21 972 l 151 972 m 463 1242 l 601 1242 l 601 1099 l 463 1099 l 463 1242 m 881 1099 l 743 1099 l 743 1242 l 881 1242 l 881 1099 z "},"ẅ":{"ha":1088,"x_min":19,"x_max":1067,"o":"m 149 669 l 294 174 q 308 128 308 132 l 324 174 l 471 669 l 619 669 l 788 133 l 801 176 l 946 669 l 1067 669 l 851 0 l 713 0 l 544 554 l 375 0 l 238 0 l 19 669 l 149 669 m 475 939 l 475 796 l 336 796 l 336 939 l 475 939 m 754 796 l 617 796 l 617 939 l 754 939 l 754 796 z "},"ẞ":{"ha":929,"x_min":125,"x_max":861,"o":"m 506 972 q 749 900 660 972 q 833 721 833 832 q 783 578 833 638 q 657 497 736 521 q 861 246 861 443 q 782 60 861 132 q 544 -21 697 -21 q 394 -4 461 -21 l 394 103 q 529 85 454 85 q 735 257 735 85 q 499 439 735 439 l 421 439 l 421 546 l 506 546 q 656 592 603 546 q 707 711 707 635 q 651 826 707 788 q 499 867 594 867 l 251 867 l 251 0 l 125 0 l 125 972 l 506 972 z "},"Ỳ":{"ha":821,"x_min":11,"x_max":810,"o":"m 153 972 l 382 575 q 405 534 399 546 q 408 528 411 522 q 438 576 419 546 q 479 646 456 606 l 672 972 l 810 972 l 472 419 l 472 0 l 346 0 l 346 419 l 11 972 l 153 972 m 385 1269 l 482 1090 l 382 1090 l 235 1269 l 385 1269 z "},"ỳ":{"ha":668,"x_min":19,"x_max":651,"o":"m 151 669 l 350 160 l 526 669 l 651 669 l 292 -293 l 165 -293 l 288 24 l 19 669 l 151 669 m 407 788 l 307 788 l 160 967 l 310 967 l 407 788 z "}," ":{"ha":638,"x_min":0,"x_max":0,"o":""}," ":{"ha":1271,"x_min":0,"x_max":0,"o":""}," ":{"ha":164,"x_min":0,"x_max":0,"o":""}," ":{"ha":58,"x_min":0,"x_max":0,"o":""},"–":{"ha":783,"x_min":89,"x_max":694,"o":"m 89 322 l 89 424 l 694 424 l 694 322 l 89 322 z "},"—":{"ha":1164,"x_min":89,"x_max":1075,"o":"m 89 322 l 89 424 l 1075 424 l 1075 322 l 89 322 z "},"―":{"ha":1164,"x_min":89,"x_max":1075,"o":"m 89 322 l 89 424 l 1075 424 l 1075 322 l 89 322 z "},"‘":{"ha":317,"x_min":82,"x_max":232,"o":"m 82 783 q 124 924 82 871 q 232 978 163 971 l 232 908 q 163 789 163 885 l 163 771 l 228 771 l 228 618 l 82 618 l 82 783 z "},"’":{"ha":307,"x_min":86,"x_max":236,"o":"m 86 682 q 156 801 156 706 l 156 819 l 90 819 l 90 972 l 236 972 l 236 807 q 194 667 236 718 q 86 613 154 618 l 86 682 z "},"‚":{"ha":325,"x_min":86,"x_max":236,"o":"m 86 -137 q 156 -18 156 -114 l 156 0 l 90 0 l 90 153 l 236 153 l 236 -12 q 194 -153 236 -101 q 86 -207 154 -201 l 86 -137 z "},"“":{"ha":564,"x_min":82,"x_max":479,"o":"m 329 783 q 371 924 329 871 q 479 978 410 971 l 479 908 q 410 789 410 885 l 410 771 l 475 771 l 475 618 l 329 618 l 329 783 m 82 783 q 124 924 82 871 q 232 978 163 971 l 232 908 q 163 789 163 885 l 163 771 l 228 771 l 228 618 l 82 618 l 82 783 z "},"”":{"ha":553,"x_min":86,"x_max":483,"o":"m 333 682 q 403 801 403 706 l 403 819 l 338 819 l 338 972 l 483 972 l 483 807 q 442 667 483 714 q 333 613 397 618 l 333 682 m 86 682 q 156 801 156 706 l 156 819 l 90 819 l 90 972 l 236 972 l 236 807 q 194 667 236 718 q 86 613 154 618 l 86 682 z "},"„":{"ha":572,"x_min":86,"x_max":483,"o":"m 333 -137 q 403 -18 403 -114 l 403 0 l 338 0 l 338 153 l 483 153 l 483 -12 q 442 -153 483 -106 q 333 -207 397 -201 l 333 -137 m 86 -137 q 156 -18 156 -114 l 156 0 l 90 0 l 90 153 l 236 153 l 236 -12 q 194 -153 236 -101 q 86 -207 154 -201 l 86 -137 z "},"†":{"ha":692,"x_min":44,"x_max":647,"o":"m 44 690 l 292 690 l 292 972 l 400 972 l 400 690 l 647 690 l 647 582 l 400 582 l 400 0 l 292 0 l 292 582 l 44 582 l 44 690 z "},"‡":{"ha":746,"x_min":71,"x_max":675,"o":"m 318 690 l 318 972 l 426 972 l 426 690 l 674 690 l 674 582 l 426 582 l 426 351 l 675 351 l 675 244 l 426 244 l 426 0 l 318 0 l 318 244 l 71 244 l 71 351 l 318 351 l 318 582 l 71 582 l 71 690 l 318 690 z "},"•":{"ha":546,"x_min":79,"x_max":467,"o":"m 136 538 q 272 596 192 596 q 410 538 351 596 q 467 399 467 478 q 410 261 467 318 q 272 204 350 204 q 136 261 193 204 q 79 399 79 318 q 136 538 79 481 z "},"…":{"ha":1008,"x_min":88,"x_max":921,"o":"m 921 161 l 921 0 l 768 0 l 768 161 l 921 161 m 428 161 l 581 161 l 581 0 l 428 0 l 428 161 m 239 161 l 239 0 l 88 0 l 88 161 l 239 161 z "},"‰":{"ha":1413,"x_min":43,"x_max":1356,"o":"m 654 388 q 806 451 713 451 q 975 360 914 451 q 1143 451 1035 451 q 1296 388 1236 451 q 1356 221 1356 324 q 1296 53 1356 117 q 1143 -12 1235 -12 q 975 81 1033 -12 q 806 -12 917 -12 q 653 53 711 -12 q 594 221 594 117 q 654 388 594 324 m 43 754 q 103 921 43 857 q 258 985 163 985 q 415 921 356 985 q 475 754 475 857 q 415 588 475 651 q 258 522 354 522 q 103 588 164 522 q 43 754 43 651 m 828 972 l 947 972 l 239 0 l 121 0 l 828 972 m 729 121 q 808 82 760 82 q 888 121 857 82 q 918 221 918 157 q 888 324 918 285 q 808 364 856 364 q 729 324 761 364 q 700 221 700 283 q 729 121 700 158 m 1031 221 q 1060 121 1031 158 q 1139 82 1090 82 q 1218 121 1188 82 q 1249 221 1249 157 q 1218 324 1249 285 q 1139 364 1186 364 q 1061 325 1090 364 q 1031 221 1031 286 m 179 654 q 258 617 210 617 q 338 654 306 617 q 367 754 367 693 q 338 857 367 817 q 258 897 306 897 q 179 857 211 897 q 150 754 150 817 q 179 654 150 693 z "},"‹":{"ha":418,"x_min":65,"x_max":325,"o":"m 325 653 l 325 506 l 164 354 l 325 201 l 325 54 l 65 308 l 65 400 l 325 653 z "},"›":{"ha":403,"x_min":83,"x_max":343,"o":"m 83 203 l 244 354 l 83 507 l 83 654 l 343 400 l 343 308 l 83 56 l 83 203 z "},"⁄":{"ha":308,"x_min":-260,"x_max":567,"o":"m -260 0 l 449 972 l 567 972 l -140 0 l -260 0 z "},"⁰":{"ha":607,"x_min":58,"x_max":549,"o":"m 58 793 q 124 1039 58 949 q 306 1128 190 1128 q 483 1039 419 1128 q 549 793 549 949 q 485 547 549 636 q 306 460 419 460 q 124 549 188 460 q 58 793 58 639 m 306 546 q 433 793 433 546 q 306 1042 433 1042 q 172 793 172 1042 q 306 546 172 546 z "},"⁴":{"ha":599,"x_min":36,"x_max":561,"o":"m 306 1114 l 444 1114 l 444 721 l 561 721 l 561 632 l 444 632 l 444 474 l 333 474 l 333 632 l 36 632 l 36 722 l 306 1114 m 333 997 l 143 721 l 333 721 l 333 997 z "},"⁵":{"ha":567,"x_min":51,"x_max":518,"o":"m 51 653 l 164 653 l 164 649 q 196 576 164 606 q 279 546 228 546 q 372 585 338 546 q 407 685 407 621 q 374 782 407 744 q 285 821 339 821 q 171 749 201 821 l 60 749 l 111 1114 l 483 1114 l 483 1018 l 196 1018 l 168 843 q 315 906 228 906 q 461 843 404 906 q 518 686 518 778 q 453 522 518 583 q 281 460 388 460 q 114 514 178 460 q 51 649 51 565 l 51 653 z "},"⁶":{"ha":594,"x_min":58,"x_max":538,"o":"m 128 1038 q 326 1128 199 1128 q 475 1079 418 1128 q 536 946 529 1031 l 424 946 q 322 1042 415 1042 q 213 989 253 1042 q 172 853 172 936 l 172 822 q 331 894 232 894 q 479 836 421 894 q 538 685 538 778 q 472 524 538 589 q 307 460 407 460 q 122 544 186 460 q 58 783 58 626 q 128 1038 58 947 m 306 544 q 393 582 360 544 q 426 678 426 617 q 394 772 426 736 q 308 808 361 808 q 219 774 253 808 q 185 682 185 739 q 306 544 185 544 z "},"⁷":{"ha":522,"x_min":32,"x_max":492,"o":"m 492 1026 q 263 474 279 797 l 136 474 q 351 990 158 796 l 379 1018 l 32 1018 l 32 1114 l 492 1114 l 492 1026 z "},"⁸":{"ha":599,"x_min":57,"x_max":543,"o":"m 193 804 q 74 949 74 846 q 138 1078 74 1028 q 301 1128 200 1128 q 463 1079 397 1128 q 525 951 525 1029 q 406 804 525 844 q 543 644 543 760 q 476 511 543 561 q 300 460 411 460 q 122 508 188 460 q 57 640 57 558 q 193 804 57 760 m 206 575 q 301 546 240 546 q 394 575 358 546 q 431 654 431 607 q 393 732 431 700 q 301 763 358 763 q 206 732 244 763 q 168 654 168 700 q 206 575 168 606 m 217 876 q 301 849 249 849 q 383 876 351 849 q 414 946 414 903 q 383 1015 414 989 q 301 1042 353 1042 q 217 1017 247 1042 q 185 949 185 989 q 217 876 185 904 z "},"⁹":{"ha":586,"x_min":56,"x_max":528,"o":"m 56 914 q 121 1067 56 1006 q 285 1128 186 1128 q 464 1042 399 1128 q 528 797 528 956 q 463 547 528 636 q 274 460 397 460 q 119 513 172 460 q 61 632 65 564 l 174 632 q 276 546 186 546 q 418 761 411 546 l 418 774 q 258 703 353 703 q 113 763 168 703 q 56 914 56 824 m 165 918 q 199 825 165 860 q 285 790 229 790 q 369 825 339 790 q 401 918 401 861 q 369 1007 401 972 q 285 1042 339 1042 q 199 1007 232 1042 q 165 918 165 971 z "},"₦":{"ha":838,"x_min":19,"x_max":817,"o":"m 19 526 l 122 526 l 122 972 l 311 972 l 461 526 l 589 526 l 589 972 l 713 972 l 713 526 l 817 526 l 817 438 l 713 438 l 713 0 l 532 0 l 385 438 l 247 438 l 247 0 l 122 0 l 122 438 l 19 438 l 19 526 m 247 526 l 356 526 l 247 850 l 247 526 m 589 438 l 490 438 l 589 144 l 589 438 z "},"₩":{"ha":1472,"x_min":64,"x_max":1407,"o":"m 236 444 l 204 561 l 64 561 l 64 649 l 181 649 l 93 972 l 218 972 l 304 649 l 576 649 l 664 972 l 815 972 l 901 649 l 1172 649 l 1261 972 l 1381 972 l 1292 649 l 1407 649 l 1407 561 l 1268 561 l 1236 444 l 1407 444 l 1407 357 l 1213 357 l 1115 0 l 968 0 l 875 357 l 601 357 l 506 0 l 356 0 l 260 357 l 64 357 l 64 444 l 236 444 m 851 444 l 821 561 l 656 561 l 625 444 l 851 444 m 522 444 l 553 561 l 328 561 l 360 444 l 522 444 m 956 444 l 1117 444 l 1149 561 l 925 561 l 956 444 m 776 731 q 751 825 761 790 q 738 869 740 860 q 717 787 726 821 q 701 731 708 753 l 679 649 l 797 649 l 776 731 m 407 265 q 426 190 418 221 q 439 140 433 158 q 455 195 446 164 q 474 265 464 226 l 499 357 l 382 357 l 407 265 m 1003 265 q 1022 188 1014 219 q 1036 139 1031 157 q 1049 192 1042 161 q 1068 265 1057 224 l 1093 357 l 978 357 l 1003 265 z "},"₪":{"ha":950,"x_min":88,"x_max":863,"o":"m 422 264 q 581 97 422 97 l 740 97 l 740 972 l 863 972 l 863 0 l 579 0 q 381 74 451 0 q 310 276 310 146 l 310 751 l 422 751 l 422 264 m 371 972 q 568 899 497 972 q 639 696 639 825 l 639 221 l 528 221 l 528 708 q 369 875 528 875 l 208 875 l 208 0 l 88 0 l 88 972 l 371 972 z "},"€":{"ha":886,"x_min":40,"x_max":833,"o":"m 140 638 q 265 901 172 808 q 503 994 360 994 q 731 907 647 994 q 825 665 813 821 l 701 665 q 639 831 689 771 q 500 894 585 894 q 265 638 306 894 l 579 638 l 579 549 l 256 549 q 254 526 254 542 q 254 485 254 510 q 254 442 254 458 q 256 419 254 426 l 579 419 l 579 331 l 265 331 q 494 78 310 78 q 708 324 683 78 l 833 324 q 728 74 815 169 q 494 -21 640 -21 q 261 71 353 -21 q 140 331 167 163 l 40 331 l 40 419 l 129 419 q 128 442 128 426 q 128 485 128 458 q 128 526 128 510 q 129 549 128 542 l 40 549 l 40 638 l 140 638 z "},"₴":{"ha":765,"x_min":21,"x_max":744,"o":"m 21 453 l 744 453 l 744 365 l 251 365 q 215 243 215 313 q 263 128 215 175 q 389 79 308 79 q 517 122 469 79 q 567 236 563 167 l 690 236 q 603 56 685 129 q 389 -21 518 -21 q 174 60 256 -21 q 97 235 97 135 q 131 365 97 300 l 21 365 l 21 453 m 549 651 q 563 729 563 685 q 518 844 563 796 q 394 893 474 893 q 268 849 317 893 q 217 736 221 806 l 93 736 q 244 958 103 882 q 394 994 314 994 q 606 914 525 994 q 681 738 681 839 q 665 651 681 693 l 744 651 l 744 564 l 21 564 l 21 651 l 549 651 z "},"₸":{"ha":824,"x_min":50,"x_max":772,"o":"m 772 628 l 475 628 l 475 0 l 349 0 l 349 628 l 50 628 l 50 735 l 772 735 l 772 628 m 50 972 l 772 972 l 772 867 l 50 867 l 50 972 z "},"₹":{"ha":844,"x_min":83,"x_max":793,"o":"m 83 744 l 515 744 q 308 883 490 883 l 83 883 l 83 972 l 793 972 l 793 883 l 539 883 q 590 846 572 864 q 642 744 632 800 l 793 744 l 793 656 l 643 656 q 538 483 629 539 q 314 428 449 428 l 238 428 l 278 390 l 674 0 l 513 0 l 83 428 l 83 526 l 308 526 q 515 656 488 526 l 83 656 l 83 744 z "},"₺":{"ha":814,"x_min":75,"x_max":768,"o":"m 75 369 l 185 426 l 185 547 l 75 490 l 75 586 l 185 643 l 185 972 l 307 972 l 307 706 l 608 860 l 608 764 l 307 610 l 307 489 l 608 643 l 608 547 l 307 393 l 307 100 q 542 178 447 100 q 644 390 636 257 l 768 390 q 538 49 758 151 q 307 0 432 0 l 185 0 l 185 331 l 75 274 l 75 369 z "},"₽":{"ha":872,"x_min":71,"x_max":825,"o":"m 71 308 l 176 308 l 176 433 l 71 433 l 71 522 l 176 522 l 176 972 l 494 972 q 733 911 639 972 q 825 703 825 850 q 733 497 825 561 q 494 433 644 433 l 297 433 l 297 308 l 663 308 l 663 221 l 297 221 l 297 0 l 176 0 l 176 221 l 71 221 l 71 308 m 489 522 q 699 703 699 522 q 489 874 699 874 l 297 874 l 297 522 l 489 522 z "},"₿":{"ha":860,"x_min":126,"x_max":794,"o":"m 485 1128 l 485 972 l 463 972 q 688 911 606 972 q 771 728 771 846 q 725 594 771 653 q 608 514 681 538 q 794 274 794 453 q 485 1 794 24 l 485 -154 l 383 -154 l 383 0 l 126 0 l 126 972 l 383 972 l 383 1128 l 485 1128 m 450 99 q 667 281 667 99 q 444 460 667 460 l 250 460 l 250 99 l 450 99 m 447 558 q 644 718 644 558 q 457 874 644 874 l 250 874 l 250 558 l 447 558 z "},"ℓ":{"ha":708,"x_min":46,"x_max":660,"o":"m 46 354 q 99 358 74 356 q 149 365 125 360 q 147 386 147 372 q 147 422 147 400 q 286 915 147 760 q 464 994 357 994 q 608 933 556 994 q 657 775 657 874 q 543 482 657 617 q 261 293 436 356 q 408 74 285 74 q 513 149 476 74 q 539 228 531 188 q 549 311 547 268 l 660 311 q 586 79 654 172 q 404 -21 515 -21 q 158 265 203 -21 q 46 253 101 254 l 46 354 m 254 396 q 468 544 382 443 q 550 775 550 643 q 457 899 550 899 q 336 817 381 899 q 298 728 314 776 q 272 624 282 679 q 258 520 263 571 q 254 422 254 469 l 254 396 z "},"№":{"ha":1561,"x_min":126,"x_max":1496,"o":"m 317 972 l 810 143 l 810 972 l 938 972 l 938 0 l 761 0 l 253 850 l 253 0 l 126 0 l 126 972 l 317 972 m 1100 915 q 1267 985 1161 985 q 1435 915 1372 985 q 1496 740 1496 846 q 1435 568 1496 638 q 1267 496 1371 496 q 1100 568 1164 496 q 1039 740 1039 638 q 1100 915 1039 842 m 1146 740 q 1267 576 1146 576 q 1389 740 1389 576 q 1267 906 1389 906 q 1176 861 1208 906 q 1146 740 1146 818 m 1051 411 l 1483 411 l 1483 322 l 1051 322 l 1051 411 z "},"℗":{"ha":1142,"x_min":64,"x_max":1078,"o":"m 133 743 q 318 926 201 857 q 571 994 432 994 q 825 926 711 994 q 1010 743 942 857 q 1078 488 1078 629 q 1010 231 1078 344 q 825 47 942 115 q 571 -21 711 -21 q 318 47 433 -21 q 133 232 201 115 q 64 488 64 347 q 133 743 64 624 m 363 122 q 571 67 456 67 q 931 275 811 67 q 985 488 985 371 q 781 851 985 732 q 571 907 688 907 q 213 700 329 907 q 157 488 157 607 q 363 122 157 240 m 642 756 q 775 711 724 756 q 824 588 824 665 q 775 464 824 508 q 642 418 725 418 l 490 418 l 490 218 l 404 218 l 404 756 l 642 756 m 631 497 q 736 588 736 497 q 631 676 736 676 l 490 676 l 490 497 l 631 497 z "},"™":{"ha":1267,"x_min":46,"x_max":1161,"o":"m 715 972 l 876 558 l 1039 972 l 1161 972 l 1161 440 l 1069 440 l 1069 829 l 918 440 l 831 440 l 708 757 q 694 798 700 781 q 682 826 688 815 l 682 440 l 592 440 l 592 972 l 715 972 m 46 972 l 511 972 l 511 883 l 325 883 l 325 440 l 232 440 l 232 883 l 46 883 l 46 972 z "},"Ω":{"ha":1061,"x_min":72,"x_max":989,"o":"m 294 933 q 531 994 401 994 q 931 758 806 994 q 989 496 989 643 q 814 114 989 236 l 790 99 l 953 99 l 953 0 l 594 0 l 594 99 q 783 218 710 115 q 858 492 858 324 q 767 781 858 672 q 531 888 676 888 q 293 781 383 888 q 203 492 203 671 q 278 218 203 324 q 465 99 351 115 l 465 0 l 107 0 l 107 99 l 271 99 l 247 114 q 72 496 72 236 q 294 933 72 800 z "},"⅓":{"ha":1226,"x_min":40,"x_max":1174,"o":"m 844 181 q 960 65 847 65 q 1042 92 1011 65 q 1072 164 1072 118 q 1042 236 1072 210 q 960 264 1010 264 l 917 264 l 917 342 l 960 342 q 1060 433 1060 342 q 963 518 1060 518 q 854 414 860 518 l 750 414 q 811 546 754 497 q 964 594 868 594 q 1106 550 1049 594 q 1161 436 1161 507 q 1057 306 1161 340 q 1174 157 1174 268 q 1114 36 1174 83 q 960 -12 1053 -12 q 803 40 864 -12 q 743 181 744 92 l 844 181 m 863 972 l 981 972 l 274 0 l 154 0 l 863 972 m 40 843 q 207 972 175 853 l 294 972 l 294 390 l 193 390 l 193 828 q 40 758 138 760 l 40 843 z "},"⅔":{"ha":1346,"x_min":56,"x_max":1299,"o":"m 56 390 q 196 619 58 525 l 258 663 q 367 806 367 738 q 268 907 367 907 q 160 789 161 907 l 57 789 q 115 931 57 878 q 271 985 174 985 q 414 935 357 985 q 469 808 469 885 q 315 593 469 690 l 247 547 q 185 478 189 508 l 474 478 l 474 390 l 56 390 m 969 181 q 1085 65 972 65 q 1167 92 1136 65 q 1197 164 1197 118 q 1167 236 1197 210 q 1085 264 1135 264 l 1042 264 l 1042 342 l 1085 342 q 1185 433 1185 342 q 1088 518 1185 518 q 979 414 985 518 l 875 414 q 936 546 879 497 q 1089 594 993 594 q 1231 550 1174 594 q 1286 436 1286 507 q 1182 306 1286 340 q 1299 157 1299 268 q 1239 36 1299 83 q 1085 -12 1178 -12 q 928 40 989 -12 q 868 181 869 92 l 969 181 m 1104 972 l 397 0 l 278 0 l 986 972 l 1104 972 z "},"⅕":{"ha":1224,"x_min":40,"x_max":1171,"o":"m 747 163 l 849 163 l 849 158 q 878 93 849 119 q 954 65 910 65 q 1038 100 1007 65 q 1069 192 1069 136 q 1039 281 1069 249 q 958 315 1008 315 q 856 250 883 315 l 754 250 l 801 582 l 1139 582 l 1139 494 l 878 494 l 853 336 q 986 393 907 393 q 1119 338 1068 393 q 1171 193 1171 282 q 1111 44 1171 100 q 956 -12 1051 -12 q 804 36 865 -12 q 747 158 747 85 l 747 163 m 863 972 l 981 972 l 274 0 l 154 0 l 863 972 m 40 843 q 207 972 175 853 l 294 972 l 294 390 l 193 390 l 193 828 q 40 758 138 760 l 40 843 z "},"⅖":{"ha":1343,"x_min":56,"x_max":1294,"o":"m 871 163 l 972 163 l 972 158 q 1001 93 972 119 q 1078 65 1033 65 q 1161 100 1131 65 q 1193 192 1193 136 q 1163 281 1193 249 q 1082 315 1132 315 q 979 250 1007 315 l 878 250 l 925 582 l 1263 582 l 1263 494 l 1001 494 l 976 336 q 1110 393 1031 393 q 1243 338 1192 393 q 1294 193 1294 282 q 1235 44 1294 100 q 1079 -12 1175 -12 q 928 36 989 -12 q 871 158 871 85 l 871 163 m 56 390 q 196 619 58 525 l 258 663 q 367 806 367 738 q 268 907 367 907 q 160 789 161 907 l 57 789 q 115 931 57 878 q 271 985 174 985 q 414 935 357 985 q 469 808 469 885 q 315 593 469 690 l 247 547 q 185 478 189 508 l 474 478 l 474 390 l 56 390 m 1104 972 l 397 0 l 278 0 l 986 972 l 1104 972 z "},"⅗":{"ha":1331,"x_min":46,"x_max":1282,"o":"m 858 163 l 960 163 l 960 158 q 989 93 960 119 q 1065 65 1021 65 q 1149 100 1118 65 q 1181 192 1181 136 q 1150 281 1181 249 q 1069 315 1119 315 q 967 250 994 315 l 865 250 l 913 582 l 1250 582 l 1250 494 l 989 494 l 964 336 q 1097 393 1018 393 q 1231 338 1179 393 q 1282 193 1282 282 q 1222 44 1282 100 q 1067 -12 1163 -12 q 915 36 976 -12 q 858 158 858 85 l 858 163 m 147 571 q 263 456 150 456 q 344 482 314 456 q 375 554 375 508 q 344 626 375 600 q 263 654 313 654 l 219 654 l 219 732 l 263 732 q 363 824 363 732 q 265 908 363 908 q 157 804 163 908 l 53 804 q 114 936 57 888 q 267 985 171 985 q 408 940 351 985 q 464 826 464 897 q 360 696 464 731 q 476 547 476 658 q 417 426 476 474 q 263 378 356 378 q 106 431 167 378 q 46 571 47 482 l 147 571 m 1092 972 l 385 0 l 265 0 l 974 972 l 1092 972 z "},"⅘":{"ha":1353,"x_min":39,"x_max":1299,"o":"m 39 617 l 283 972 l 410 972 l 410 615 l 515 615 l 515 535 l 410 535 l 410 390 l 308 390 l 308 535 l 39 535 l 39 617 m 875 163 l 976 163 l 976 158 q 1006 93 976 119 q 1082 65 1038 65 q 1165 100 1135 65 q 1197 192 1197 136 q 1167 281 1197 249 q 1086 315 1136 315 q 983 250 1011 315 l 882 250 l 929 582 l 1267 582 l 1267 494 l 1006 494 l 981 336 q 1114 393 1035 393 q 1247 338 1196 393 q 1299 193 1299 282 q 1239 44 1299 100 q 1083 -12 1179 -12 q 932 36 993 -12 q 875 158 875 85 l 875 163 m 990 972 l 1108 972 l 401 0 l 282 0 l 990 972 m 308 867 l 136 615 l 308 615 l 308 867 z "},"⅙":{"ha":1250,"x_min":40,"x_max":1196,"o":"m 760 282 q 824 511 760 431 q 1004 594 888 594 q 1139 550 1086 594 q 1194 429 1188 507 l 1092 429 q 1000 517 1085 517 q 900 469 938 517 q 864 344 864 422 l 864 317 q 1007 382 917 382 q 1143 329 1090 382 q 1196 192 1196 276 q 1136 46 1196 101 q 986 -12 1075 -12 q 818 64 876 -12 q 760 282 760 140 m 981 972 l 274 0 l 154 0 l 863 972 l 981 972 m 40 843 q 207 972 175 853 l 294 972 l 294 390 l 193 390 l 193 828 q 40 758 138 760 l 40 843 m 985 64 q 1064 97 1032 64 q 1094 186 1094 129 q 1064 271 1094 239 q 988 304 1035 304 q 907 272 939 304 q 875 189 875 240 q 985 64 875 64 z "},"⅚":{"ha":1361,"x_min":43,"x_max":1313,"o":"m 940 511 q 1121 594 1004 594 q 1256 550 1203 594 q 1311 429 1304 507 l 1208 429 q 1117 517 1201 517 q 1017 469 1054 517 q 981 344 981 422 l 981 317 q 1124 382 1033 382 q 1260 329 1207 382 q 1313 192 1313 276 q 1253 46 1313 101 q 1103 -12 1192 -12 q 935 64 993 -12 q 876 282 876 140 q 940 511 876 431 m 43 553 l 144 553 l 144 549 q 174 483 144 510 q 250 456 206 456 q 333 490 303 456 q 365 582 365 526 q 335 671 365 639 q 254 706 304 706 q 151 640 179 706 l 50 640 l 97 972 l 435 972 l 435 885 l 174 885 l 149 726 q 282 783 203 783 q 415 728 364 783 q 467 583 467 672 q 407 435 467 490 q 251 378 347 378 q 100 426 161 378 q 43 549 43 475 l 43 553 m 1097 972 l 390 0 l 271 0 l 979 972 l 1097 972 m 1101 64 q 1181 97 1149 64 q 1211 186 1211 129 q 1181 271 1211 239 q 1104 304 1151 304 q 1024 272 1056 304 q 992 189 992 240 q 1101 64 992 64 z "},"⅛":{"ha":1247,"x_min":40,"x_max":1199,"o":"m 757 151 q 881 300 757 263 q 772 432 772 342 q 829 549 772 504 q 979 594 885 594 q 1126 550 1069 594 q 1183 435 1183 504 q 1074 300 1183 335 q 1199 156 1199 263 q 1139 33 1199 79 q 978 -12 1078 -12 q 817 32 878 -12 q 757 151 757 75 m 981 972 l 274 0 l 154 0 l 863 972 l 981 972 m 40 843 q 207 972 175 853 l 294 972 l 294 390 l 193 390 l 193 828 q 40 758 138 760 l 40 843 m 892 92 q 979 65 924 65 q 1065 93 1031 65 q 1097 164 1097 121 q 1064 235 1097 207 q 979 263 1028 263 q 893 235 929 263 q 858 164 858 208 q 892 92 858 118 m 979 340 q 1054 364 1024 340 q 1082 429 1082 389 q 979 517 1082 517 q 903 493 933 517 q 874 432 874 469 q 979 340 874 340 z "},"⅜":{"ha":1353,"x_min":46,"x_max":1310,"o":"m 868 151 q 992 300 868 263 q 883 432 883 342 q 940 549 883 504 q 1090 594 996 594 q 1238 550 1181 594 q 1294 435 1294 504 q 1185 300 1294 335 q 1310 156 1310 263 q 1250 33 1310 79 q 1089 -12 1189 -12 q 928 32 989 -12 q 868 151 868 75 m 147 571 q 263 456 150 456 q 344 482 314 456 q 375 554 375 508 q 344 626 375 600 q 263 654 313 654 l 219 654 l 219 732 l 263 732 q 363 824 363 732 q 265 908 363 908 q 157 804 163 908 l 53 804 q 114 936 57 888 q 267 985 171 985 q 408 940 351 985 q 464 826 464 897 q 360 696 464 731 q 476 547 476 658 q 417 426 476 474 q 263 378 356 378 q 106 431 165 378 q 46 571 47 482 l 147 571 m 1092 972 l 385 0 l 265 0 l 974 972 l 1092 972 m 969 164 q 1003 92 969 118 q 1090 65 1035 65 q 1176 93 1142 65 q 1208 164 1208 121 q 1175 235 1208 207 q 1090 263 1139 263 q 1004 235 1040 263 q 969 164 969 208 m 1090 340 q 1165 364 1135 340 q 1193 429 1193 389 q 1090 517 1193 517 q 1014 493 1044 517 q 985 432 985 469 q 1090 340 985 340 z "},"⅝":{"ha":1358,"x_min":43,"x_max":1315,"o":"m 874 151 q 997 300 874 263 q 889 432 889 342 q 946 549 889 504 q 1096 594 1001 594 q 1243 550 1186 594 q 1300 435 1300 504 q 1190 300 1300 335 q 1315 156 1315 263 q 1256 33 1315 79 q 1094 -12 1194 -12 q 933 32 994 -12 q 874 151 874 75 m 43 553 l 144 553 l 144 549 q 174 483 144 510 q 250 456 206 456 q 333 490 303 456 q 365 582 365 526 q 335 671 365 639 q 254 706 304 706 q 151 640 179 706 l 50 640 l 97 972 l 435 972 l 435 885 l 174 885 l 149 726 q 282 783 203 783 q 415 728 364 783 q 467 583 467 672 q 407 435 467 490 q 251 378 347 378 q 100 426 161 378 q 43 549 43 475 l 43 553 m 1097 972 l 390 0 l 271 0 l 979 972 l 1097 972 m 1008 92 q 1096 65 1040 65 q 1182 93 1147 65 q 1214 164 1214 121 q 1181 235 1214 207 q 1096 263 1144 263 q 1010 235 1046 263 q 975 164 975 208 q 1008 92 975 118 m 1096 340 q 1171 364 1140 340 q 1199 429 1199 389 q 1096 517 1199 517 q 1019 493 1050 517 q 990 432 990 469 q 1096 340 990 340 z "},"⅞":{"ha":1274,"x_min":39,"x_max":1224,"o":"m 1076 363 q 1107 429 1107 385 q 1004 517 1107 517 q 932 496 961 517 q 899 432 899 472 q 931 364 899 388 q 1004 340 958 340 q 1076 363 1049 340 m 1086 90 q 1122 164 1122 118 q 1085 238 1122 210 q 1004 263 1051 263 q 922 238 957 263 q 883 164 883 211 q 921 90 883 117 q 1004 65 956 65 q 1086 90 1053 65 m 133 390 q 329 860 154 685 l 354 885 l 39 885 l 39 972 l 457 972 l 457 893 q 249 390 264 685 l 133 390 m 299 0 l 179 0 l 888 972 l 1006 972 l 299 0 m 853 24 q 782 151 782 67 q 906 300 782 260 q 826 354 853 318 q 797 432 797 388 q 864 557 797 513 q 1004 594 919 594 q 1143 557 1086 594 q 1208 435 1208 513 q 1099 300 1208 335 q 1224 156 1224 260 q 1153 26 1224 69 q 1003 -12 1093 -12 q 853 24 914 -12 z "},"⅟":{"ha":1031,"x_min":54,"x_max":994,"o":"m 994 972 l 288 0 l 168 0 l 876 972 l 994 972 m 54 843 q 221 972 189 853 l 308 972 l 308 390 l 207 390 l 207 828 q 54 758 151 760 l 54 843 z "},"←":{"ha":1096,"x_min":44,"x_max":1039,"o":"m 622 68 l 472 68 l 44 494 l 472 922 l 622 922 l 251 551 l 1039 551 l 1039 438 l 251 438 l 622 68 z "},"↑":{"ha":944,"x_min":46,"x_max":899,"o":"m 415 0 l 415 788 l 46 417 l 46 567 l 472 994 l 899 567 l 899 417 l 529 788 l 529 0 l 415 0 z "},"→":{"ha":1096,"x_min":57,"x_max":1051,"o":"m 474 68 l 844 438 l 57 438 l 57 551 l 844 551 l 474 922 l 624 922 l 1051 494 l 624 68 l 474 68 z "},"↓":{"ha":942,"x_min":44,"x_max":897,"o":"m 414 972 l 528 972 l 528 185 l 897 556 l 897 406 l 471 -22 l 44 406 l 44 556 l 414 185 l 414 972 z "},"↖":{"ha":924,"x_min":100,"x_max":850,"o":"m 771 222 l 207 786 l 207 263 l 100 368 l 100 972 l 704 972 l 811 867 l 289 867 l 850 304 l 771 222 z "},"↗":{"ha":924,"x_min":74,"x_max":824,"o":"m 153 222 l 74 304 l 635 867 l 113 867 l 219 972 l 824 972 l 824 368 l 717 263 l 717 786 l 153 222 z "},"↘":{"ha":924,"x_min":72,"x_max":822,"o":"m 151 750 l 715 186 l 715 710 l 822 604 l 822 0 l 218 0 l 111 106 l 633 106 l 72 668 l 151 750 z "},"↙":{"ha":924,"x_min":100,"x_max":850,"o":"m 771 750 l 850 668 l 289 106 l 811 106 l 704 0 l 100 0 l 100 604 l 207 710 l 207 186 l 771 750 z "},"∂":{"ha":822,"x_min":38,"x_max":753,"o":"m 38 293 q 197 589 38 483 q 368 638 275 638 q 638 458 554 638 l 646 519 q 648 549 647 533 q 649 581 649 564 q 569 815 649 729 q 349 900 490 900 l 349 994 q 647 878 540 994 q 753 553 753 760 q 567 58 753 215 q 343 -21 472 -21 q 78 124 161 -21 q 38 293 38 197 m 157 282 q 208 128 157 185 q 338 71 257 71 q 515 143 449 71 q 582 336 582 215 q 528 488 582 426 q 388 547 472 547 q 219 475 282 547 q 157 282 157 401 z "},"∅":{"ha":844,"x_min":65,"x_max":779,"o":"m 243 644 q 422 692 324 692 q 600 644 524 692 l 661 722 l 736 664 l 676 586 q 779 336 779 483 q 601 28 779 132 q 422 -21 521 -21 q 243 28 329 -21 l 183 -50 l 108 8 l 168 86 q 65 336 65 189 q 243 644 65 540 m 304 107 q 422 78 358 78 q 603 154 528 78 q 679 336 679 231 q 614 507 679 433 l 304 107 m 165 336 q 229 165 165 242 l 540 565 q 422 594 482 594 q 200 465 275 594 q 165 336 165 406 z "},"∆":{"ha":933,"x_min":44,"x_max":889,"o":"m 44 0 l 44 101 l 408 972 l 522 972 l 889 101 l 889 0 l 44 0 m 768 101 l 465 838 l 164 101 l 768 101 z "},"∏":{"ha":818,"x_min":49,"x_max":769,"o":"m 49 972 l 769 972 l 769 881 l 644 881 l 644 -179 l 533 -179 l 533 881 l 285 881 l 285 -179 l 174 -179 l 174 881 l 49 881 l 49 972 z "},"∑":{"ha":736,"x_min":50,"x_max":683,"o":"m 683 972 l 683 881 l 174 881 l 235 803 l 521 425 l 521 368 l 231 -11 q 197 -56 211 -36 q 171 -89 182 -75 l 683 -89 l 683 -179 l 50 -179 l 50 -74 l 411 396 l 50 867 l 50 972 l 683 972 z "},"−":{"ha":840,"x_min":92,"x_max":750,"o":"m 92 367 l 92 465 l 750 465 l 750 367 l 92 367 z "},"∕":{"ha":574,"x_min":40,"x_max":533,"o":"m 40 0 l 425 972 l 533 972 l 149 0 l 40 0 z "},"√":{"ha":756,"x_min":21,"x_max":739,"o":"m 250 -69 l 475 972 l 739 972 l 739 881 l 563 881 l 331 -179 l 174 -179 l 21 394 l 132 394 l 250 -69 z "},"∞":{"ha":1053,"x_min":60,"x_max":993,"o":"m 60 421 q 124 594 60 526 q 285 664 189 664 q 526 508 410 664 q 767 664 640 664 q 928 594 863 664 q 993 421 993 522 q 929 246 993 314 q 767 176 864 176 q 526 335 635 176 q 285 176 414 176 q 89 294 149 176 q 60 421 60 350 m 583 419 q 765 278 681 278 q 854 318 818 278 q 889 421 889 357 q 854 524 889 485 q 765 563 819 563 q 672 526 713 563 q 629 481 651 507 q 583 419 607 454 m 199 318 q 288 278 232 278 q 468 419 372 278 q 288 563 375 563 q 199 524 232 563 q 164 421 164 485 q 199 318 164 357 z "},"∫":{"ha":449,"x_min":46,"x_max":403,"o":"m 79 -194 q 168 -92 168 -194 l 168 769 q 368 972 168 972 l 403 972 l 403 874 l 368 874 q 279 769 279 874 l 279 -92 q 79 -293 279 -293 l 46 -293 l 46 -194 l 79 -194 z "},"≈":{"ha":829,"x_min":96,"x_max":736,"o":"m 96 453 q 154 579 100 536 q 276 622 206 622 q 429 583 325 622 q 547 551 513 551 q 633 621 618 551 l 736 621 q 679 497 733 543 q 551 453 628 453 q 393 490 501 453 q 279 519 311 519 q 200 453 210 519 l 96 453 m 96 183 q 154 310 100 267 q 276 353 206 353 q 429 314 325 353 q 547 282 513 282 q 633 351 618 282 l 736 351 q 679 228 733 274 q 551 183 628 183 q 393 221 501 183 q 279 250 311 250 q 200 183 210 250 l 96 183 z "},"≠":{"ha":847,"x_min":93,"x_max":751,"o":"m 554 803 l 660 803 l 561 593 l 751 593 l 751 494 l 514 494 l 439 336 l 751 336 l 751 238 l 392 238 l 293 28 l 188 28 l 286 238 l 93 238 l 93 336 l 333 336 l 408 494 l 93 494 l 93 593 l 456 593 l 554 803 z "},"≤":{"ha":844,"x_min":81,"x_max":739,"o":"m 738 794 l 738 678 l 211 494 l 738 310 l 738 190 l 81 438 l 81 549 l 738 794 m 739 0 l 81 0 l 81 99 l 739 99 l 739 0 z "},"≥":{"ha":843,"x_min":103,"x_max":761,"o":"m 506 449 q 562 469 531 458 q 629 492 593 479 l 507 533 l 104 675 l 104 794 l 760 547 l 760 436 l 104 190 l 104 308 l 506 449 m 761 99 l 761 0 l 103 0 l 103 99 l 761 99 z "},"〈":{"ha":440,"x_min":26,"x_max":428,"o":"m 143 424 l 428 -179 l 310 -179 l 26 421 l 304 1015 l 421 1015 l 143 424 z "},"〉":{"ha":443,"x_min":14,"x_max":415,"o":"m 132 1015 l 415 415 l 138 -179 l 21 -179 l 299 413 l 14 1015 l 132 1015 z "},"①":{"ha":1142,"x_min":64,"x_max":1078,"o":"m 64 488 q 133 743 64 624 q 318 926 201 857 q 571 994 432 994 q 825 926 711 994 q 1010 743 942 857 q 1078 488 1078 629 q 1010 231 1078 344 q 825 47 942 115 q 571 -21 711 -21 q 318 47 433 -21 q 133 232 201 115 q 64 488 64 347 m 157 488 q 363 122 157 240 q 571 67 456 67 q 931 275 811 67 q 985 488 985 371 q 781 851 985 732 q 571 907 688 907 q 213 700 329 907 q 157 488 157 607 m 400 646 q 508 688 460 651 q 567 775 554 722 l 644 775 l 644 193 l 553 193 l 553 646 q 400 564 507 567 l 400 646 z "},"②":{"ha":1142,"x_min":64,"x_max":1078,"o":"m 133 743 q 318 926 201 857 q 571 994 432 994 q 825 926 711 994 q 1010 743 942 857 q 1078 488 1078 629 q 1010 231 1078 344 q 825 47 942 115 q 571 -21 711 -21 q 318 47 433 -21 q 133 232 201 115 q 64 488 64 347 q 133 743 64 624 m 363 122 q 571 67 456 67 q 931 275 811 67 q 985 488 985 371 q 781 851 985 732 q 571 907 688 907 q 213 700 329 907 q 157 488 157 607 q 363 122 157 240 m 365 594 q 425 736 368 685 q 581 790 483 790 q 724 740 667 790 q 779 613 779 690 q 625 400 779 501 l 557 354 q 494 288 496 314 l 783 288 l 783 200 l 365 200 q 506 426 365 335 l 568 469 q 676 610 676 544 q 650 683 676 657 q 578 711 622 711 q 469 594 471 711 l 365 594 z "},"③":{"ha":1142,"x_min":64,"x_max":1078,"o":"m 133 743 q 318 926 201 857 q 571 994 432 994 q 825 926 711 994 q 1010 743 942 857 q 1078 488 1078 629 q 1010 231 1078 344 q 825 47 942 115 q 571 -21 711 -21 q 318 47 433 -21 q 133 232 201 115 q 64 488 64 347 q 133 743 64 624 m 157 488 q 363 122 157 240 q 571 67 456 67 q 931 275 811 67 q 985 488 985 371 q 781 851 985 732 q 571 907 688 907 q 213 700 329 907 q 157 488 157 607 m 447 375 q 565 258 449 258 q 683 358 683 258 q 651 432 683 404 q 565 460 619 460 l 529 460 l 529 536 l 567 536 q 671 628 671 536 q 569 715 671 715 q 456 610 461 715 l 363 610 q 421 742 365 694 q 571 790 478 790 q 710 746 653 790 q 764 632 764 701 q 658 500 764 533 q 778 351 778 464 q 719 229 778 276 q 567 182 660 182 q 413 235 469 182 q 354 375 357 286 l 447 375 z "},"④":{"ha":1142,"x_min":64,"x_max":1078,"o":"m 133 743 q 318 926 201 857 q 571 994 432 994 q 825 926 711 994 q 1010 743 942 857 q 1078 488 1078 629 q 1010 231 1078 344 q 825 47 942 115 q 571 -21 711 -21 q 318 47 433 -21 q 133 232 201 115 q 64 488 64 347 q 133 743 64 624 m 157 488 q 363 122 157 240 q 571 67 456 67 q 931 275 811 67 q 985 488 985 371 q 781 851 985 732 q 571 907 688 907 q 213 700 329 907 q 157 488 157 607 m 565 775 l 682 775 l 682 418 l 789 418 l 789 339 l 682 339 l 682 193 l 592 193 l 592 339 l 322 339 l 322 421 l 565 775 m 592 689 q 567 649 576 658 l 408 418 l 592 418 l 592 689 z "},"⑤":{"ha":1142,"x_min":64,"x_max":1078,"o":"m 64 488 q 133 743 64 624 q 318 926 201 857 q 571 994 432 994 q 825 926 711 994 q 1010 743 942 857 q 1078 488 1078 629 q 1010 231 1078 344 q 825 47 942 115 q 571 -21 711 -21 q 318 47 433 -21 q 133 232 201 115 q 64 488 64 347 m 157 488 q 363 122 157 240 q 571 67 456 67 q 931 275 811 67 q 985 488 985 371 q 781 851 985 732 q 571 907 688 907 q 213 700 329 907 q 157 488 157 607 m 458 356 q 489 286 458 313 q 569 258 521 258 q 657 293 624 258 q 690 386 690 328 q 660 474 690 442 q 574 508 629 508 q 467 443 496 508 l 375 443 l 422 768 l 750 768 l 750 683 l 488 683 l 468 558 q 465 533 467 543 q 463 517 464 522 q 601 583 513 583 q 731 528 681 583 q 781 389 781 471 q 724 238 781 294 q 571 182 667 182 q 422 232 478 182 q 367 356 367 279 l 458 356 z "},"⑥":{"ha":1142,"x_min":64,"x_max":1078,"o":"m 64 488 q 133 743 64 624 q 318 926 201 857 q 571 994 432 994 q 825 926 711 994 q 1010 743 942 857 q 1078 488 1078 629 q 1010 231 1078 344 q 825 47 942 115 q 571 -21 711 -21 q 318 47 433 -21 q 133 232 201 115 q 64 488 64 347 m 363 122 q 571 67 456 67 q 931 275 811 67 q 985 488 985 371 q 781 851 985 732 q 571 907 688 907 q 213 700 329 907 q 157 488 157 607 q 363 122 157 240 m 351 478 q 414 707 351 625 q 592 790 476 790 q 722 746 674 790 q 776 626 769 703 l 683 626 q 586 714 676 714 q 446 521 446 714 l 446 499 q 594 576 499 576 q 726 524 674 576 q 778 386 778 472 q 719 240 778 296 q 574 182 661 182 q 408 258 464 182 q 351 478 351 336 m 489 290 q 571 257 519 257 q 654 292 624 257 q 686 381 686 326 q 656 467 686 435 q 575 500 624 500 q 489 467 522 500 q 457 383 457 435 q 489 290 457 326 z "},"⑦":{"ha":1142,"x_min":64,"x_max":1078,"o":"m 133 743 q 318 926 201 857 q 571 994 432 994 q 825 926 711 994 q 1010 743 942 857 q 1078 488 1078 629 q 1010 231 1078 344 q 825 47 942 115 q 571 -21 711 -21 q 318 47 433 -21 q 133 232 201 115 q 64 488 64 347 q 133 743 64 624 m 363 122 q 571 67 456 67 q 931 275 811 67 q 985 488 985 371 q 781 851 985 732 q 571 907 688 907 q 213 700 329 907 q 157 488 157 607 q 363 122 157 240 m 375 768 l 782 768 l 782 690 q 575 193 590 482 l 469 193 q 664 656 489 481 q 692 682 689 681 l 375 682 l 375 768 z "},"⑧":{"ha":1142,"x_min":64,"x_max":1078,"o":"m 133 743 q 318 926 201 857 q 571 994 432 994 q 825 926 711 994 q 1010 743 942 857 q 1078 488 1078 629 q 1010 231 1078 344 q 825 47 942 115 q 571 -21 711 -21 q 318 47 433 -21 q 133 232 201 115 q 64 488 64 347 q 133 743 64 624 m 157 488 q 363 122 157 240 q 571 67 456 67 q 931 275 811 67 q 985 488 985 371 q 781 851 985 732 q 571 907 688 907 q 213 700 329 907 q 157 488 157 607 m 479 494 q 371 626 371 533 q 426 744 371 699 q 572 790 482 790 q 715 746 660 790 q 771 629 771 700 q 663 494 771 528 q 786 351 786 458 q 728 229 786 275 q 571 182 671 182 q 413 228 471 182 q 356 347 356 272 q 479 494 356 454 m 481 286 q 572 258 517 258 q 661 286 625 258 q 694 358 694 313 q 660 429 694 403 q 572 458 624 458 q 483 429 518 458 q 447 358 447 401 q 481 286 447 313 m 463 626 q 572 535 463 535 q 650 558 618 535 q 681 624 681 583 q 572 714 681 714 q 493 690 525 714 q 463 626 463 668 z "},"⑨":{"ha":1142,"x_min":64,"x_max":1078,"o":"m 133 743 q 318 926 201 857 q 571 994 432 994 q 825 926 711 994 q 1010 743 942 857 q 1078 488 1078 629 q 1010 231 1078 344 q 825 47 942 115 q 571 -21 711 -21 q 318 47 433 -21 q 133 232 201 115 q 64 488 64 347 q 133 743 64 624 m 157 488 q 363 122 157 240 q 571 67 456 67 q 931 275 811 67 q 985 488 985 371 q 781 851 985 732 q 571 907 688 907 q 213 700 329 907 q 157 488 157 607 m 432 736 q 578 790 490 790 q 736 714 681 790 q 794 490 794 635 q 567 182 794 182 q 432 229 479 182 q 379 336 386 274 l 472 336 q 571 258 485 258 q 706 456 700 258 l 706 479 q 553 406 653 406 q 425 458 478 406 q 374 594 374 510 q 432 736 374 679 m 465 599 q 496 513 465 543 q 578 481 528 481 q 658 513 626 481 q 689 599 689 543 q 658 682 689 651 q 578 714 626 714 q 497 682 529 714 q 465 599 465 650 z "},"⓪":{"ha":1142,"x_min":64,"x_max":1078,"o":"m 133 743 q 318 926 201 857 q 571 994 432 994 q 825 926 711 994 q 1010 743 942 857 q 1078 488 1078 629 q 1010 231 1078 344 q 825 47 942 115 q 571 -21 711 -21 q 318 47 433 -21 q 133 232 201 115 q 64 488 64 347 q 133 743 64 624 m 157 488 q 363 122 157 240 q 571 67 456 67 q 931 275 811 67 q 985 488 985 371 q 781 851 985 732 q 571 907 688 907 q 213 700 329 907 q 157 488 157 607 m 413 708 q 572 790 471 790 q 731 708 672 790 q 789 485 789 626 q 731 263 789 343 q 572 182 675 182 q 411 263 467 182 q 353 485 353 343 q 413 708 353 628 m 447 485 q 572 260 447 260 q 696 485 696 260 q 572 713 696 713 q 479 657 510 713 q 447 485 447 600 z "},"⓿":{"ha":1142,"x_min":64,"x_max":1078,"o":"m 64 488 q 133 743 64 624 q 318 926 201 857 q 571 994 432 994 q 825 926 711 994 q 1010 743 942 857 q 1078 488 1078 629 q 1010 231 1078 344 q 825 47 942 115 q 571 -21 711 -21 q 318 47 433 -21 q 133 232 201 115 q 64 488 64 347 m 353 485 q 411 263 353 343 q 572 182 467 182 q 731 263 675 182 q 789 485 789 343 q 731 708 789 626 q 572 790 672 790 q 413 708 471 790 q 353 485 353 628 m 447 485 q 572 713 447 713 q 696 485 696 713 q 572 260 696 260 q 481 317 513 260 q 447 485 447 372 z "},"■":{"ha":1222,"x_min":125,"x_max":1097,"o":"m 125 0 l 125 972 l 1097 972 l 1097 0 l 125 0 z "},"□":{"ha":1222,"x_min":125,"x_max":1097,"o":"m 125 0 l 125 972 l 1097 972 l 1097 0 l 125 0 m 233 106 l 989 106 l 989 867 l 233 867 l 233 106 z "},"▪":{"ha":778,"x_min":111,"x_max":667,"o":"m 111 208 l 111 764 l 667 764 l 667 208 l 111 208 z "},"▫":{"ha":778,"x_min":111,"x_max":667,"o":"m 111 208 l 111 764 l 667 764 l 667 208 l 111 208 m 215 313 l 563 313 l 563 660 l 215 660 l 215 313 z "},"▲":{"ha":1119,"x_min":35,"x_max":1085,"o":"m 35 0 l 560 997 l 1085 0 l 35 0 z "},"△":{"ha":1118,"x_min":35,"x_max":1083,"o":"m 35 0 l 558 997 l 1083 0 l 35 0 m 206 103 l 913 103 l 558 775 l 206 103 z "},"▶":{"ha":1028,"x_min":125,"x_max":993,"o":"m 125 -11 l 125 983 l 993 486 l 125 -11 z "},"▷":{"ha":1028,"x_min":125,"x_max":993,"o":"m 125 -11 l 125 983 l 993 486 l 125 -11 m 228 165 l 789 486 l 228 807 l 228 165 z "},"▼":{"ha":1119,"x_min":35,"x_max":1085,"o":"m 35 972 l 1085 972 l 560 -25 l 35 972 z "},"▽":{"ha":1118,"x_min":35,"x_max":1083,"o":"m 35 972 l 1083 972 l 558 -25 l 35 972 m 206 869 l 558 197 l 913 869 l 206 869 z "},"◀":{"ha":1028,"x_min":35,"x_max":903,"o":"m 903 -11 l 35 486 l 903 983 l 903 -11 z "},"◁":{"ha":1028,"x_min":35,"x_max":903,"o":"m 903 -11 l 35 486 l 903 983 l 903 -11 m 800 165 l 800 807 l 239 486 l 800 165 z "},"◆":{"ha":1175,"x_min":28,"x_max":1147,"o":"m 588 -74 l 28 486 l 588 1044 l 1147 486 l 588 -74 z "},"◇":{"ha":1175,"x_min":28,"x_max":1147,"o":"m 588 -74 l 28 486 l 588 1044 l 1147 486 l 588 -74 m 588 71 l 1001 486 l 588 900 l 174 486 l 588 71 z "},"◊":{"ha":694,"x_min":49,"x_max":646,"o":"m 404 972 l 646 486 l 404 0 l 290 0 l 49 486 l 290 972 l 404 972 m 310 193 q 329 153 319 174 q 350 114 339 133 q 369 151 360 132 q 389 193 379 171 l 533 482 l 346 858 l 161 490 l 310 193 z "},"○":{"ha":1172,"x_min":65,"x_max":1107,"o":"m 136 747 q 326 938 206 867 q 586 1007 446 1007 q 847 938 724 1007 q 1038 747 967 867 q 1107 486 1107 624 q 1038 226 1107 346 q 847 36 967 106 q 586 -35 726 -35 q 326 36 444 -35 q 136 226 206 106 q 65 486 65 344 q 136 747 65 626 m 382 126 q 586 71 475 71 q 939 278 819 71 q 993 486 993 371 q 790 846 993 725 q 586 901 697 901 q 235 696 353 901 q 179 486 179 603 q 382 126 179 247 z "},"●":{"ha":1150,"x_min":65,"x_max":1085,"o":"m 135 742 q 321 929 203 860 q 575 997 435 997 q 831 929 713 997 q 1017 742 947 861 q 1085 486 1085 624 q 1017 231 1085 349 q 831 44 950 114 q 575 -25 713 -25 q 321 44 436 -25 q 135 231 203 113 q 65 486 65 350 q 135 742 65 622 z "},"◻":{"ha":1014,"x_min":125,"x_max":889,"o":"m 125 104 l 125 868 l 889 868 l 889 104 l 125 104 m 229 208 l 785 208 l 785 764 l 229 764 l 229 208 z "},"◼":{"ha":1014,"x_min":125,"x_max":889,"o":"m 125 104 l 125 868 l 889 868 l 889 104 l 125 104 z "},"♡":{"ha":1100,"x_min":56,"x_max":1044,"o":"m 128 911 q 317 993 201 993 q 550 844 485 993 q 783 993 615 993 q 972 911 899 993 q 1044 699 1044 831 q 828 249 1044 490 q 549 -26 721 128 q 111 478 207 279 q 56 699 56 588 q 128 911 56 831 m 160 703 q 251 440 160 579 q 549 103 340 303 q 850 442 764 310 q 940 701 940 578 q 897 846 940 794 q 774 899 853 899 q 596 711 610 899 l 504 711 q 326 899 489 899 q 204 846 249 899 q 160 703 160 793 z "},"♥":{"ha":1100,"x_min":56,"x_max":1044,"o":"m 56 703 q 128 913 56 832 q 314 993 200 993 q 468 939 406 993 q 550 793 532 886 q 632 939 568 886 q 786 993 694 993 q 972 913 901 993 q 1044 701 1044 832 q 925 372 1044 542 q 774 192 867 292 q 549 -26 681 93 q 176 371 297 200 q 56 703 56 539 z "},"❶":{"ha":1142,"x_min":64,"x_max":1078,"o":"m 133 743 q 318 926 201 857 q 571 994 432 994 q 825 926 711 994 q 1010 743 942 857 q 1078 488 1078 629 q 1010 231 1078 344 q 825 47 942 115 q 571 -21 711 -21 q 318 47 433 -21 q 133 232 201 115 q 64 488 64 347 q 133 743 64 624 m 400 564 q 553 646 507 567 l 553 193 l 644 193 l 644 775 l 567 775 q 508 688 554 722 q 400 646 460 651 l 400 564 z "},"❷":{"ha":1142,"x_min":64,"x_max":1078,"o":"m 64 488 q 133 743 64 624 q 318 926 201 857 q 571 994 432 994 q 825 926 711 994 q 1010 743 942 857 q 1078 488 1078 629 q 1010 231 1078 344 q 825 47 942 115 q 571 -21 711 -21 q 318 47 433 -21 q 133 232 201 115 q 64 488 64 347 m 783 200 l 783 288 l 494 288 q 557 354 496 314 l 625 400 q 779 613 779 501 q 724 740 779 690 q 581 790 667 790 q 425 736 483 790 q 365 594 368 685 l 469 594 q 578 711 471 711 q 650 683 622 711 q 676 610 676 657 q 568 469 676 544 l 506 426 q 400 326 433 379 q 365 200 365 275 l 783 200 z "},"❸":{"ha":1142,"x_min":64,"x_max":1078,"o":"m 64 488 q 133 743 64 624 q 318 926 201 857 q 571 994 432 994 q 825 926 711 994 q 1010 743 942 857 q 1078 488 1078 629 q 1010 231 1078 344 q 825 47 942 115 q 571 -21 711 -21 q 318 47 433 -21 q 133 232 201 115 q 64 488 64 347 m 354 375 q 413 235 356 288 q 567 182 469 182 q 719 229 660 182 q 778 351 778 276 q 658 500 778 464 q 764 632 764 533 q 710 746 764 701 q 571 790 653 790 q 421 742 478 790 q 363 610 365 694 l 456 610 q 569 715 461 715 q 671 628 671 715 q 567 536 671 536 l 529 536 l 529 460 l 565 460 q 651 432 619 460 q 683 358 683 404 q 565 258 683 258 q 447 375 449 258 l 354 375 z "},"❹":{"ha":1142,"x_min":64,"x_max":1078,"o":"m 133 743 q 318 926 201 857 q 571 994 432 994 q 825 926 711 994 q 1010 743 942 857 q 1078 488 1078 629 q 1010 231 1078 344 q 825 47 942 115 q 571 -21 711 -21 q 318 47 433 -21 q 133 232 201 115 q 64 488 64 347 q 133 743 64 624 m 322 339 l 592 339 l 592 193 l 682 193 l 682 339 l 789 339 l 789 418 l 682 418 l 682 775 l 565 775 l 322 421 l 322 339 m 567 649 q 592 689 576 658 l 592 418 l 408 418 l 567 649 z "},"❺":{"ha":1142,"x_min":64,"x_max":1078,"o":"m 64 488 q 133 743 64 624 q 318 926 201 857 q 571 994 432 994 q 825 926 711 994 q 1010 743 942 857 q 1078 488 1078 629 q 1010 231 1078 344 q 825 47 942 115 q 571 -21 711 -21 q 318 47 433 -21 q 133 232 201 115 q 64 488 64 347 m 367 356 q 422 232 367 279 q 571 182 478 182 q 724 238 667 182 q 781 389 781 294 q 731 528 781 471 q 601 583 681 583 q 463 517 513 583 q 465 533 464 522 q 468 558 467 543 l 488 683 l 750 683 l 750 768 l 422 768 l 375 443 l 467 443 q 574 508 496 508 q 660 474 629 508 q 690 386 690 442 q 657 293 690 328 q 569 258 624 258 q 489 286 521 258 q 458 356 458 313 l 367 356 z "},"❻":{"ha":1142,"x_min":64,"x_max":1078,"o":"m 133 743 q 318 926 201 857 q 571 994 432 994 q 825 926 711 994 q 1010 743 942 857 q 1078 488 1078 629 q 1010 231 1078 344 q 825 47 942 115 q 571 -21 711 -21 q 318 47 433 -21 q 133 232 201 115 q 64 488 64 347 q 133 743 64 624 m 574 182 q 719 240 661 182 q 778 386 778 296 q 726 524 778 472 q 594 576 674 576 q 446 499 499 576 l 446 521 q 586 714 446 714 q 683 626 676 714 l 776 626 q 722 746 769 703 q 592 790 674 790 q 414 707 476 790 q 351 478 351 625 q 574 182 351 182 m 489 467 q 575 500 522 500 q 656 467 624 500 q 686 381 686 435 q 654 292 686 326 q 571 257 624 257 q 489 290 519 257 q 457 383 457 326 q 489 467 457 435 z "},"❼":{"ha":1142,"x_min":64,"x_max":1078,"o":"m 64 488 q 133 743 64 624 q 318 926 201 857 q 571 994 432 994 q 825 926 711 994 q 1010 743 942 857 q 1078 488 1078 629 q 1010 231 1078 344 q 825 47 942 115 q 571 -21 711 -21 q 318 47 433 -21 q 133 232 201 115 q 64 488 64 347 m 375 682 l 692 682 q 664 656 689 681 q 469 193 489 481 l 575 193 q 782 690 590 482 l 782 768 l 375 768 l 375 682 z "},"❽":{"ha":1142,"x_min":64,"x_max":1078,"o":"m 133 743 q 318 926 201 857 q 571 994 432 994 q 825 926 711 994 q 1010 743 942 857 q 1078 488 1078 629 q 1010 231 1078 344 q 825 47 942 115 q 571 -21 711 -21 q 318 47 433 -21 q 133 232 201 115 q 64 488 64 347 q 133 743 64 624 m 413 228 q 571 182 471 182 q 728 229 671 182 q 786 351 786 275 q 663 494 786 458 q 771 629 771 528 q 715 746 771 700 q 572 790 660 790 q 426 744 482 790 q 371 626 371 699 q 479 494 371 533 q 356 347 356 454 q 413 228 356 272 m 447 358 q 483 429 447 401 q 572 458 518 458 q 660 429 624 458 q 694 358 694 403 q 661 286 694 313 q 572 258 625 258 q 482 286 518 258 q 447 358 447 313 m 572 714 q 681 624 681 714 q 650 558 681 583 q 572 535 618 535 q 463 626 463 535 q 572 714 463 714 z "},"❾":{"ha":1142,"x_min":64,"x_max":1078,"o":"m 64 488 q 133 743 64 624 q 318 926 201 857 q 571 994 432 994 q 825 926 711 994 q 1010 743 942 857 q 1078 488 1078 629 q 1010 231 1078 344 q 825 47 942 115 q 571 -21 711 -21 q 318 47 433 -21 q 133 232 201 115 q 64 488 64 347 m 374 594 q 425 458 374 510 q 553 406 478 406 q 706 479 653 406 l 706 456 q 571 258 700 258 q 472 336 485 258 l 379 336 q 432 229 386 274 q 567 182 479 182 q 794 490 794 182 q 736 714 794 635 q 578 790 681 790 q 432 736 490 790 q 374 594 374 679 m 465 599 q 497 682 465 650 q 578 714 529 714 q 658 682 626 714 q 689 599 689 651 q 658 513 689 543 q 578 481 626 481 q 496 513 528 481 q 465 599 465 543 z "},"《":{"ha":707,"x_min":26,"x_max":693,"o":"m 569 1015 l 686 1015 l 408 424 l 693 -179 l 575 -179 l 292 421 l 569 1015 m 421 1015 l 143 424 l 428 -179 l 310 -179 l 26 421 l 304 1015 l 421 1015 z "},"》":{"ha":708,"x_min":15,"x_max":682,"o":"m 682 415 l 404 -179 l 288 -179 l 565 413 l 281 1015 l 399 1015 l 682 415 m 417 415 l 139 -179 l 22 -179 l 300 413 l 15 1015 l 133 1015 l 417 415 z "},"「":{"ha":394,"x_min":96,"x_max":368,"o":"m 96 417 l 96 1015 l 368 1015 l 368 922 l 208 922 l 208 417 l 96 417 z "},"」":{"ha":376,"x_min":11,"x_max":283,"o":"m 283 417 l 283 -182 l 11 -182 l 11 -89 l 171 -89 l 171 417 l 283 417 z "},"『":{"ha":606,"x_min":97,"x_max":557,"o":"m 97 340 l 97 1015 l 557 1015 l 557 760 l 356 760 l 356 340 l 97 340 m 189 417 l 265 417 l 265 836 l 465 836 l 465 939 l 189 939 l 189 417 z "},"』":{"ha":603,"x_min":44,"x_max":504,"o":"m 504 496 l 504 -179 l 44 -179 l 44 76 l 246 76 l 246 496 l 504 496 m 413 419 l 336 419 l 336 0 l 136 0 l 136 -103 l 413 -103 l 413 419 z "},"【":{"ha":454,"x_min":126,"x_max":446,"o":"m 446 1015 l 446 1011 q 229 419 229 750 q 282 101 229 244 q 349 -40 308 29 q 446 -176 390 -108 l 446 -179 l 126 -179 l 126 1015 l 446 1015 z "},"】":{"ha":446,"x_min":8,"x_max":328,"o":"m 8 -175 q 225 417 225 85 q 174 735 225 599 q 8 1013 121 875 l 8 1015 l 328 1015 l 328 -179 l 8 -179 l 8 -175 z "},"〔":{"ha":381,"x_min":86,"x_max":350,"o":"m 265 -199 l 86 36 l 86 797 l 267 1035 l 350 975 l 199 778 l 199 58 l 349 -139 l 265 -199 z "},"〕":{"ha":381,"x_min":31,"x_max":294,"o":"m 115 1035 l 294 800 l 294 39 l 114 -199 l 31 -139 l 182 58 l 182 778 l 32 975 l 115 1035 z "},"":{"ha":1097,"x_min":50,"x_max":1047,"o":"m 126 -21 l 50 56 l 474 486 l 51 915 l 128 993 l 549 563 l 971 993 l 1047 917 l 625 488 l 1047 58 l 971 -19 l 549 411 l 126 -21 z "},"":{"ha":1257,"x_min":56,"x_max":1208,"o":"m 1118 967 l 1208 894 l 504 -21 l 56 554 l 149 628 l 506 167 l 1118 967 z "},"":{"ha":1297,"x_min":111,"x_max":1186,"o":"m 1186 50 l 111 50 l 111 157 l 1186 157 l 1186 50 m 1186 436 l 111 436 l 111 542 l 1186 542 l 1186 436 m 111 926 l 1186 926 l 1186 821 l 111 821 l 111 926 z "},"":{"ha":1225,"x_min":125,"x_max":1099,"o":"m 125 0 l 125 972 l 1099 972 l 1099 0 l 125 0 m 244 107 l 979 107 l 979 867 l 244 867 l 244 107 z "},"":{"ha":1225,"x_min":125,"x_max":1128,"o":"m 460 688 l 622 417 l 1033 992 l 1128 924 l 611 221 l 364 624 l 460 688 m 978 107 l 978 456 l 1097 456 l 1097 0 l 125 0 l 125 972 l 754 972 l 754 867 l 243 867 l 243 107 l 978 107 z "},"":{"ha":1225,"x_min":125,"x_max":1099,"o":"m 125 0 l 125 972 l 1099 972 l 1099 0 l 125 0 m 244 107 l 979 107 l 979 867 l 244 867 l 244 107 m 533 410 l 533 571 l 692 571 l 692 410 l 533 410 z "},"":{"ha":956,"x_min":35,"x_max":921,"o":"m 921 0 l 35 0 l 35 107 l 478 107 l 132 449 l 218 535 l 417 331 l 417 972 l 540 972 l 540 332 l 739 535 l 825 449 l 478 107 l 921 107 l 921 0 z "},"":{"ha":964,"x_min":65,"x_max":899,"o":"m 274 847 q 482 903 367 903 q 843 694 719 903 q 899 486 899 601 q 690 126 899 249 q 482 69 592 69 q 122 278 244 69 q 65 486 65 376 q 274 847 65 724 z "},"":{"ha":797,"x_min":65,"x_max":732,"o":"m 232 775 q 399 819 310 819 q 688 653 588 819 q 732 486 732 575 q 565 199 732 296 q 399 153 488 153 q 111 319 208 153 q 65 486 65 396 q 232 775 65 675 z "},"":{"ha":1006,"x_min":65,"x_max":940,"o":"m 285 865 q 503 924 385 924 q 882 706 753 924 q 940 486 940 603 q 722 108 940 235 q 503 49 621 49 q 125 268 253 49 q 65 486 65 365 q 285 865 65 736 m 342 203 q 503 158 415 158 q 783 322 688 158 q 826 486 826 394 q 665 769 826 671 q 503 814 588 814 q 224 650 319 814 q 179 486 179 572 q 342 203 179 300 z "},"":{"ha":797,"x_min":65,"x_max":732,"o":"m 232 775 q 399 819 310 819 q 688 653 588 819 q 732 486 732 575 q 565 199 732 296 q 399 153 488 153 q 111 319 208 153 q 65 486 65 396 q 232 775 65 675 m 242 328 q 399 261 306 261 q 556 328 490 261 q 621 486 621 396 q 556 644 621 576 q 399 711 490 711 q 242 644 306 711 q 176 486 176 576 q 242 328 176 396 z "},"":{"ha":1172,"x_min":65,"x_max":1107,"o":"m 136 747 q 326 938 206 867 q 586 1007 446 1007 q 847 938 728 1007 q 1038 747 967 867 q 1107 486 1107 628 q 1038 226 1107 346 q 847 36 967 106 q 586 -35 728 -35 q 326 36 444 -35 q 136 226 206 106 q 65 486 65 344 q 136 747 65 628 m 376 122 q 586 65 475 65 q 950 276 825 65 q 1007 486 1007 375 q 797 850 1007 725 q 586 907 699 907 q 222 697 347 907 q 165 486 165 599 q 376 122 165 247 m 426 764 q 586 807 499 807 q 864 647 772 807 q 907 486 907 575 q 747 208 907 300 q 586 165 675 165 q 308 326 400 165 q 265 486 265 399 q 426 764 265 672 m 431 331 q 586 265 496 265 q 742 331 676 265 q 807 486 807 396 q 742 642 807 576 q 586 707 676 707 q 431 642 496 707 q 365 486 365 576 q 431 331 365 396 m 465 486 q 501 572 465 536 q 586 607 536 607 q 672 572 638 607 q 707 486 707 538 q 672 401 707 436 q 586 365 636 365 q 501 401 538 365 q 465 486 465 438 z "},"":{"ha":1014,"x_min":69,"x_max":944,"o":"m 69 486 q 289 865 69 736 q 507 924 389 924 q 886 706 757 924 q 944 486 944 603 q 726 108 944 235 q 507 49 625 49 q 129 268 257 49 q 69 486 69 365 m 174 486 q 340 199 174 296 q 507 153 417 153 q 796 319 696 153 q 840 486 840 397 q 674 775 840 675 q 507 819 596 819 q 219 653 317 819 q 174 486 174 575 m 344 649 q 507 715 413 715 q 669 649 600 715 q 736 486 736 579 q 669 324 736 392 q 507 257 600 257 q 344 324 413 257 q 278 486 278 392 q 344 649 278 579 m 382 486 q 419 399 382 433 q 507 361 454 361 q 594 399 558 361 q 632 486 632 433 q 596 575 632 539 q 507 611 560 611 q 419 575 456 611 q 382 486 382 538 z "},"":{"ha":806,"x_min":69,"x_max":736,"o":"m 69 486 q 236 775 69 675 q 403 819 314 819 q 692 653 592 819 q 736 486 736 575 q 569 199 736 296 q 403 153 492 153 q 115 319 213 153 q 69 486 69 396 m 174 486 q 240 324 174 392 q 403 257 308 257 q 565 324 496 257 q 632 486 632 392 q 565 649 632 579 q 403 715 496 715 q 204 601 268 715 q 174 486 174 550 m 278 486 q 315 574 278 538 q 403 611 350 611 q 492 575 456 611 q 528 486 528 539 q 490 399 528 433 q 403 361 454 361 q 315 399 350 361 q 278 486 278 433 z "},"":{"ha":1224,"x_min":125,"x_max":1097,"o":"m 125 0 l 125 972 l 1097 972 l 1097 0 l 125 0 m 229 104 l 993 104 l 993 868 l 229 868 l 229 104 m 333 208 l 333 764 l 889 764 l 889 208 l 333 208 m 438 313 l 785 313 l 785 660 l 438 660 l 438 313 m 542 417 l 542 556 l 681 556 l 681 417 l 542 417 z "},"":{"ha":1014,"x_min":125,"x_max":889,"o":"m 125 104 l 125 868 l 889 868 l 889 104 l 125 104 m 229 208 l 785 208 l 785 764 l 229 764 l 229 208 m 333 313 l 333 660 l 681 660 l 681 313 l 333 313 m 438 417 l 576 417 l 576 556 l 438 556 l 438 417 z "},"":{"ha":778,"x_min":111,"x_max":667,"o":"m 111 208 l 111 764 l 667 764 l 667 208 l 111 208 m 215 313 l 563 313 l 563 660 l 215 660 l 215 313 m 319 417 l 319 556 l 458 556 l 458 417 l 319 417 z "},"":{"ha":1294,"x_min":60,"x_max":1189,"o":"m 60 829 q 114 933 60 933 q 151 869 143 933 q 171 785 157 814 q 254 656 204 715 q 386 608 293 608 l 407 608 q 517 613 471 613 q 573 611 547 613 q 622 607 599 610 q 667 603 647 604 q 703 601 688 601 q 794 613 750 601 q 885 683 854 629 q 969 760 931 760 q 1000 710 1000 760 q 1039 672 1000 672 q 1081 686 1067 672 l 1100 714 q 1139 750 1121 750 q 1176 713 1161 750 q 1189 636 1189 672 q 1183 513 1189 544 q 1153 410 1176 476 q 1128 311 1143 388 q 1113 229 1118 260 q 1106 189 1107 199 q 1100 144 1103 178 q 1094 56 1097 111 q 1056 0 1090 0 l 1050 0 q 1001 54 1028 3 q 964 97 975 97 q 954 57 954 97 q 936 -8 951 -3 l 922 -11 q 865 54 881 -11 q 803 179 846 131 q 679 238 750 238 q 588 229 643 238 q 471 150 493 214 q 460 109 465 132 q 451 58 456 86 q 419 -6 443 -6 q 372 57 390 -6 q 353 92 363 92 q 328 46 338 92 q 286 -17 311 -17 q 247 36 254 -17 l 217 292 q 206 352 211 326 q 199 396 201 378 q 190 440 193 424 q 185 458 186 456 q 165 503 175 481 q 142 549 154 525 q 119 590 131 567 q 93 644 107 614 q 82 679 88 658 q 71 729 76 700 q 60 829 60 789 m 957 528 q 981 504 981 524 q 953 478 981 478 q 940 475 946 476 q 932 472 935 474 q 919 457 919 461 q 938 447 919 449 q 969 443 958 443 q 985 469 972 457 q 1004 494 997 478 q 1008 510 1008 503 q 953 553 1008 528 l 943 556 q 922 542 932 556 q 911 506 911 524 q 950 528 929 528 l 957 528 m 1089 446 q 1096 447 1094 446 q 1124 485 1124 458 l 1124 488 q 1090 529 1121 529 q 1079 522 1083 529 q 1106 494 1094 522 q 1107 488 1107 493 q 1075 457 1107 457 q 1089 446 1082 446 m 1147 663 q 1149 674 1149 664 q 1140 693 1149 685 q 1131 658 1131 675 q 1136 640 1131 646 l 1147 663 m 954 708 q 932 682 935 694 l 932 678 q 940 654 932 663 l 954 708 z "},"ﬁ":{"ha":756,"x_min":26,"x_max":663,"o":"m 153 669 l 153 793 q 208 942 153 888 q 344 994 265 994 q 413 982 385 994 l 413 881 l 369 885 q 272 785 272 885 l 272 669 l 654 669 l 654 0 l 535 0 l 535 571 l 272 571 l 272 0 l 153 0 l 153 571 l 26 571 l 26 669 l 153 669 m 525 939 l 663 939 l 663 796 l 525 796 l 525 939 z "},"ﬂ":{"ha":756,"x_min":26,"x_max":654,"o":"m 153 669 l 153 793 q 208 942 153 888 q 344 994 265 994 q 413 982 385 994 l 413 881 l 369 885 q 272 785 272 885 l 272 669 l 411 669 l 411 571 l 272 571 l 272 0 l 153 0 l 153 571 l 26 571 l 26 669 l 153 669 m 654 972 l 654 0 l 535 0 l 535 972 l 654 972 z "}}}
